<svg xmlns="http://www.w3.org/2000/svg" width="1242" height="684.094" viewBox="0 0 1242 684.094">
  <g id="Grupo_109527" data-name="Grupo 109527" transform="translate(4352.434 825.246)">
    <path id="Trazado_161205" data-name="Trazado 161205" d="M8.885,0H328.74a8.885,8.885,0,0,1,8.885,8.885V64.859a8.885,8.885,0,0,1-8.885,8.885H8.885A8.885,8.885,0,0,1,0,64.859V8.885A8.885,8.885,0,0,1,8.885,0Z" transform="translate(-4351.434 -711.172)" fill="#d1d5fc" stroke="#3e4bbf" stroke-width="2"/>
    <path id="Trazado_161206" data-name="Trazado 161206" d="M8.885,0H328.74a8.885,8.885,0,0,1,8.885,8.885V64.859a8.885,8.885,0,0,1-8.885,8.885H8.885A8.885,8.885,0,0,1,0,64.859V8.885A8.885,8.885,0,0,1,8.885,0Z" transform="translate(-3899.934 -711.172)" fill="#d1d5fc" stroke="#3e4bbf" stroke-width="2"/>
    <path id="Trazado_161207" data-name="Trazado 161207" d="M8.885,0H328.74a8.885,8.885,0,0,1,8.885,8.885V64.859a8.885,8.885,0,0,1-8.885,8.885H8.885A8.885,8.885,0,0,1,0,64.859V8.885A8.885,8.885,0,0,1,8.885,0Z" transform="translate(-3449.058 -711.172)" fill="#d1d5fc" stroke="#3e4bbf" stroke-width="2"/>
    <text id="Según_la_intención_del_hablante" data-name="Según la intención del hablante" transform="translate(-4310.434 -667.246)" fill="#12263f" font-size="18" font-family="Roboto-Bold, Roboto" font-weight="700"><tspan x="0" y="0">Según la intención del hablante</tspan></text>
    <text id="Según_la_estructura_del_predicado" data-name="Según la estructura del predicado" transform="translate(-3867.434 -667.246)" fill="#12263f" font-size="18" font-family="Roboto-Bold, Roboto" font-weight="700"><tspan x="0" y="0">Según la estructura del predicado</tspan></text>
    <text id="Según_la_cantidad_de_verbos" data-name="Según la cantidad de verbos" transform="translate(-3386.466 -667.246)" fill="#12263f" font-size="18" font-family="Roboto-Bold, Roboto" font-weight="700"><tspan x="0" y="0">Según la cantidad de verbos</tspan></text>
    <path id="Trazado_161208" data-name="Trazado 161208" d="M6.54,0H393.46C397.072,0,400,2.381,400,5.319V56.738c0,2.937-2.928,5.319-6.54,5.319H6.54C2.928,62.057,0,59.675,0,56.738V5.319C0,2.381,2.928,0,6.54,0Z" transform="translate(-3931.434 -824.246)" fill="#3d46c2" stroke="#3e4bbf" stroke-width="2"/>
    <text id="Tipos_de_oraciones" data-name="Tipos de oraciones" transform="translate(-3833.369 -785.636)" fill="#fff" font-size="24" font-family="Roboto-Bold, Roboto" font-weight="700"><tspan x="0" y="0">Tipos de oraciones</tspan></text>
    <rect id="Rectángulo_41340" data-name="Rectángulo 41340" width="257.928" height="44.586" rx="5" transform="translate(-3813.776 -306.943)" fill="#f3f9ff" stroke="#4752e3" stroke-miterlimit="10" stroke-width="2"/>
    <rect id="Rectángulo_41341" data-name="Rectángulo 41341" width="257.928" height="44.586" rx="5" transform="translate(-3813.776 -246.309)" fill="#f3f9ff" stroke="#4752e3" stroke-miterlimit="10" stroke-width="2"/>
    <rect id="Rectángulo_41342" data-name="Rectángulo 41342" width="257.928" height="44.586" rx="5" transform="translate(-3813.776 -430.34)" fill="#f3f9ff" stroke="#4752e3" stroke-miterlimit="10" stroke-width="2"/>
    <rect id="Rectángulo_41343" data-name="Rectángulo 41343" width="257.928" height="44.586" rx="5" transform="translate(-3813.776 -186.738)" fill="#f3f9ff" stroke="#4752e3" stroke-miterlimit="10" stroke-width="2"/>
    <rect id="Rectángulo_41344" data-name="Rectángulo 41344" width="257.928" height="44.586" rx="5" transform="translate(-3813.776 -369.705)" fill="#f3f9ff" stroke="#4752e3" stroke-miterlimit="10" stroke-width="2"/>
    <text id="Recíprocas" transform="translate(-3698.276 -277.647)" fill="#12263f" font-size="16" font-family="Roboto-Bold, Roboto" font-weight="700"><tspan x="-40.172" y="0">Recíprocas</tspan></text>
    <text id="Transitivas_o_intransitivas" data-name="Transitivas o  intransitivas" transform="translate(-3698.276 -404.17)" fill="#12263f" font-size="16" font-family="Roboto-Bold, Roboto" font-weight="700"><tspan x="-94.531" y="0" xml:space="preserve">Transitivas o  intransitivas</tspan></text>
    <text id="Reflexivas" transform="translate(-3698.276 -341.408)" fill="#12263f" font-size="16" font-family="Roboto-Bold, Roboto" font-weight="700"><tspan x="-37.234" y="0">Reflexivas</tspan></text>
    <text id="Personales_o_impersonales" data-name="Personales o impersonales" transform="translate(-3698.276 -218.516)" fill="#12263f" font-size="16" font-family="Roboto-Bold, Roboto" font-weight="700"><tspan x="-97.633" y="0">Personales o impersonales</tspan></text>
    <text id="Pasivas_o_activas" data-name="Pasivas o activas" transform="translate(-3698.276 -158.442)" fill="#12263f" font-size="16" font-family="Roboto-Bold, Roboto" font-weight="700"><tspan x="-62.207" y="0">Pasivas o activas</tspan></text>
    <rect id="Rectángulo_41345" data-name="Rectángulo 41345" width="184.537" height="44.586" rx="5" transform="translate(-3297.781 -431.503)" fill="#f3f9ff" stroke="#4752e3" stroke-miterlimit="10" stroke-width="2"/>
    <rect id="Rectángulo_41346" data-name="Rectángulo 41346" width="184.537" height="44.586" rx="5" transform="translate(-3297.781 -371.333)" fill="#f3f9ff" stroke="#4752e3" stroke-miterlimit="10" stroke-width="2"/>
    <rect id="Rectángulo_41347" data-name="Rectángulo 41347" width="184.537" height="44.586" rx="5" transform="translate(-3297.781 -311.198)" fill="#f3f9ff" stroke="#4752e3" stroke-miterlimit="10" stroke-width="2"/>
    <text id="Coordinadas" transform="translate(-3264.443 -404.56)" fill="#12263f" font-size="16" font-family="Roboto-Bold, Roboto" font-weight="700"><tspan x="0" y="0">Coordinadas</tspan></text>
    <text id="Subordinadas" transform="translate(-3271.89 -343.39)" fill="#12263f" font-size="16" font-family="Roboto-Bold, Roboto" font-weight="700"><tspan x="0" y="0">Subordinadas</tspan></text>
    <text id="Yuxtapuestas" transform="translate(-3271.89 -281.901)" fill="#12263f" font-size="16" font-family="Roboto-Bold, Roboto" font-weight="700"><tspan x="0" y="0">Yuxtapuestas</tspan></text>
    <line id="Línea_264" data-name="Línea 264" y2="101.091" transform="translate(-4197.816 -637.113)" fill="#fff" stroke="#3e4bbf" stroke-miterlimit="10" stroke-width="2"/>
    <g id="Grupo_109503" data-name="Grupo 109503" transform="translate(-4170.434 -753.122)">
      <g id="Grupo_108280" data-name="Grupo 108280" transform="translate(878.602 39.549) rotate(180)">
        <path id="Trazado_158067" data-name="Trazado 158067" d="M0,0,18.149,22.217H425.341l14.134,17.3" fill="none" stroke="#3e4bbf" stroke-linecap="round" stroke-linejoin="round" stroke-width="2"/>
        <path id="Trazado_158068" data-name="Trazado 158068" d="M439.033,0,420.883,22.213H13.691L0,39.549" transform="translate(439.57)" fill="none" stroke="#3e4bbf" stroke-linecap="round" stroke-linejoin="round" stroke-width="2"/>
      </g>
    </g>
    <line id="Línea_265" data-name="Línea 265" y2="58.518" transform="translate(-3683.162 -490.293)" fill="#fff" stroke="#3e4bbf" stroke-miterlimit="10" stroke-width="2"/>
    <line id="Línea_266" data-name="Línea 266" y2="41.803" transform="translate(-3731.434 -752.836)" fill="#fff" stroke="#3e4bbf" stroke-miterlimit="10" stroke-width="2"/>
    <g id="Grupo_109504" data-name="Grupo 109504" transform="translate(-3829.989 -637.662)">
      <line id="Línea_234" data-name="Línea 234" x1="108.984" y2="108.477" transform="translate(-11.445 0.439)" fill="none" stroke="#3e4bbf" stroke-width="2"/>
      <line id="Línea_257" data-name="Línea 257" x2="108.822" y2="108.916" transform="translate(99.733)" fill="none" stroke="#3e4bbf" stroke-width="2"/>
    </g>
    <g id="Grupo_109505" data-name="Grupo 109505" transform="translate(-3384.574 -637.662)">
      <line id="Línea_234-2" data-name="Línea 234" x1="104.507" y2="104.476" transform="translate(-6.359 0.44)" fill="none" stroke="#3e4bbf" stroke-width="2"/>
      <line id="Línea_257-2" data-name="Línea 257" x2="105.3" y2="104.916" transform="translate(100.341)" fill="none" stroke="#3e4bbf" stroke-width="2"/>
    </g>
    <line id="Línea_267" data-name="Línea 267" y2="58.507" transform="translate(-3205.766 -490.281)" fill="#fff" stroke="#3e4bbf" stroke-miterlimit="10" stroke-width="2"/>
    <path id="Trazado_161209" data-name="Trazado 161209" d="M5,0H179.537a5,5,0,0,1,5,5V39.586a5,5,0,0,1-5,5H5a5,5,0,0,1-5-5V5A5,5,0,0,1,5,0Z" transform="translate(-4292.673 -535.652)" fill="#bae887" stroke="#77b43a" stroke-width="2"/>
    <rect id="Rectángulo_41348" data-name="Rectángulo 41348" width="184.537" height="44.586" rx="5" transform="translate(-4292.673 -474.963)" fill="#bae887" stroke="#77b43a" stroke-miterlimit="10" stroke-width="2"/>
    <rect id="Rectángulo_41349" data-name="Rectángulo 41349" width="184.537" height="44.586" rx="5" transform="translate(-4292.673 -414.793)" fill="#bae887" stroke="#77b43a" stroke-miterlimit="10" stroke-width="2"/>
    <rect id="Rectángulo_41350" data-name="Rectángulo 41350" width="184.537" height="44.586" rx="5" transform="translate(-4292.673 -354.621)" fill="#bae887" stroke="#77b43a" stroke-miterlimit="10" stroke-width="2"/>
    <rect id="Rectángulo_41351" data-name="Rectángulo 41351" width="184.537" height="44.586" rx="5" transform="translate(-4292.673 -294.452)" fill="#bae887" stroke="#77b43a" stroke-miterlimit="10" stroke-width="2"/>
    <rect id="Rectángulo_41352" data-name="Rectángulo 41352" width="184.537" height="44.586" rx="5" transform="translate(-4292.673 -230.856)" fill="#bae887" stroke="#77b43a" stroke-miterlimit="10" stroke-width="2"/>
    <text id="Dubitativas" transform="translate(-4242.462 -507.418)" fill="#12263f" font-size="16" font-family="Roboto-Bold, Roboto" font-weight="700"><tspan x="0" y="0">Dubitativas</tspan></text>
    <text id="Exclamativas" transform="translate(-4252.538 -447.75)" fill="#12263f" font-size="16" font-family="Roboto-Bold, Roboto" font-weight="700"><tspan x="0" y="0">Exclamativas</tspan></text>
    <text id="Interrogativas" transform="translate(-4253.744 -387.578)" fill="#12263f" font-size="16" font-family="Roboto-Bold, Roboto" font-weight="700"><tspan x="0" y="0">Interrogativas</tspan></text>
    <text id="Desiderativas" transform="translate(-4254.134 -328.096)" fill="#12263f" font-size="16" font-family="Roboto-Bold, Roboto" font-weight="700"><tspan x="0" y="0">Desiderativas</tspan></text>
    <text id="Enunciativas" transform="translate(-4250.411 -266.659)" fill="#12263f" font-size="16" font-family="Roboto-Bold, Roboto" font-weight="700"><tspan x="0" y="0">Enunciativas</tspan></text>
    <text id="Imperativas" transform="translate(-4250.411 -203.063)" fill="#12263f" font-size="16" font-family="Roboto-Bold, Roboto" font-weight="700"><tspan x="0" y="0">Imperativas</tspan></text>
    <g id="Grupo_109506" data-name="Grupo 109506" transform="translate(-4147.637 -535.743)">
      <g id="Grupo_78489" data-name="Grupo 78489" transform="translate(0 0)">
        <circle id="Elipse_4758" data-name="Elipse 4758" cx="18.084" cy="18.084" r="18.084" transform="translate(4.255 4.255)" fill="#f85316" opacity="0.18"/>
        <circle id="Elipse_4759" data-name="Elipse 4759" cx="22.339" cy="22.339" r="22.339" transform="translate(0 0)" fill="#f85316" opacity="0.154"/>
      </g>
      <circle id="Elipse_4753" data-name="Elipse 4753" cx="13.829" cy="13.829" r="13.829" transform="translate(8.51 8.51)" fill="#f85316"/>
      <path id="Trazado_146139" data-name="Trazado 146139" d="M1.852-5.854h3.26v2.282H1.852V.178h-2.5V-3.571H-3.926V-5.854H-.647V-9.422h2.5Z" transform="translate(21.628 27.124)" fill="#fff"/>
    </g>
    <g id="Grupo_109507" data-name="Grupo 109507" transform="translate(-4147.637 -475.109)">
      <g id="Grupo_78489-2" data-name="Grupo 78489" transform="translate(0 0)">
        <circle id="Elipse_4758-2" data-name="Elipse 4758" cx="18.084" cy="18.084" r="18.084" transform="translate(4.255 4.255)" fill="#f85316" opacity="0.18"/>
        <circle id="Elipse_4759-2" data-name="Elipse 4759" cx="22.339" cy="22.339" r="22.339" transform="translate(0 0)" fill="#f85316" opacity="0.154"/>
      </g>
      <circle id="Elipse_4753-2" data-name="Elipse 4753" cx="13.829" cy="13.829" r="13.829" transform="translate(8.51 8.51)" fill="#f85316"/>
      <path id="Trazado_146139-2" data-name="Trazado 146139" d="M1.852-5.854h3.26v2.282H1.852V.178h-2.5V-3.571H-3.926V-5.854H-.647V-9.422h2.5Z" transform="translate(21.628 27.124)" fill="#fff"/>
    </g>
    <g id="Grupo_109508" data-name="Grupo 109508" transform="translate(-4147.637 -414.475)">
      <g id="Grupo_78489-3" data-name="Grupo 78489" transform="translate(0 0)">
        <circle id="Elipse_4758-3" data-name="Elipse 4758" cx="18.084" cy="18.084" r="18.084" transform="translate(4.255 4.255)" fill="#f85316" opacity="0.18"/>
        <circle id="Elipse_4759-3" data-name="Elipse 4759" cx="22.339" cy="22.339" r="22.339" transform="translate(0 0)" fill="#f85316" opacity="0.154"/>
      </g>
      <circle id="Elipse_4753-3" data-name="Elipse 4753" cx="13.829" cy="13.829" r="13.829" transform="translate(8.51 8.51)" fill="#f85316"/>
      <path id="Trazado_146139-3" data-name="Trazado 146139" d="M1.852-5.854h3.26v2.282H1.852V.178h-2.5V-3.571H-3.926V-5.854H-.647V-9.422h2.5Z" transform="translate(21.628 27.124)" fill="#fff"/>
    </g>
    <g id="Grupo_109509" data-name="Grupo 109509" transform="translate(-4147.637 -353.841)">
      <g id="Grupo_78489-4" data-name="Grupo 78489" transform="translate(0 0)">
        <circle id="Elipse_4758-4" data-name="Elipse 4758" cx="18.084" cy="18.084" r="18.084" transform="translate(4.255 4.255)" fill="#f85316" opacity="0.18"/>
        <circle id="Elipse_4759-4" data-name="Elipse 4759" cx="22.339" cy="22.339" r="22.339" transform="translate(0 0)" fill="#f85316" opacity="0.154"/>
      </g>
      <circle id="Elipse_4753-4" data-name="Elipse 4753" cx="13.829" cy="13.829" r="13.829" transform="translate(8.51 8.51)" fill="#f85316"/>
      <path id="Trazado_146139-4" data-name="Trazado 146139" d="M1.852-5.854h3.26v2.282H1.852V.178h-2.5V-3.571H-3.926V-5.854H-.647V-9.422h2.5Z" transform="translate(21.628 27.124)" fill="#fff"/>
    </g>
    <g id="Grupo_109510" data-name="Grupo 109510" transform="translate(-4147.637 -293.206)">
      <g id="Grupo_78489-5" data-name="Grupo 78489" transform="translate(0 0)">
        <circle id="Elipse_4758-5" data-name="Elipse 4758" cx="18.084" cy="18.084" r="18.084" transform="translate(4.255 4.255)" fill="#f85316" opacity="0.18"/>
        <circle id="Elipse_4759-5" data-name="Elipse 4759" cx="22.339" cy="22.339" r="22.339" transform="translate(0 0)" fill="#f85316" opacity="0.154"/>
      </g>
      <circle id="Elipse_4753-5" data-name="Elipse 4753" cx="13.829" cy="13.829" r="13.829" transform="translate(8.51 8.51)" fill="#f85316"/>
      <path id="Trazado_146139-5" data-name="Trazado 146139" d="M1.852-5.854h3.26v2.282H1.852V.178h-2.5V-3.571H-3.926V-5.854H-.647V-9.422h2.5Z" transform="translate(21.628 27.124)" fill="#fff"/>
    </g>
    <g id="Grupo_109511" data-name="Grupo 109511" transform="translate(-4147.637 -232.572)">
      <g id="Grupo_78489-6" data-name="Grupo 78489" transform="translate(0 0)">
        <circle id="Elipse_4758-6" data-name="Elipse 4758" cx="18.084" cy="18.084" r="18.084" transform="translate(4.255 4.255)" fill="#f85316" opacity="0.18"/>
        <circle id="Elipse_4759-6" data-name="Elipse 4759" cx="22.339" cy="22.339" r="22.339" transform="translate(0 0)" fill="#f85316" opacity="0.154"/>
      </g>
      <circle id="Elipse_4753-6" data-name="Elipse 4753" cx="13.829" cy="13.829" r="13.829" transform="translate(8.51 8.51)" fill="#f85316"/>
      <path id="Trazado_146139-6" data-name="Trazado 146139" d="M1.852-5.854h3.26v2.282H1.852V.178h-2.5V-3.571H-3.926V-5.854H-.647V-9.422h2.5Z" transform="translate(21.628 27.124)" fill="#fff"/>
    </g>
    <rect id="Rectángulo_41353" data-name="Rectángulo 41353" width="184.537" height="44.586" rx="5" transform="translate(-3974.1 -535.652)" fill="#bae887" stroke="#77b43a" stroke-miterlimit="10" stroke-width="2"/>
    <rect id="Rectángulo_41354" data-name="Rectángulo 41354" width="184.537" height="44.586" rx="5" transform="translate(-3755.313 -535.652)" fill="#bae887" stroke="#77b43a" stroke-miterlimit="10" stroke-width="2"/>
    <text id="Predicativas" transform="translate(-3714.766 -508.419)" fill="#12263f" font-size="16" font-family="Roboto-Bold, Roboto" font-weight="700"><tspan x="0" y="0">Predicativas</tspan></text>
    <text id="Atributivas" transform="translate(-3884.317 -508.419)" fill="#12263f" font-size="16" font-family="Roboto-Bold, Roboto" font-weight="700"><tspan x="-39.25" y="0">Atributivas</tspan></text>
    <g id="Grupo_109512" data-name="Grupo 109512" transform="translate(-4147.637 -535.743)">
      <g id="Grupo_78489-7" data-name="Grupo 78489" transform="translate(0 0)">
        <circle id="Elipse_4758-7" data-name="Elipse 4758" cx="18.084" cy="18.084" r="18.084" transform="translate(4.255 4.255)" fill="#f85316" opacity="0.18"/>
        <circle id="Elipse_4759-7" data-name="Elipse 4759" cx="22.339" cy="22.339" r="22.339" transform="translate(0 0)" fill="#f85316" opacity="0.154"/>
      </g>
      <circle id="Elipse_4753-7" data-name="Elipse 4753" cx="13.829" cy="13.829" r="13.829" transform="translate(8.51 8.51)" fill="#f85316"/>
      <path id="Trazado_146139-7" data-name="Trazado 146139" d="M1.852-5.854h3.26v2.282H1.852V.178h-2.5V-3.571H-3.926V-5.854H-.647V-9.422h2.5Z" transform="translate(21.628 27.124)" fill="#fff"/>
    </g>
    <g id="Grupo_109513" data-name="Grupo 109513" transform="translate(-3831.492 -535.743)">
      <g id="Grupo_78489-8" data-name="Grupo 78489" transform="translate(0 0)">
        <circle id="Elipse_4758-8" data-name="Elipse 4758" cx="18.084" cy="18.084" r="18.084" transform="translate(4.255 4.255)" fill="#f85316" opacity="0.18"/>
        <circle id="Elipse_4759-8" data-name="Elipse 4759" cx="22.339" cy="22.339" r="22.339" transform="translate(0 0)" fill="#f85316" opacity="0.154"/>
      </g>
      <circle id="Elipse_4753-8" data-name="Elipse 4753" cx="13.829" cy="13.829" r="13.829" transform="translate(8.51 8.51)" fill="#f85316"/>
      <path id="Trazado_146139-8" data-name="Trazado 146139" d="M1.852-5.854h3.26v2.282H1.852V.178h-2.5V-3.571H-3.926V-5.854H-.647V-9.422h2.5Z" transform="translate(21.628 27.124)" fill="#fff"/>
    </g>
    <g id="Grupo_109514" data-name="Grupo 109514" transform="translate(-3613.111 -535.743)">
      <g id="Grupo_78489-9" data-name="Grupo 78489" transform="translate(0 0)">
        <circle id="Elipse_4758-9" data-name="Elipse 4758" cx="18.084" cy="18.084" r="18.084" transform="translate(4.255 4.255)" fill="#f85316" opacity="0.18"/>
        <circle id="Elipse_4759-9" data-name="Elipse 4759" cx="22.339" cy="22.339" r="22.339" transform="translate(0 0)" fill="#f85316" opacity="0.154"/>
      </g>
      <circle id="Elipse_4753-9" data-name="Elipse 4753" cx="13.829" cy="13.829" r="13.829" transform="translate(8.51 8.51)" fill="#f85316"/>
      <path id="Trazado_146139-9" data-name="Trazado 146139" d="M1.852-5.854h3.26v2.282H1.852V.178h-2.5V-3.571H-3.926V-5.854H-.647V-9.422h2.5Z" transform="translate(21.628 27.124)" fill="#fff"/>
    </g>
    <rect id="Rectángulo_41355" data-name="Rectángulo 41355" width="184.537" height="44.586" rx="5" transform="translate(-3301.002 -535.652)" fill="#bae887" stroke="#77b43a" stroke-miterlimit="10" stroke-width="2"/>
    <rect id="Rectángulo_41356" data-name="Rectángulo 41356" width="184.537" height="44.586" rx="5" transform="translate(-3509.542 -535.652)" fill="#bae887" stroke="#77b43a" stroke-miterlimit="10" stroke-width="2"/>
    <text id="Compuestas" transform="translate(-3256.856 -508.419)" fill="#12263f" font-size="16" font-family="Roboto-Bold, Roboto" font-weight="700"><tspan x="0" y="0">Compuestas</tspan></text>
    <text id="Simples" transform="translate(-3423.624 -508.419)" fill="#12263f" font-size="16" font-family="Roboto-Bold, Roboto" font-weight="700"><tspan x="-29.027" y="0">Simples</tspan></text>
    <g id="Grupo_109515" data-name="Grupo 109515" transform="translate(-3613.111 -535.743)">
      <g id="Grupo_78489-10" data-name="Grupo 78489" transform="translate(0 0)">
        <circle id="Elipse_4758-10" data-name="Elipse 4758" cx="18.084" cy="18.084" r="18.084" transform="translate(4.255 4.255)" fill="#f85316" opacity="0.18"/>
        <circle id="Elipse_4759-10" data-name="Elipse 4759" cx="22.339" cy="22.339" r="22.339" transform="translate(0 0)" fill="#f85316" opacity="0.154"/>
      </g>
      <circle id="Elipse_4753-10" data-name="Elipse 4753" cx="13.829" cy="13.829" r="13.829" transform="translate(8.51 8.51)" fill="#f85316"/>
      <path id="Trazado_146139-10" data-name="Trazado 146139" d="M1.852-5.854h3.26v2.282H1.852V.178h-2.5V-3.571H-3.926V-5.854H-.647V-9.422h2.5Z" transform="translate(21.628 27.124)" fill="#fff"/>
    </g>
    <g id="Grupo_109516" data-name="Grupo 109516" transform="translate(-3593.111 -430.34)">
      <g id="Grupo_78489-11" data-name="Grupo 78489" transform="translate(0 0)">
        <circle id="Elipse_4758-11" data-name="Elipse 4758" cx="18.084" cy="18.084" r="18.084" transform="translate(4.255 4.255)" fill="#f85316" opacity="0.18"/>
        <circle id="Elipse_4759-11" data-name="Elipse 4759" cx="22.339" cy="22.339" r="22.339" transform="translate(0 0)" fill="#f85316" opacity="0.154"/>
      </g>
      <circle id="Elipse_4753-11" data-name="Elipse 4753" cx="13.829" cy="13.829" r="13.829" transform="translate(8.51 8.51)" fill="#f85316"/>
      <path id="Trazado_146139-11" data-name="Trazado 146139" d="M1.852-5.854h3.26v2.282H1.852V.178h-2.5V-3.571H-3.926V-5.854H-.647V-9.422h2.5Z" transform="translate(21.628 27.124)" fill="#fff"/>
    </g>
    <g id="Grupo_109517" data-name="Grupo 109517" transform="translate(-3156.111 -430.34)">
      <g id="Grupo_78489-12" data-name="Grupo 78489" transform="translate(0 0)">
        <circle id="Elipse_4758-12" data-name="Elipse 4758" cx="18.084" cy="18.084" r="18.084" transform="translate(4.255 4.255)" fill="#f85316" opacity="0.18"/>
        <circle id="Elipse_4759-12" data-name="Elipse 4759" cx="22.339" cy="22.339" r="22.339" transform="translate(0 0)" fill="#f85316" opacity="0.154"/>
      </g>
      <circle id="Elipse_4753-12" data-name="Elipse 4753" cx="13.829" cy="13.829" r="13.829" transform="translate(8.51 8.51)" fill="#f85316"/>
      <path id="Trazado_146139-12" data-name="Trazado 146139" d="M1.852-5.854h3.26v2.282H1.852V.178h-2.5V-3.571H-3.926V-5.854H-.647V-9.422h2.5Z" transform="translate(21.628 27.124)" fill="#fff"/>
    </g>
    <g id="Grupo_109518" data-name="Grupo 109518" transform="translate(-3156.111 -369.247)">
      <g id="Grupo_78489-13" data-name="Grupo 78489" transform="translate(0 0)">
        <circle id="Elipse_4758-13" data-name="Elipse 4758" cx="18.084" cy="18.084" r="18.084" transform="translate(4.255 4.255)" fill="#f85316" opacity="0.18"/>
        <circle id="Elipse_4759-13" data-name="Elipse 4759" cx="22.339" cy="22.339" r="22.339" transform="translate(0 0)" fill="#f85316" opacity="0.154"/>
      </g>
      <circle id="Elipse_4753-13" data-name="Elipse 4753" cx="13.829" cy="13.829" r="13.829" transform="translate(8.51 8.51)" fill="#f85316"/>
      <path id="Trazado_146139-13" data-name="Trazado 146139" d="M1.852-5.854h3.26v2.282H1.852V.178h-2.5V-3.571H-3.926V-5.854H-.647V-9.422h2.5Z" transform="translate(21.628 27.124)" fill="#fff"/>
    </g>
    <g id="Grupo_109519" data-name="Grupo 109519" transform="translate(-3156.111 -310.24)">
      <g id="Grupo_78489-14" data-name="Grupo 78489" transform="translate(0 0)">
        <circle id="Elipse_4758-14" data-name="Elipse 4758" cx="18.084" cy="18.084" r="18.084" transform="translate(4.255 4.255)" fill="#f85316" opacity="0.18"/>
        <circle id="Elipse_4759-14" data-name="Elipse 4759" cx="22.339" cy="22.339" r="22.339" transform="translate(0 0)" fill="#f85316" opacity="0.154"/>
      </g>
      <circle id="Elipse_4753-14" data-name="Elipse 4753" cx="13.829" cy="13.829" r="13.829" transform="translate(8.51 8.51)" fill="#f85316"/>
      <path id="Trazado_146139-14" data-name="Trazado 146139" d="M1.852-5.854h3.26v2.282H1.852V.178h-2.5V-3.571H-3.926V-5.854H-.647V-9.422h2.5Z" transform="translate(21.628 27.124)" fill="#fff"/>
    </g>
    <g id="Grupo_109520" data-name="Grupo 109520" transform="translate(-3593.111 -370.606)">
      <g id="Grupo_78489-15" data-name="Grupo 78489" transform="translate(0 0)">
        <circle id="Elipse_4758-15" data-name="Elipse 4758" cx="18.084" cy="18.084" r="18.084" transform="translate(4.255 4.255)" fill="#f85316" opacity="0.18"/>
        <circle id="Elipse_4759-15" data-name="Elipse 4759" cx="22.339" cy="22.339" r="22.339" transform="translate(0 0)" fill="#f85316" opacity="0.154"/>
      </g>
      <circle id="Elipse_4753-15" data-name="Elipse 4753" cx="13.829" cy="13.829" r="13.829" transform="translate(8.51 8.51)" fill="#f85316"/>
      <path id="Trazado_146139-15" data-name="Trazado 146139" d="M1.852-5.854h3.26v2.282H1.852V.178h-2.5V-3.571H-3.926V-5.854H-.647V-9.422h2.5Z" transform="translate(21.628 27.124)" fill="#fff"/>
    </g>
    <g id="Grupo_109521" data-name="Grupo 109521" transform="translate(-3593.111 -305.971)">
      <g id="Grupo_78489-16" data-name="Grupo 78489" transform="translate(0 0)">
        <circle id="Elipse_4758-16" data-name="Elipse 4758" cx="18.084" cy="18.084" r="18.084" transform="translate(4.255 4.255)" fill="#f85316" opacity="0.18"/>
        <circle id="Elipse_4759-16" data-name="Elipse 4759" cx="22.339" cy="22.339" r="22.339" transform="translate(0 0)" fill="#f85316" opacity="0.154"/>
      </g>
      <circle id="Elipse_4753-16" data-name="Elipse 4753" cx="13.829" cy="13.829" r="13.829" transform="translate(8.51 8.51)" fill="#f85316"/>
      <path id="Trazado_146139-16" data-name="Trazado 146139" d="M1.852-5.854h3.26v2.282H1.852V.178h-2.5V-3.571H-3.926V-5.854H-.647V-9.422h2.5Z" transform="translate(21.628 27.124)" fill="#fff"/>
    </g>
    <g id="Grupo_109522" data-name="Grupo 109522" transform="translate(-3593.111 -246.236)">
      <g id="Grupo_78489-17" data-name="Grupo 78489" transform="translate(0 0)">
        <circle id="Elipse_4758-17" data-name="Elipse 4758" cx="18.084" cy="18.084" r="18.084" transform="translate(4.255 4.255)" fill="#f85316" opacity="0.18"/>
        <circle id="Elipse_4759-17" data-name="Elipse 4759" cx="22.339" cy="22.339" r="22.339" transform="translate(0 0)" fill="#f85316" opacity="0.154"/>
      </g>
      <circle id="Elipse_4753-17" data-name="Elipse 4753" cx="13.829" cy="13.829" r="13.829" transform="translate(8.51 8.51)" fill="#f85316"/>
      <path id="Trazado_146139-17" data-name="Trazado 146139" d="M1.852-5.854h3.26v2.282H1.852V.178h-2.5V-3.571H-3.926V-5.854H-.647V-9.422h2.5Z" transform="translate(21.628 27.124)" fill="#fff"/>
    </g>
    <g id="Grupo_109523" data-name="Grupo 109523" transform="translate(-3593.111 -186.502)">
      <g id="Grupo_78489-18" data-name="Grupo 78489" transform="translate(0 0)">
        <circle id="Elipse_4758-18" data-name="Elipse 4758" cx="18.084" cy="18.084" r="18.084" transform="translate(4.255 4.255)" fill="#f85316" opacity="0.18"/>
        <circle id="Elipse_4759-18" data-name="Elipse 4759" cx="22.339" cy="22.339" r="22.339" transform="translate(0 0)" fill="#f85316" opacity="0.154"/>
      </g>
      <circle id="Elipse_4753-18" data-name="Elipse 4753" cx="13.829" cy="13.829" r="13.829" transform="translate(8.51 8.51)" fill="#f85316"/>
      <path id="Trazado_146139-18" data-name="Trazado 146139" d="M1.852-5.854h3.26v2.282H1.852V.178h-2.5V-3.571H-3.926V-5.854H-.647V-9.422h2.5Z" transform="translate(21.628 27.124)" fill="#fff"/>
    </g>
    <g id="Grupo_109524" data-name="Grupo 109524" transform="translate(-3366.111 -535.743)">
      <g id="Grupo_78489-19" data-name="Grupo 78489" transform="translate(0 0)">
        <circle id="Elipse_4758-19" data-name="Elipse 4758" cx="18.084" cy="18.084" r="18.084" transform="translate(4.255 4.255)" fill="#f85316" opacity="0.18"/>
        <circle id="Elipse_4759-19" data-name="Elipse 4759" cx="22.339" cy="22.339" r="22.339" transform="translate(0 0)" fill="#f85316" opacity="0.154"/>
      </g>
      <circle id="Elipse_4753-19" data-name="Elipse 4753" cx="13.829" cy="13.829" r="13.829" transform="translate(8.51 8.51)" fill="#f85316"/>
      <path id="Trazado_146139-19" data-name="Trazado 146139" d="M1.852-5.854h3.26v2.282H1.852V.178h-2.5V-3.571H-3.926V-5.854H-.647V-9.422h2.5Z" transform="translate(21.628 27.124)" fill="#fff"/>
    </g>
    <g id="Grupo_109525" data-name="Grupo 109525" transform="translate(-3156.111 -535.743)">
      <g id="Grupo_78489-20" data-name="Grupo 78489" transform="translate(0 0)">
        <circle id="Elipse_4758-20" data-name="Elipse 4758" cx="18.084" cy="18.084" r="18.084" transform="translate(4.255 4.255)" fill="#f85316" opacity="0.18"/>
        <circle id="Elipse_4759-20" data-name="Elipse 4759" cx="22.339" cy="22.339" r="22.339" transform="translate(0 0)" fill="#f85316" opacity="0.154"/>
      </g>
      <circle id="Elipse_4753-20" data-name="Elipse 4753" cx="13.829" cy="13.829" r="13.829" transform="translate(8.51 8.51)" fill="#f85316"/>
      <path id="Trazado_146139-20" data-name="Trazado 146139" d="M1.852-5.854h3.26v2.282H1.852V.178h-2.5V-3.571H-3.926V-5.854H-.647V-9.422h2.5Z" transform="translate(21.628 27.124)" fill="#fff"/>
    </g>
  </g>
</svg>
