<svg xmlns="http://www.w3.org/2000/svg" width="100" height="100" viewBox="0 0 100 100">
  <g id="Grupo_109498" data-name="Grupo 109498" transform="translate(4469.152 2011.674)">
    <g id="falta" transform="translate(-4469.152 -2011.674)">
      <g id="Grupo_109352" data-name="Grupo 109352" transform="translate(1.465 1.464)">
        <path id="Trazado_161020" data-name="Trazado 161020" d="M265.677,176.48V207.84a8.971,8.971,0,0,1-8.955,8.984h-2.959l-.3.357-9.113,10.727-9.416-11.084H216.665a8.971,8.971,0,0,1-8.955-8.984V167.5h49.012a8.971,8.971,0,0,1,8.955,8.984Z" transform="translate(-168.606 -136.246)" fill="#3d46c2"/>
        <g id="Grupo_109349" data-name="Grupo 109349" transform="translate(0 17.578)">
          <path id="Trazado_161022" data-name="Trazado 161022" d="M84.984,106.48v30.188a8.971,8.971,0,0,1-8.955,8.984H38.248l-9.416,11.084-9.418-11.084H16.455A8.971,8.971,0,0,1,7.5,136.668V106.48A8.971,8.971,0,0,1,16.455,97.5H76.029A8.971,8.971,0,0,1,84.984,106.48Z" transform="translate(-7.5 -97.496)" fill="#dce736"/>
        </g>
        <g id="Grupo_109350" data-name="Grupo 109350" transform="translate(0 82.213)">
          <path id="Trazado_161024" data-name="Trazado 161024" d="M54.1,438.434a4.845,4.845,0,0,1-4.84,4.85H12.34a4.851,4.851,0,0,1,0-9.7h1.3l3.732-5.156,3.73,5.156H49.264a4.845,4.845,0,0,1,4.84,4.852Z" transform="translate(-7.5 -428.426)" fill="#75b62f"/>
        </g>
        <path id="Trazado_161026" data-name="Trazado 161026" d="M312.493,12.348a4.845,4.845,0,0,1-4.84,4.85h-1.3l-.236.328-3.5,4.83-3.73-5.158H270.73a4.851,4.851,0,0,1,0-9.7h36.924a4.845,4.845,0,0,1,4.84,4.852Z" transform="translate(-215.423 -7.496)" fill="#75b62f"/>
      </g>
      <g id="Grupo_109353" data-name="Grupo 109353" transform="translate(0)">
        <path id="Trazado_161028" data-name="Trazado 161028" d="M10.42,141.085H12.7l8.978,10.568a1.465,1.465,0,0,0,2.233,0l8.978-10.568h37.1a10.446,10.446,0,0,0,10.42-10.449V100.449A10.446,10.446,0,0,0,69.994,90H24.182a1.465,1.465,0,1,0,0,2.93H69.993a7.514,7.514,0,0,1,7.49,7.52v30.187a7.513,7.513,0,0,1-7.49,7.52H32.213a1.465,1.465,0,0,0-1.116.516l-8.3,9.77-8.3-9.77a1.465,1.465,0,0,0-1.116-.516H10.42a7.514,7.514,0,0,1-7.49-7.52V100.449a7.513,7.513,0,0,1,7.49-7.52h6.969a1.465,1.465,0,0,0,0-2.93H10.42A10.446,10.446,0,0,0,0,100.449v30.187a10.446,10.446,0,0,0,10.42,10.449Z" transform="translate(0 -72.422)"/>
        <path id="Trazado_161029" data-name="Trazado 161029" d="M259.643,312.958a1.465,1.465,0,0,0-1.465,1.465v10.468a7.514,7.514,0,0,1-7.49,7.52h-2.96a1.465,1.465,0,0,0-1.116.516l-8.3,9.77-8.3-9.77a1.465,1.465,0,0,0-1.116-.516H210.632a7.513,7.513,0,0,1-7.49-7.52,1.465,1.465,0,0,0-2.93,0,10.446,10.446,0,0,0,10.42,10.449h17.585l8.978,10.568a1.465,1.465,0,0,0,2.233,0l8.978-10.568h2.282a10.446,10.446,0,0,0,10.42-10.449V314.423A1.465,1.465,0,0,0,259.643,312.958Z" transform="translate(-161.108 -251.833)"/>
        <path id="Trazado_161030" data-name="Trazado 161030" d="M433.128,160H428.4a1.465,1.465,0,0,0,0,2.93h4.73a7.514,7.514,0,0,1,7.49,7.52v14.134a1.465,1.465,0,0,0,2.93,0V170.449A10.446,10.446,0,0,0,433.128,160Z" transform="translate(-343.548 -128.75)"/>
        <path id="Trazado_161031" data-name="Trazado 161031" d="M43.229,426.081H29.912a1.465,1.465,0,0,0,0,2.93H43.229a3.386,3.386,0,0,1,0,6.772H6.3a3.386,3.386,0,0,1,0-6.772H7.6a1.465,1.465,0,0,0,1.187-.606l2.545-3.517,2.546,3.517a1.466,1.466,0,0,0,1.187.606h8.073a1.465,1.465,0,1,0,0-2.93H15.813L12.52,421.53a1.465,1.465,0,0,0-2.373,0l-3.293,4.551H6.305a6.316,6.316,0,0,0,0,12.631H43.229a6.316,6.316,0,0,0,0-12.631Z" transform="translate(0 -338.712)"/>
        <path id="Trazado_161032" data-name="Trazado 161032" d="M264.691,12.631H270.2a1.465,1.465,0,0,0,0-2.93h-5.511a3.386,3.386,0,0,1,0-6.772h36.924a3.386,3.386,0,0,1,0,6.772h-1.3a1.465,1.465,0,0,0-1.187.606l-2.545,3.517-2.545-3.517a1.466,1.466,0,0,0-1.187-.606h-15.88a1.465,1.465,0,0,0,0,2.93h15.132l3.294,4.551a1.465,1.465,0,0,0,2.373,0l3.293-4.551h.548a6.316,6.316,0,0,0,0-12.631H264.691a6.316,6.316,0,0,0,0,12.631Z" transform="translate(-207.92)"/>
        <path id="Trazado_161033" data-name="Trazado 161033" d="M79.66,166.387a1.465,1.465,0,0,0-2.93,0v14.279a1.465,1.465,0,0,0,2.93,0Z" transform="translate(-61.744 -132.711)"/>
        <path id="Trazado_161034" data-name="Trazado 161034" d="M116.378,181.265a1.465,1.465,0,0,0,0,2.93h1.613v2.566a1.465,1.465,0,0,0,2.93,0V184.2h1.613A1.465,1.465,0,0,0,124,182.73v-6.156a1.465,1.465,0,0,0-1.465-1.465h-4.692v-3.227h4.692a1.465,1.465,0,0,0,0-2.93h-1.613v-2.566a1.465,1.465,0,0,0-2.93,0v2.566h-1.613a1.465,1.465,0,0,0-1.465,1.465v6.156a1.465,1.465,0,0,0,1.465,1.465h4.692v3.227h-4.692Z" transform="translate(-92.469 -132.711)"/>
        <path id="Trazado_161035" data-name="Trazado 161035" d="M181.9,181.263a1.465,1.465,0,0,0,0,2.93h1.527l-.291,2.132a1.465,1.465,0,0,0,1.253,1.649,1.445,1.445,0,0,0,.2.014,1.465,1.465,0,0,0,1.449-1.267l.345-2.529h3.1l-.291,2.132a1.465,1.465,0,0,0,1.253,1.649,1.445,1.445,0,0,0,.2.014,1.465,1.465,0,0,0,1.449-1.267l.345-2.529H194.5a1.465,1.465,0,0,0,0-2.93h-1.667l1.281-9.383H195.9a1.465,1.465,0,0,0,0-2.93h-1.385l.323-2.368a1.465,1.465,0,1,0-2.9-.4l-.378,2.764h-3.1l.323-2.368a1.465,1.465,0,0,0-2.9-.4l-.378,2.764H183.3a1.465,1.465,0,0,0,0,2.93h1.809l-1.281,9.383Zm6.165-9.383h3.1l-1.281,9.383h-3.1Z" transform="translate(-145.193 -132.708)"/>
        <path id="Trazado_161036" data-name="Trazado 161036" d="M282.531,209.2a3.629,3.629,0,0,1-3.863-3.621,1.465,1.465,0,0,0-2.93,0,6.584,6.584,0,0,0,2.068,4.78,6.5,6.5,0,0,0,4.484,1.779q.21,0,.423-.013a6.559,6.559,0,0,0,3.091-12.088,4.257,4.257,0,0,1-2.042-3.58v-.062a1.465,1.465,0,0,0-2.93,0v.062a7.171,7.171,0,0,0,3.4,6.055,3.629,3.629,0,0,1-1.7,6.69Z" transform="translate(-221.883 -156.853)"/>
        <path id="Trazado_161037" data-name="Trazado 161037" d="M78.194,268.033a1.465,1.465,0,1,0,1.465,1.465A1.465,1.465,0,0,0,78.194,268.033Z" transform="translate(-61.743 -215.683)"/>
        <path id="Trazado_161038" data-name="Trazado 161038" d="M303.284,167.849a1.465,1.465,0,1,0-1.465-1.465A1.465,1.465,0,0,0,303.284,167.849Z" transform="translate(-242.87 -132.708)"/>
      </g>
    </g>
  </g>
</svg>
