<svg xmlns="http://www.w3.org/2000/svg" width="355.869" height="355.868" viewBox="0 0 355.869 355.868">
  <g id="Grupo_109699" data-name="Grupo 109699" transform="translate(11798.621 13920.868)">
    <path id="Trazado_113538" data-name="Trazado 113538" d="M3836.363-1094.223a169.226,169.226,0,0,1-66.284-13.382,169.708,169.708,0,0,1-54.129-36.494,169.72,169.72,0,0,1-36.494-54.129,169.232,169.232,0,0,1-13.384-66.285,169.237,169.237,0,0,1,13.384-66.286,169.73,169.73,0,0,1,36.494-54.128,169.722,169.722,0,0,1,54.129-36.494,169.226,169.226,0,0,1,66.284-13.382,169.224,169.224,0,0,1,66.284,13.382,169.728,169.728,0,0,1,54.13,36.494,169.746,169.746,0,0,1,36.494,54.128,169.223,169.223,0,0,1,13.383,66.286,169.218,169.218,0,0,1-13.383,66.285,169.736,169.736,0,0,1-36.494,54.129,169.714,169.714,0,0,1-54.13,36.494A169.224,169.224,0,0,1,3836.363-1094.223Zm0-339.234c-93.156,0-168.944,75.788-168.944,168.944s75.788,168.944,168.944,168.944,168.945-75.788,168.945-168.944S3929.52-1433.456,3836.363-1433.456Z" transform="translate(-15457.049 -12478.422)" fill="#fff"/>
    <path id="Trazado_113539" data-name="Trazado 113539" d="M3817.589-1431.492h0a10.1,10.1,0,0,0,9.484,10.089,157.423,157.423,0,0,1,102.25,46,157.419,157.419,0,0,1,46,102.251,10.1,10.1,0,0,0,10.089,9.484h0a10.119,10.119,0,0,0,10.093-10.736,177.579,177.579,0,0,0-51.883-115.3,177.572,177.572,0,0,0-115.3-51.882A10.118,10.118,0,0,0,3817.589-1431.492Z" transform="translate(-15438.275 -12479.265)" fill="#3d46c2"/>
    <path id="Trazado_113540" data-name="Trazado 113540" d="M3669.383-1283.287a10.119,10.119,0,0,0-10.093,10.738,177.563,177.563,0,0,0,51.882,115.294,177.567,177.567,0,0,0,115.3,51.884,10.118,10.118,0,0,0,10.737-10.094h0a10.1,10.1,0,0,0-9.483-10.088,157.418,157.418,0,0,1-102.252-46,157.415,157.415,0,0,1-46-102.25,10.1,10.1,0,0,0-10.09-9.484Z" transform="translate(-15457.893 -12459.648)" fill="#f85316"/>
    <path id="Trazado_160187" data-name="Trazado 160187" d="M10,0A10,10,0,1,1,0,10,10,10,0,0,1,10,0Z" transform="translate(-11618.334 -13585)" fill="#f85316"/>
  </g>
</svg>
