<svg xmlns="http://www.w3.org/2000/svg" width="93.751" height="100.546" viewBox="0 0 93.751 100.546">
  <g id="Grupo_109547" data-name="Grupo 109547" transform="translate(-3015 6835)">
    <g id="Grupo_109238" data-name="Grupo 109238" transform="translate(2977.106 -6850.454)">
      <path id="Trazado_160672" data-name="Trazado 160672" d="M117.957,46.06a1.562,1.562,0,0,1,1.4,1.786c-.018,4.447.011,8.895-.026,13.342-.006.738.18.944.919.921,1.8-.056,3.6-.025,5.395-.017,3.729.016,5.983,2.254,5.99,5.972q.016,8.633,0,17.266,0,12.017,0,24.035c0,3.841-.994,5.321-4.456,6.633H42.159c-.069-.06-.129-.15-.21-.177a5.405,5.405,0,0,1-4.039-5.468c-.027-7.324-.014-14.647-.006-21.971,0-1.223.353-1.638,1.508-1.911,1.22.292,1.524.7,1.524,2.1q0,10.847.006,21.693a2.5,2.5,0,0,0,2.781,2.784c.164,0,.327,0,.491,0l81.175,0c2.424,0,3.207-.791,3.207-3.243q0-20.761,0-41.522c0-2.423-.74-3.165-3.149-3.165q-25.815,0-51.63.017c-1.322,0-2.3-.286-2.823-1.57-.892-1.727-1.765-3.464-2.678-5.18-1.9-3.568-.97-3.08-5.342-3.038q-9.955-.017-19.909-.033c-1.73,0-2.127.393-2.127,2.119q0,11.526,0,23.051c0,1.372-.253,1.719-1.517,2.148-1.227-.387-1.516-.756-1.517-2.041q-.007-11.727,0-23.454a4.449,4.449,0,0,1,4.755-4.79c2.191-.019,4.384-.038,6.574.015.766.018.973-.182.971-.962q-.043-15.063-.016-30.127c0-2.982,1.519-5.031,4.211-5.7a5.291,5.291,0,0,1,1.26-.12q23.8-.009,47.592,0a5.368,5.368,0,0,1,5.487,5.416c.012.775-.34,1.783.15,2.262s1.49.122,2.266.142c1.013.027,2.029-.013,3.042.02a5.26,5.26,0,0,1,5.13,5.144c.05,4.023.015,8.046.029,12.07a1.5,1.5,0,0,1-1.4,1.683c-1.187-.238-1.559-.66-1.561-1.835-.007-3.846.007-7.692-.008-11.538a2.42,2.42,0,0,0-2.569-2.569c-.716-.009-1.432.02-2.148.032-.294-.011-.587-.032-.881-.033q-22.041,0-44.082,0c-2.061,0-2.947.905-2.947,3.006q0,8.542,0,17.083c0,1.669.042,3.34-.019,5.007-.028.779.12,1.165.986,1.023a6.873,6.873,0,0,1,1.176,0,3.844,3.844,0,0,1,3.358,1.7,2.057,2.057,0,0,0,2.1.979c1.995-.058,3.992-.04,5.988,0A1.429,1.429,0,0,1,78.88,56.48a1.465,1.465,0,0,1-1.486,1.5c-.52.046-1.046.016-1.57.017-1.393,0-2.786,0-4.372,0l2.179,3.993c.227.293.546.147.818.147q20.515.011,41.029.025c.835,0,.933-.294.929-1-.027-4.384-.016-8.769-.012-13.153C116.395,46.73,116.728,46.324,117.957,46.06ZM65.921,23.275c.359.011.717.032,1.076.032q18.231,0,36.461,0c2.393,0,2.393,0,2.324-2.4a2.462,2.462,0,0,0-2.463-2.495c-.75-.019-1.5.016-2.252.027-.163-.011-.325-.031-.488-.031q-22.369,0-44.738,0a2.454,2.454,0,0,0-2.685,2.67q-.009,9.076,0,18.151.006,6.474.032,12.949c.208.4.577.183.859.187,1.926.021,3.855-.038,5.779.028.823.028,1.013-.2,1.009-1.014-.035-7.25.013-14.5-.043-21.749A6.691,6.691,0,0,1,62.5,24.71,6.147,6.147,0,0,1,65.921,23.275Z" fill="#0c0b09"/>
      <path id="Trazado_160673" data-name="Trazado 160673" d="M75.263,175.587c.52,1.284,1.5,1.572,2.823,1.57q25.814-.05,51.63-.017c2.409,0,3.148.742,3.149,3.165q0,20.761,0,41.522c0,2.452-.784,3.243-3.207,3.243l-81.175,0c-.164,0-.327,0-.491,0a2.5,2.5,0,0,1-2.781-2.784Q45.2,211.442,45.2,200.6c0-1.4-.3-1.811-1.524-2.1q0-1.919.007-3.838c1.264-.429,1.517-.776,1.517-2.148q0-11.526,0-23.051c0-1.726.4-2.121,2.127-2.119q9.955.014,19.909.033c1.1,2.728,2.7,5.2,3.951,7.855.171.363.5.365.837.364C73.108,175.585,74.186,175.587,75.263,175.587Zm13.78,46.544q11.435,0,22.871,0a4.836,4.836,0,0,0,5.146-5.069q.035-15.755,0-31.51a4.823,4.823,0,0,0-5.154-5.054H66.164a4.828,4.828,0,0,0-5.147,5.062q-.032,15.755,0,31.51a4.84,4.84,0,0,0,5.156,5.061Q77.608,222.132,89.043,222.13Z" transform="translate(-4.267 -112.021)" fill="#75b62f"/>
      <path id="Trazado_160674" data-name="Trazado 160674" d="M218.386,76.4c-1.229.264-1.562.67-1.563,1.949,0,4.384-.015,8.769.012,13.153,0,.708-.094,1-.929,1q-20.514-.044-41.029-.025c-.271,0-.59.146-.818-.147l37.295-.007c.294,0,.589,0,.883-.008.268,0,.451-.131.44-.409a24.523,24.523,0,0,0-.134-4.478,1.856,1.856,0,0,0,0-1.184,25.122,25.122,0,0,0,0-6.082,1.856,1.856,0,0,0,0-1.184,25.122,25.122,0,0,0,0-6.082,1.852,1.852,0,0,0,0-1.184c.255-.316.145-.69.146-1.037.008-3.487-.006-6.974.011-10.461a6.667,6.667,0,0,0-.6-3.593c.716-.012,1.432-.041,2.148-.032a2.42,2.42,0,0,1,2.569,2.569c.014,3.846,0,7.692.008,11.538,0,1.175.375,1.6,1.561,1.835Q218.386,74.466,218.386,76.4Z" transform="translate(-100.429 -30.339)" fill="#cbe3f5"/>
      <path id="Trazado_160675" data-name="Trazado 160675" d="M184.745,72.9a25.123,25.123,0,0,1,0,6.082,1.773,1.773,0,0,0-1.721-.9q-12.311.009-24.623.008c-1.211,0-1.8.5-1.823,1.443-.022.991.595,1.54,1.836,1.541q12.263.014,24.525.009a1.839,1.839,0,0,0,1.809-.921,25.123,25.123,0,0,1,0,6.082,1.773,1.773,0,0,0-1.721-.9q-12.311.009-24.623.008c-1.211,0-1.8.5-1.823,1.443-.022.991.595,1.54,1.836,1.541q12.263.014,24.525.009a1.839,1.839,0,0,0,1.809-.921,24.521,24.521,0,0,1,.134,4.478c.011.278-.172.4-.44.409-.294,0-.589.008-.883.008l-37.295.007-2.179-3.993c1.586,0,2.979,0,4.372,0,.524,0,1.05.029,1.57-.017a1.465,1.465,0,0,0,1.486-1.5,1.429,1.429,0,0,0-1.534-1.441c-2-.039-3.993-.057-5.988,0a2.057,2.057,0,0,1-2.1-.979,3.844,3.844,0,0,0-3.358-1.7,6.874,6.874,0,0,0-1.176,0c-.865.141-1.014-.244-.986-1.023.061-1.667.019-3.338.019-5.007q0-8.542,0-17.083c0-2.1.887-3.005,2.947-3.006q22.041,0,44.082,0c.294,0,.587.021.881.033a6.669,6.669,0,0,1,.6,3.593c-.016,3.487,0,6.974-.011,10.461,0,.347.109.721-.146,1.037a1.772,1.772,0,0,0-1.721-.9q-12.312.009-24.624.008c-1.212,0-1.8.5-1.822,1.445-.022.995.591,1.538,1.836,1.54q12.263.013,24.526.009A1.836,1.836,0,0,0,184.745,72.9Zm-34.715-11c-2.552,0-5.1,0-7.655,0-1.125,0-1.818.581-1.807,1.483s.7,1.459,1.833,1.46q7.655.006,15.311,0c1.121,0,1.818-.585,1.809-1.486s-.7-1.455-1.836-1.457Q153.858,61.89,150.03,61.9ZM146.1,70.821c-1.273,0-2.546-.021-3.818.007a1.5,1.5,0,1,0-.009,2.976q3.769.037,7.539,0c1.078-.011,1.695-.594,1.7-1.487s-.607-1.462-1.689-1.487C148.586,70.8,147.345,70.822,146.1,70.821ZM146,81.077c1.24,0,2.48.017,3.72,0,1.153-.02,1.791-.573,1.792-1.5s-.632-1.476-1.792-1.485q-3.671-.027-7.343,0c-1.121.008-1.817.605-1.815,1.485s.7,1.477,1.816,1.5C143.587,81.094,144.8,81.078,146,81.077Z" transform="translate(-72.63 -30.338)" fill="#e3f3fd"/>
      <path id="Trazado_160676" data-name="Trazado 160676" d="M96.058,60.459q-.017-6.474-.032-12.949-.008-9.076,0-18.151a2.454,2.454,0,0,1,2.685-2.67q22.369-.007,44.738,0c.163,0,.325.02.488.031a7.008,7.008,0,0,1,.618,3.5c.037.946-.251,1.2-1.2,1.2q-16.717-.049-33.434-.015c-.379,0-.788-.129-1.134.155A6.146,6.146,0,0,0,105.371,33c-.523-.008-1.045-.027-1.567-.022a4.079,4.079,0,0,0-4.24,4.258q0,3.968,0,7.935c0,4.768-.008,9.536.009,14.3,0,.642-.045,1.071-.871,1.008C97.825,60.41,96.939,60.46,96.058,60.459Z" transform="translate(-42.872 -8.285)" fill="#3d46c2"/>
      <path id="Trazado_160677" data-name="Trazado 160677" d="M96.159,78.124c.882,0,1.767-.048,2.644.018.826.063.873-.366.871-1.008-.018-4.767-.009-9.535-.009-14.3q0-3.967,0-7.935a4.079,4.079,0,0,1,4.24-4.258c.522,0,1.045.014,1.567.022a6.69,6.69,0,0,0-1.709,4.915c.056,7.249.008,14.5.043,21.749,0,.812-.187,1.042-1.009,1.014-1.924-.065-3.853-.007-5.779-.028C96.736,78.308,96.367,78.529,96.159,78.124Z" transform="translate(-42.973 -25.95)" fill="#2d8dcf"/>
      <path id="Trazado_160678" data-name="Trazado 160678" d="M141.482,175.553c-1.077,0-2.155,0-3.232,0-.335,0-.666,0-.837-.364-1.247-2.654-2.852-5.127-3.951-7.855,4.372-.042,3.443-.53,5.342,3.038C139.716,172.089,140.59,173.825,141.482,175.553Z" transform="translate(-70.486 -111.987)" fill="#f7900c"/>
      <path id="Trazado_160679" data-name="Trazado 160679" d="M144.682,31.562c.345-.284.755-.155,1.134-.155q16.717-.011,33.434.015c.945,0,1.233-.251,1.2-1.2a7.008,7.008,0,0,0-.618-3.5c.751-.01,1.5-.045,2.252-.027a2.462,2.462,0,0,1,2.463,2.495c.069,2.4.069,2.4-2.324,2.4q-18.231,0-36.461,0C145.4,31.594,145.041,31.573,144.682,31.562Z" transform="translate(-78.761 -8.287)" fill="#2f8dce"/>
      <path id="Trazado_160680" data-name="Trazado 160680" d="M137.718,259.113q-11.435,0-22.871,0a4.84,4.84,0,0,1-5.156-5.061q-.033-15.755,0-31.51a4.828,4.828,0,0,1,5.147-5.062H160.58a4.823,4.823,0,0,1,5.154,5.054q.036,15.755,0,31.51a4.836,4.836,0,0,1-5.146,5.069Q149.153,259.115,137.718,259.113Zm-5.864-15.41c-6.18-4.442-6.11-11.88-2.3-16.194a10.737,10.737,0,0,1,15.485-.86,10.48,10.48,0,0,1,3.457,7.637,10.851,10.851,0,0,1-4.911,9.394c4.746,2.586,7.435,6.442,7.725,11.843.033.607.317.653.8.65,2.716-.017,5.432-.007,8.148-.009,1.856,0,2.468-.6,2.468-2.466q.005-15.413,0-30.827c0-1.858-.605-2.444-2.484-2.444H115.284c-2.048,0-2.589.548-2.589,2.633q0,10.014,0,20.028c0,3.633-.01,7.265.006,10.9a1.9,1.9,0,0,0,2.161,2.176c2.847.011,5.694-.009,8.541.015.509,0,.7-.142.7-.65a10.957,10.957,0,0,1,.351-2.713A13.8,13.8,0,0,1,131.853,243.7Zm13.705-9.113a7.846,7.846,0,1,0-7.9,7.819A7.918,7.918,0,0,0,145.559,234.59Zm-7.867,21.574h9.323c1.467,0,1.467,0,1.285-1.434-.012-.1-.032-.193-.05-.29a10.628,10.628,0,0,0-12.513-8.88,10.737,10.737,0,0,0-8.661,9.814c-.015.667.175.809.8.8C131.149,256.149,134.42,256.164,137.692,256.164Z" transform="translate(-52.942 -149.003)" fill="#0f0c07"/>
      <path id="Trazado_160681" data-name="Trazado 160681" d="M241.528,112.881a1.836,1.836,0,0,1-1.808.921q-12.263-.01-24.526-.009c-1.245,0-1.858-.545-1.836-1.54.021-.945.61-1.443,1.822-1.445q12.312-.013,24.624-.008a1.772,1.772,0,0,1,1.721.9A1.852,1.852,0,0,1,241.528,112.881Z" transform="translate(-129.413 -70.323)" fill="#151718"/>
      <path id="Trazado_160682" data-name="Trazado 160682" d="M241.528,140.565a1.839,1.839,0,0,1-1.809.921q-12.263-.01-24.525-.009c-1.241,0-1.858-.55-1.836-1.541.021-.944.612-1.442,1.823-1.443q12.312-.013,24.623-.008a1.773,1.773,0,0,1,1.721.9A1.856,1.856,0,0,1,241.528,140.565Z" transform="translate(-129.413 -90.742)" fill="#151718"/>
      <path id="Trazado_160683" data-name="Trazado 160683" d="M241.528,168.25a1.84,1.84,0,0,1-1.809.921q-12.263-.01-24.525-.009c-1.241,0-1.858-.55-1.836-1.541.021-.944.612-1.442,1.823-1.443q12.312-.013,24.623-.008a1.773,1.773,0,0,1,1.721.9A1.856,1.856,0,0,1,241.528,168.25Z" transform="translate(-129.413 -111.161)" fill="#151718"/>
      <path id="Trazado_160684" data-name="Trazado 160684" d="M161.83,76.81q3.828,0,7.655,0c1.133,0,1.827.561,1.836,1.457s-.688,1.485-1.809,1.486q-7.655.006-15.311,0c-1.135,0-1.822-.558-1.833-1.46s.682-1.48,1.807-1.483C156.727,76.806,159.279,76.81,161.83,76.81Z" transform="translate(-84.431 -45.252)" fill="#070708"/>
      <path id="Trazado_160685" data-name="Trazado 160685" d="M157.9,110.8c1.24,0,2.481-.022,3.721.007,1.083.026,1.693.592,1.689,1.487s-.62,1.476-1.7,1.487q-3.769.038-7.539,0a1.5,1.5,0,1,1,.009-2.976C155.35,110.778,156.623,110.8,157.9,110.8Z" transform="translate(-84.421 -70.316)" fill="#141617"/>
      <path id="Trazado_160686" data-name="Trazado 160686" d="M157.794,141.473c-1.208,0-2.415.017-3.622,0-1.111-.02-1.814-.62-1.816-1.5s.694-1.477,1.815-1.485q3.671-.026,7.343,0c1.16.008,1.793.561,1.792,1.485s-.639,1.476-1.792,1.5C160.274,141.49,159.034,141.473,157.794,141.473Z" transform="translate(-84.421 -90.734)" fill="#141617"/>
      <path id="Trazado_160687" data-name="Trazado 160687" d="M140.331,251.989a13.8,13.8,0,0,0-7.4,9.11,10.957,10.957,0,0,0-.351,2.713c0,.508-.191.655-.7.65-2.847-.025-5.694,0-8.541-.015a1.9,1.9,0,0,1-2.161-2.176c-.017-3.632-.006-7.265-.006-10.9q0-10.014,0-20.028c0-2.086.541-2.633,2.589-2.633h44.962c1.878,0,2.483.586,2.484,2.444q.005,15.414,0,30.827c0,1.862-.612,2.465-2.468,2.466-2.716,0-5.432-.008-8.148.009-.487,0-.771-.043-.8-.65-.29-5.4-2.979-9.258-7.725-11.843a10.851,10.851,0,0,0,4.911-9.394,10.48,10.48,0,0,0-3.457-7.637,10.737,10.737,0,0,0-15.485.86C134.221,240.109,134.15,247.547,140.331,251.989Z" transform="translate(-61.419 -157.289)" fill="#ffd193"/>
      <path id="Trazado_160688" data-name="Trazado 160688" d="M202.3,260.552a7.846,7.846,0,1,1-7.84-7.874A7.932,7.932,0,0,1,202.3,260.552Z" transform="translate(-109.685 -174.965)" fill="#f0917c"/>
      <path id="Trazado_160689" data-name="Trazado 160689" d="M186.591,334.653c-3.271,0-6.543-.015-9.814.013-.627.006-.817-.137-.8-.8a10.737,10.737,0,0,1,8.661-9.814,10.628,10.628,0,0,1,12.513,8.88c.018.1.038.193.05.29.181,1.434.181,1.434-1.285,1.434Z" transform="translate(-101.842 -227.492)" fill="#e86469"/>
    </g>
  </g>
</svg>
