<svg xmlns="http://www.w3.org/2000/svg" width="100" height="99.96" viewBox="0 0 100 99.96">
  <g id="Grupo_109549" data-name="Grupo 109549" transform="translate(-3521.293 6829.228)">
    <g id="Grupo_109240" data-name="Grupo 109240" transform="translate(2553.308 -6848.223)">
      <path id="Trazado_160709" data-name="Trazado 160709" d="M999.444,116.981a1.975,1.975,0,0,1-2.295,1.95c-8.78,0-17.559-.019-26.339.025a3.088,3.088,0,0,1-2.825-1.2V35.781L984.772,19h57.972a3.071,3.071,0,0,1,1.2,2.826q-.049,24.93-.022,49.86v1.083c.366.037.4-.291.526-.468a54.288,54.288,0,0,0,4.878-7.945,9.924,9.924,0,0,1,10.19-5.5,9.832,9.832,0,0,1,2.736,18.672,70.955,70.955,0,0,0-15.825,11.064c-.43.38-.415.591-.015.974,1.151,1.1,2.269,2.238,3.386,3.375a9.783,9.783,0,0,1,0,14.333c-.661.673-1.333,1.336-2,2-1.434,1.431-2.185,1.461-3.747.139-.255.238-.114.543-.116.805-.014,2.212,0,4.423-.011,6.635a1.889,1.889,0,0,1-2.032,2.083q-13.368.011-26.736,0c-1.248,0-1.873-.6-2.1-1.948.306-1.472.9-1.953,2.418-1.953,7.9,0,15.807-.01,23.71.015.67,0,.87-.14.859-.839-.045-2.731-.034-5.464-.005-8.2a1.6,1.6,0,0,0-.545-1.267c-1.512-1.478-3-2.983-4.491-4.478q-8.9-8.9-17.8-17.8c-1.18-1.182-1.184-2.184-.021-3.359.961-.97,1.911-1.955,2.925-2.868a9.649,9.649,0,0,1,12.808-.078c1.2,1.049,2.289,2.215,3.421,3.337,1.278,1.266,1.3,1.29,2.493-.086.528-.607,1.217-1.077,1.216-2.1q-.045-26.783-.007-53.566c0-.659-.124-.865-.831-.864q-25.418.033-50.836,0c-.782,0-.874.251-.869.928.03,4.13.018,8.261.014,12.391,0,1.6-.715,2.315-2.317,2.316-4.1,0-8.2.022-12.294-.017-.767-.007-1.026.115-1.026.971q.042,37.321,0,74.642c0,.784.221.938.959.935,8.066-.027,16.132-.017,24.2-.016C998.549,115.028,999.146,115.514,999.444,116.981Zm26.972-39.264c-1.891-.059-3.349.982-4.7,2.351-.553.561-.592.814-.009,1.393q11.454,11.383,22.852,22.82c1.325,1.325,1.325,1.324,2.637-.024a5.743,5.743,0,0,0,.018-8.294q-8.25-8.309-16.553-16.563A5.6,5.6,0,0,0,1026.416,77.717Zm37.6-8.933a6.08,6.08,0,0,0-4.331-5.866,6,6,0,0,0-6.716,2.928c-.419.767-.763,1.576-1.194,2.336a81.928,81.928,0,0,1-10.9,14.794c-.364.4-.521.633-.02,1.052a16.012,16.012,0,0,1,1.726,1.72c.39.443.62.439,1.077.032a76.852,76.852,0,0,1,17.1-11.959A5.822,5.822,0,0,0,1064.013,68.784ZM974.883,34.61c2.709,0,5.373,0,8.037-.007.275,0,.685.182.684-.389-.009-2.776,0-5.552,0-8.32Z" transform="translate(0)" fill="#080708"/>
      <path id="Trazado_160710" data-name="Trazado 160710" d="M1010.7,127.929c-.3-1.466-.9-1.951-2.438-1.952-8.141,0-16.282-.011-24.423.016-.745,0-.969-.151-.968-.935q.036-37.3,0-74.6c0-.856.261-.978,1.035-.971,4.136.039,8.272.021,12.408.017,1.617,0,2.337-.714,2.339-2.315,0-4.128.016-8.256-.014-12.384-.005-.676.088-.928.877-.927q25.654.042,51.308,0c.714,0,.84.2.839.863q-.029,26.768.006,53.535c0,1.018-.694,1.488-1.227,2.095-1.208,1.375-1.227,1.352-2.516.086-1.142-1.121-2.246-2.286-3.453-3.335a9.81,9.81,0,0,0-12.927.078c-1.024.912-1.983,1.9-2.952,2.866-1.174,1.174-1.17,2.176.021,3.357q8.976,8.9,17.963,17.792c1.509,1.494,3.007,3,4.532,4.475a1.589,1.589,0,0,1,.551,1.267c-.029,2.73-.04,5.461.005,8.191.012.7-.19.841-.866.838q-11.965-.038-23.931-.015c-1.536,0-2.131.481-2.441,1.952h-4.858c-.261-1.3-.934-1.953-2-1.952s-1.737.653-2,1.953Zm6.545-73.35q-14.036,0-28.072,0c-1.618,0-2.339.715-2.342,2.313q-.007,3.56,0,7.12a2,2,0,0,0,2.289,2.268q28.171,0,56.342,0a1.987,1.987,0,0,0,2.24-2.216c.008-2.341,0-4.682,0-7.023,0-1.8-.673-2.463-2.485-2.463Zm-6.711,54.621c-1.476,0-2.953,0-4.429,0-1.433,0-2.32.742-2.332,1.93s.881,1.968,2.292,1.97c2.92,0,5.84.019,8.759-.012.67-.007.986.122,1.2.851a9.861,9.861,0,0,0,12.461,6.491,9.77,9.77,0,1,0-12.5-11.92c-.148.5-.327.731-.922.708C1013.554,109.161,1012.044,109.2,1010.534,109.2Zm6.686-35.113H1045.1a7.211,7.211,0,0,0,.886-.015,1.949,1.949,0,0,0,0-3.871,7.321,7.321,0,0,0-.886-.015H989.442a7.264,7.264,0,0,0-.886.015,1.948,1.948,0,0,0,0,3.871,7.209,7.209,0,0,0,.886.015Zm-.052,7.8h27.875a8.649,8.649,0,0,0,.886-.01,1.991,1.991,0,0,0,1.767-1.7,1.963,1.963,0,0,0-1.29-2.073,2.911,2.911,0,0,0-1.162-.119q-27.974-.005-55.947,0a6.6,6.6,0,0,0-.689.009,2,2,0,0,0-1.769,1.7,1.975,1.975,0,0,0,1.2,2.037,2.842,2.842,0,0,0,1.254.159Q1003.23,81.891,1017.168,81.889Zm-12.038,3.9q-7.929,0-15.858,0c-1.535,0-2.424.7-2.44,1.923s.886,1.977,2.387,1.977q15.957,0,31.913,0c1.44,0,2.324-.734,2.34-1.924.017-1.227-.882-1.975-2.385-1.976Q1013.108,85.789,1005.13,85.791Zm-3.884,7.8q-6.058,0-12.115,0c-1.416,0-2.31.773-2.3,1.965s.9,1.934,2.331,1.934q12.066,0,24.132,0c1.416,0,2.306-.771,2.3-1.966s-.894-1.932-2.329-1.933Q1007.254,93.59,1001.246,93.594Zm18.922-47.989c.654,0,1.308.023,1.96-.005a1.951,1.951,0,0,0,1.935-1.915,1.923,1.923,0,0,0-1.874-1.969q-2.057-.064-4.117,0a1.93,1.93,0,0,0-1.888,1.957,1.954,1.954,0,0,0,1.925,1.927C1018.794,45.63,1019.482,45.6,1020.168,45.605Zm11.727,0c.654,0,1.308.015,1.961,0a1.947,1.947,0,1,0,.052-3.893q-1.96-.042-3.921,0A1.945,1.945,0,0,0,1028,43.677a1.966,1.966,0,0,0,2.028,1.926C1030.653,45.621,1031.274,45.606,1031.895,45.606Zm11.873,0c.653,0,1.308.02,1.961,0a1.955,1.955,0,0,0,1.976-1.974,1.933,1.933,0,0,0-1.931-1.915q-2.009-.05-4.019,0a1.936,1.936,0,0,0-1.929,1.92,1.959,1.959,0,0,0,1.982,1.97C1042.46,45.625,1043.115,45.606,1043.768,45.606Zm-20.294,49.937a1.971,1.971,0,1,0-1.993,1.953A1.966,1.966,0,0,0,1023.474,95.543Z" transform="translate(-10.965 -10.966)" fill="#eaf7fd"/>
      <path id="Trazado_160711" data-name="Trazado 160711" d="M1107.037,389.106q.4-1.969,2-1.972c1.068,0,1.742.662,2,1.972-.215,1.31-.886,1.971-2,1.971S1107.258,390.419,1107.037,389.106Z" transform="translate(-102.793 -272.144)" fill="#0d0d0e"/>
      <path id="Trazado_160712" data-name="Trazado 160712" d="M1177.5,244.1a5.655,5.655,0,0,1,4.287,1.7q8.362,8.349,16.707,16.717a5.8,5.8,0,0,1-.018,8.371c-1.325,1.361-1.325,1.361-2.662.024q-11.524-11.524-23.064-23.032c-.589-.584-.55-.839.009-1.406C1174.116,245.093,1175.588,244.042,1177.5,244.1Z" transform="translate(-151.222 -166.767)" fill="#75b62f"/>
      <path id="Trazado_160713" data-name="Trazado 160713" d="M1269.794,192.766a5.877,5.877,0,0,1-3.287,5.084,77.561,77.561,0,0,0-17.263,12.07c-.462.411-.694.415-1.087-.032a16.17,16.17,0,0,0-1.742-1.736c-.506-.423-.347-.659.021-1.062a82.674,82.674,0,0,0,11-14.932c.434-.767.782-1.583,1.2-2.357a6.061,6.061,0,0,1,6.779-2.955A6.137,6.137,0,0,1,1269.794,192.766Z" transform="translate(-205.818 -124.049)" fill="#ffcf7a"/>
      <path id="Trazado_160714" data-name="Trazado 160714" d="M994.428,54.238l8.8-8.8c0,2.794-.005,5.6,0,8.4,0,.577-.413.392-.69.393C999.851,54.242,997.162,54.238,994.428,54.238Z" transform="translate(-19.481 -19.483)" fill="#eaf7fd"/>
      <path id="Trazado_160715" data-name="Trazado 160715" d="M1028.325,113.274H1056.3c1.812,0,2.484.674,2.485,2.487,0,2.364.006,4.728,0,7.092a2,2,0,0,1-2.24,2.238q-28.171,0-56.342,0a2.012,2.012,0,0,1-2.289-2.291q-.009-3.6,0-7.19c0-1.614.724-2.336,2.342-2.336Q1014.289,113.272,1028.325,113.274Zm8.545,3.94c-5.743,0-11.485.012-17.228-.016-.679,0-.93.145-.865.853a11.34,11.34,0,0,1,0,2.163c-.078.78.193.96.958.958q16.489-.039,32.979-.018c.525,0,1.052-.023,1.575.007.421.024.58-.1.564-.547a22.463,22.463,0,0,1,.007-2.558c.054-.7-.172-.862-.86-.859C1048.29,117.227,1042.58,117.215,1036.87,117.215Zm-28.479,0c-1.87,0-3.742.046-5.609-.022-.815-.029-1,.255-.944.993a13.954,13.954,0,0,1,0,2.163c-.048.646.168.827.814.82,3.018-.033,6.036-.009,9.055-.018,1.01,0,2.373.343,2.938-.171.649-.59.119-1.976.215-3.01.056-.608-.149-.783-.761-.77C1012.2,117.24,1010.294,117.215,1008.391,117.215Z" transform="translate(-22.044 -69.716)" fill="#040506"/>
      <path id="Trazado_160716" data-name="Trazado 160716" d="M1069.033,300.741c1.509,0,3.02-.039,4.527.02.6.023.774-.207.922-.715a9.842,9.842,0,1,1,.039,5.483c-.211-.736-.527-.867-1.2-.86-2.92.031-5.839.017-8.759.012-1.411,0-2.3-.785-2.292-1.99s.9-1.945,2.332-1.949C1066.081,300.738,1067.557,300.741,1069.033,300.741Zm9.426,3.94a5.752,5.752,0,0,0,6.49,3.825,5.936,5.936,0,0,0,4.9-6.19,6.01,6.01,0,0,0-5.573-5.513c-2.464-.16-5.335,1.635-5.738,3.938,1.743,0,3.481-.008,5.218,0a1.975,1.975,0,1,1,0,3.934C1082.017,304.69,1080.279,304.681,1078.46,304.681Z" transform="translate(-69.796 -202.692)" fill="#090808"/>
      <path id="Trazado_160717" data-name="Trazado 160717" d="M1028.311,177.059h-27.777a7.142,7.142,0,0,1-.886-.015,1.97,1.97,0,0,1,0-3.909,7.2,7.2,0,0,1,.886-.015h55.652a7.25,7.25,0,0,1,.886.015,1.97,1.97,0,0,1,0,3.909,7.141,7.141,0,0,1-.886.015Z" transform="translate(-22.056 -113.93)" fill="#050506"/>
      <path id="Trazado_160718" data-name="Trazado 160718" d="M1028.237,206.993q-13.937,0-27.875,0a2.815,2.815,0,0,1-1.254-.16,1.963,1.963,0,0,1,.569-3.77,6.529,6.529,0,0,1,.689-.009q27.974,0,55.947,0a2.884,2.884,0,0,1,1.162.121,1.964,1.964,0,0,1-.478,3.806,8.563,8.563,0,0,1-.886.01Z" transform="translate(-22.033 -136.06)" fill="#050506"/>
      <path id="Trazado_160719" data-name="Trazado 160719" d="M1016.221,233q7.979,0,15.957,0c1.5,0,2.4.757,2.385,2-.016,1.2-.9,1.943-2.34,1.943q-15.957,0-31.913,0c-1.5,0-2.4-.76-2.387-2s.9-1.942,2.44-1.942Q1008.292,232.994,1016.221,233Z" transform="translate(-22.055 -158.197)" fill="#050607"/>
      <path id="Trazado_160720" data-name="Trazado 160720" d="M1012.337,262.924q6.008,0,12.017,0c1.435,0,2.32.749,2.329,1.952s-.88,1.985-2.3,1.986q-12.066,0-24.132,0c-1.433,0-2.321-.752-2.331-1.954s.883-1.983,2.3-1.984Q1006.279,262.92,1012.337,262.924Z" transform="translate(-22.056 -180.322)" fill="#050607"/>
      <path id="Trazado_160721" data-name="Trazado 160721" d="M1113.4,67.775c-.686,0-1.374.025-2.059-.006a1.964,1.964,0,0,1-1.925-1.946,1.941,1.941,0,0,1,1.888-1.977q2.057-.061,4.117,0a1.934,1.934,0,0,1,1.874,1.988,1.961,1.961,0,0,1-1.935,1.934C1114.7,67.8,1114.049,67.775,1113.4,67.775Z" transform="translate(-104.564 -33.02)" fill="#08090a"/>
      <path id="Trazado_160722" data-name="Trazado 160722" d="M1158.2,67.788c-.621,0-1.242.015-1.862,0a1.975,1.975,0,0,1-2.027-1.945,1.955,1.955,0,0,1,1.982-1.986q1.96-.042,3.921,0a1.966,1.966,0,1,1-.052,3.931C1159.506,67.8,1158.852,67.788,1158.2,67.788Z" transform="translate(-137.758 -33.033)" fill="#08090a"/>
      <path id="Trazado_160723" data-name="Trazado 160723" d="M1203.149,67.783c-.653,0-1.308.019-1.961,0a1.969,1.969,0,0,1-1.982-1.989,1.946,1.946,0,0,1,1.928-1.939q2.008-.051,4.019,0a1.942,1.942,0,0,1,1.931,1.934,1.965,1.965,0,0,1-1.976,1.994C1204.456,67.8,1203.8,67.783,1203.149,67.783Z" transform="translate(-170.952 -33.027)" fill="#08090a"/>
      <path id="Trazado_160724" data-name="Trazado 160724" d="M1126.069,264.892a1.971,1.971,0,1,1-2-1.969A1.976,1.976,0,0,1,1126.069,264.892Z" transform="translate(-113.948 -180.321)" fill="#0d0d0e"/>
      <path id="Trazado_160725" data-name="Trazado 160725" d="M1095.234,128.194c5.71,0,11.42.013,17.129-.017.688,0,.914.159.86.859a22.463,22.463,0,0,0-.007,2.558c.017.443-.143.572-.564.547-.523-.031-1.05-.007-1.575-.007q-16.49,0-32.979.018c-.765,0-1.036-.178-.958-.958a11.36,11.36,0,0,0,0-2.163c-.066-.708.186-.856.865-.853C1083.749,128.206,1089.491,128.194,1095.234,128.194Z" transform="translate(-80.82 -80.712)" fill="#3d46c2"/>
      <path id="Trazado_160726" data-name="Trazado 160726" d="M1019.361,128.175c1.9,0,3.806.025,5.708-.014.611-.013.817.162.76.77-.1,1.034.434,2.42-.215,3.01-.565.514-1.928.168-2.938.171-3.018.009-6.037-.015-9.055.018-.646.007-.862-.175-.814-.82a13.962,13.962,0,0,0,0-2.163c-.06-.738.129-1.022.944-.993C1015.62,128.221,1017.491,128.175,1019.361,128.175Z" transform="translate(-33.014 -80.693)" fill="#dce736"/>
      <path id="Trazado_160727" data-name="Trazado 160727" d="M1123.755,315.681c1.819,0,3.557.009,5.295,0a1.975,1.975,0,1,0,0-3.934c-1.737-.011-3.475,0-5.218,0,.4-2.3,3.274-4.1,5.739-3.938a6.01,6.01,0,0,1,5.573,5.513,5.936,5.936,0,0,1-4.9,6.19A5.752,5.752,0,0,1,1123.755,315.681Z" transform="translate(-115.184 -213.692)" fill="#f85316"/>
    </g>
  </g>
</svg>
