<svg xmlns="http://www.w3.org/2000/svg" width="136" height="136" viewBox="0 0 136 136">
  <g id="Grupo_109422" data-name="Grupo 109422" transform="translate(-721 10807)">
    <g id="Trazado_161146" data-name="Trazado 161146" transform="translate(721 -10807)" fill="#fff">
      <path d="M 68 133.5 C 59.15645980834961 133.5 50.57875823974609 131.7685394287109 42.50521850585938 128.3537139892578 C 38.62459945678711 126.7123565673828 34.88156127929688 124.6806793212891 31.38007926940918 122.3151016235352 C 27.91119956970215 119.9715805053711 24.64913940429688 117.2801208496094 21.68449974060059 114.3154983520508 C 18.71987915039062 111.3508605957031 16.02841949462891 108.0887985229492 13.68490028381348 104.6199188232422 C 11.31931972503662 101.1184387207031 9.287639617919922 97.37539672851562 7.646279811859131 93.49478149414062 C 4.231460094451904 85.42124176025391 2.5 76.84353637695312 2.5 68 C 2.5 59.15645980834961 4.231460094451904 50.57875823974609 7.646279811859131 42.50521850585938 C 9.287639617919922 38.62459945678711 11.31931972503662 34.88156127929688 13.68490028381348 31.38007926940918 C 16.02841949462891 27.91119956970215 18.71987915039062 24.64913940429688 21.68449974060059 21.68449974060059 C 24.64913940429688 18.71987915039062 27.91119956970215 16.02841949462891 31.38007926940918 13.68490028381348 C 34.88156127929688 11.31931972503662 38.62459945678711 9.287639617919922 42.50521850585938 7.646279811859131 C 50.57875823974609 4.231460094451904 59.15645980834961 2.5 68 2.5 C 76.84353637695312 2.5 85.42124176025391 4.231460094451904 93.49478149414062 7.646279811859131 C 97.37539672851562 9.287639617919922 101.1184387207031 11.31931972503662 104.6199188232422 13.68490028381348 C 108.0887985229492 16.02841949462891 111.3508605957031 18.71987915039062 114.3154983520508 21.68449974060059 C 117.2801208496094 24.64913940429688 119.9715805053711 27.91119956970215 122.3151016235352 31.38007926940918 C 124.6806793212891 34.88156127929688 126.7123565673828 38.62459945678711 128.3537139892578 42.50521850585938 C 131.7685394287109 50.57875823974609 133.5 59.15645980834961 133.5 68 C 133.5 76.84353637695312 131.7685394287109 85.42124176025391 128.3537139892578 93.49478149414062 C 126.7123565673828 97.37539672851562 124.6806793212891 101.1184387207031 122.3151016235352 104.6199188232422 C 119.9715805053711 108.0887985229492 117.2801208496094 111.3508605957031 114.3154983520508 114.3154983520508 C 111.3508605957031 117.2801208496094 108.0887985229492 119.9715805053711 104.6199188232422 122.3151016235352 C 101.1184387207031 124.6806793212891 97.37539672851562 126.7123565673828 93.49478149414062 128.3537139892578 C 85.42124176025391 131.7685394287109 76.84353637695312 133.5 68 133.5 Z" stroke="none"/>
      <path d="M 68 5 C 59.49285125732422 5 51.24282836914062 6.665023803710938 43.47908782958984 9.948806762695312 C 39.74715423583984 11.52728271484375 36.14732360839844 13.48123931884766 32.77958679199219 15.75645446777344 C 29.44254302978516 18.01089477539062 26.30438995361328 20.60015106201172 23.45226287841797 23.45226287841797 C 20.60015106201172 26.30438995361328 18.01089477539062 29.44254302978516 15.75645446777344 32.77958679199219 C 13.48123931884766 36.14732360839844 11.52728271484375 39.74715423583984 9.948806762695312 43.47908782958984 C 6.665023803710938 51.24282836914062 5 59.49285125732422 5 68 C 5 76.50715637207031 6.665023803710938 84.75717163085938 9.948806762695312 92.52091217041016 C 11.52728271484375 96.25282287597656 13.48123931884766 99.85267639160156 15.75645446777344 103.2204132080078 C 18.01089477539062 106.5574340820312 20.60015106201172 109.6956100463867 23.45226287841797 112.5477142333984 C 26.30438995361328 115.3998489379883 29.44254302978516 117.9890899658203 32.77958679199219 120.2435455322266 C 36.14732360839844 122.5187377929688 39.74715423583984 124.4727172851562 43.47908782958984 126.0511932373047 C 51.24282836914062 129.3349761962891 59.49285125732422 131 68 131 C 76.50715637207031 131 84.75717163085938 129.3349761962891 92.52088928222656 126.0511932373047 C 96.25282287597656 124.4727172851562 99.85267639160156 122.5187377929688 103.2204132080078 120.2435455322266 C 106.5574340820312 117.9890899658203 109.6956100463867 115.3998489379883 112.5477142333984 112.5477142333984 C 115.3998489379883 109.6956100463867 117.9890899658203 106.5574340820312 120.2435455322266 103.2204132080078 C 122.5187377929688 99.85267639160156 124.4727172851562 96.25282287597656 126.0511932373047 92.52088928222656 C 129.3349761962891 84.75717163085938 131 76.50715637207031 131 68 C 131 59.49285125732422 129.3349761962891 51.24282836914062 126.0511932373047 43.47908782958984 C 124.4727172851562 39.74715423583984 122.5187377929688 36.14732360839844 120.2435455322266 32.77958679199219 C 117.9890899658203 29.44254302978516 115.3998489379883 26.30438995361328 112.5477142333984 23.45226287841797 C 109.6956100463867 20.60015106201172 106.5574340820312 18.01089477539062 103.2204132080078 15.75645446777344 C 99.85267639160156 13.48123931884766 96.25282287597656 11.52728271484375 92.52091217041016 9.948806762695312 C 84.75717163085938 6.665023803710938 76.50715637207031 5 68 5 M 68 0 C 105.5553436279297 0 136 30.44463348388672 136 68 C 136 105.5553436279297 105.5553436279297 136 68 136 C 30.44463348388672 136 0 105.5553436279297 0 68 C 0 30.44463348388672 30.44463348388672 0 68 0 Z" stroke="none" fill="#3e4bbf"/>
    </g>
    <path id="Trazado_160398" data-name="Trazado 160398" d="M-160.349-223.75v-10.774h12.536v10.774Zm0,25.7h13.434q-.067,7.083-1.2,10.358a11.329,11.329,0,0,1-4.9,5.7,17.493,17.493,0,0,1-9.626,2.427,18.917,18.917,0,0,1-7.382-1.33,12.265,12.265,0,0,1-5.021-3.708,16.081,16.081,0,0,1-2.727-5.137,31.239,31.239,0,0,1-.865-8.612v-6.584a25.437,25.437,0,0,1,.831-7.232,9.4,9.4,0,0,1,3.624-4.772A10.73,10.73,0,0,1-167.631-219q5.088,0,7.282,3.791v-5.753h12.536v14.8H-160.05q-.033-3.092-2.195-3.092a1.973,1.973,0,0,0-2.111,1.347,28.177,28.177,0,0,0-.449,6.6v8.978a12.169,12.169,0,0,0,.416,3.94,1.607,1.607,0,0,0,1.646,1.014,1.849,1.849,0,0,0,1.962-1.33,25.585,25.585,0,0,0,.432-6.085Zm44.491-25.6h-13.434q.067-7.083,1.2-10.341a11.417,11.417,0,0,1,4.9-5.7,17.4,17.4,0,0,1,9.626-2.444,18.916,18.916,0,0,1,7.382,1.33,12.264,12.264,0,0,1,5.021,3.708,16.081,16.081,0,0,1,2.727,5.137,31.407,31.407,0,0,1,.865,8.646v6.584a25.47,25.47,0,0,1-.831,7.216,9.394,9.394,0,0,1-3.624,4.788,10.73,10.73,0,0,1-6.551,2.062,8.006,8.006,0,0,1-7.282-3.824v5.786h-12.536v-14.8h12.237q.067,3.059,2.195,3.059a1.973,1.973,0,0,0,2.111-1.347,28.177,28.177,0,0,0,.449-6.6v-8.945a12.321,12.321,0,0,0-.416-3.974,1.607,1.607,0,0,0-1.646-1.014,1.851,1.851,0,0,0-1.962,1.347,25.6,25.6,0,0,0-.432,6.069Zm0,25.7v10.774h-12.536v-10.774Z" transform="translate(926.638 -10527.861)" fill="#f85316"/>
  </g>
</svg>
