<svg xmlns="http://www.w3.org/2000/svg" width="136" height="136" viewBox="0 0 136 136">
  <g id="Grupo_109541" data-name="Grupo 109541" transform="translate(941.87 7696.5)">
    <g id="Grupo_109459" data-name="Grupo 109459" transform="translate(644.13 3188.5)">
      <g id="Elipse_5299" data-name="Elipse 5299" transform="translate(-1586 -10885)" fill="#fff" stroke="#3e4bbf" stroke-width="5">
        <circle cx="68" cy="68" r="68" stroke="none"/>
        <circle cx="68" cy="68" r="65.5" fill="none"/>
      </g>
    </g>
    <path id="Trazado_161147" data-name="Trazado 161147" d="M-160.349-223.75v-10.774h12.536v10.774Zm0,25.7h13.434q-.067,7.083-1.2,10.358a11.329,11.329,0,0,1-4.9,5.7,17.493,17.493,0,0,1-9.626,2.427,18.917,18.917,0,0,1-7.382-1.33,12.265,12.265,0,0,1-5.021-3.708,16.081,16.081,0,0,1-2.727-5.137,31.239,31.239,0,0,1-.865-8.612v-6.584a25.437,25.437,0,0,1,.831-7.232,9.4,9.4,0,0,1,3.624-4.772A10.73,10.73,0,0,1-167.631-219q5.088,0,7.282,3.791v-5.753h12.536v14.8H-160.05q-.033-3.092-2.195-3.092a1.973,1.973,0,0,0-2.111,1.347,28.177,28.177,0,0,0-.449,6.6v8.978a12.169,12.169,0,0,0,.416,3.94,1.607,1.607,0,0,0,1.646,1.014,1.849,1.849,0,0,0,1.962-1.33,25.585,25.585,0,0,0,.432-6.085Zm44.491-25.6h-13.434q.067-7.083,1.2-10.341a11.417,11.417,0,0,1,4.9-5.7,17.4,17.4,0,0,1,9.626-2.444,18.916,18.916,0,0,1,7.382,1.33,12.264,12.264,0,0,1,5.021,3.708,16.081,16.081,0,0,1,2.727,5.137,31.407,31.407,0,0,1,.865,8.646v6.584a25.47,25.47,0,0,1-.831,7.216,9.394,9.394,0,0,1-3.624,4.788,10.73,10.73,0,0,1-6.551,2.062,8.006,8.006,0,0,1-7.282-3.824v5.786h-12.536v-14.8h12.237q.067,3.059,2.195,3.059a1.973,1.973,0,0,0,2.111-1.347,28.177,28.177,0,0,0,.449-6.6v-8.945a12.321,12.321,0,0,0-.416-3.974,1.607,1.607,0,0,0-1.646-1.014,1.851,1.851,0,0,0-1.962,1.347,25.6,25.6,0,0,0-.432,6.069Zm0,25.7v10.774h-12.536v-10.774Z" transform="translate(-736.232 -7417.361)" fill="#f85316"/>
  </g>
</svg>
