<svg xmlns="http://www.w3.org/2000/svg" width="82.452" height="100" viewBox="0 0 82.452 100">
  <g id="Grupo_109495" data-name="Grupo 109495" transform="translate(5072.955 2009.893)">
    <g id="paraguas" transform="translate(-5117.878 -2009.893)">
      <g id="Grupo_109334" data-name="Grupo 109334" transform="translate(46.388 1.465)">
        <path id="Trazado_160981" data-name="Trazado 160981" d="M225.723,423.367A8.964,8.964,0,0,1,217,414.2v-7.9a2.5,2.5,0,1,1,5,0v7.9a3.731,3.731,0,1,0,7.453,0v-2.135a2.5,2.5,0,1,1,5,0V414.2a8.963,8.963,0,0,1-8.726,9.165Z" transform="translate(-184.854 -326.296)" fill="#75b62f"/>
        <path id="Trazado_160982" data-name="Trazado 160982" d="M215.5,91.774v9.554h6.054V91.774a3.027,3.027,0,1,0-6.054,0Z" transform="translate(-183.649 -72.879)" fill="#75b62f"/>
        <path id="Trazado_160983" data-name="Trazado 160983" d="M122.175,162.123a.55.55,0,0,1-.815.553,17.28,17.28,0,0,0-20.752,2.871.736.736,0,0,1-1.047,0,17.275,17.275,0,0,0-24.515,0,.736.736,0,0,1-1.047,0,17.28,17.28,0,0,0-20.752-2.871.55.55,0,0,1-.815-.553,35.207,35.207,0,0,1,69.744,0Z" transform="translate(-52.426 -107.491)" fill="#f85316"/>
        <path id="Trazado_160984" data-name="Trazado 160984" d="M257.38,162.123a35.21,35.21,0,0,0-34.872-30.362c-.692,0-1.379.022-2.061.062A34.764,34.764,0,0,1,252.423,161a17.163,17.163,0,0,1,4.142,1.676A.55.55,0,0,0,257.38,162.123Z" transform="translate(-187.63 -107.491)" fill="#cd5668"/>
        <path id="Trazado_160985" data-name="Trazado 160985" d="M177.423,131.791c-5.529,2.07-10.019,15.885-11.275,33.965a.733.733,0,0,0,.408-.208,17.275,17.275,0,0,1,24.515,0,.735.735,0,0,0,.515.218c-1.254-18.073-5.74-31.887-11.265-33.971-.5-.021-1-.033-1.507-.033-.466,0-.929.011-1.39.029Z" transform="translate(-143.937 -107.492)" fill="#ddebfd"/>
        <g id="Grupo_109333" data-name="Grupo 109333" transform="translate(55.939)">
          <path id="Trazado_160986" data-name="Trazado 160986" d="M343.883,62.06a.74.74,0,0,0-1.29,0c-1.223,2.173-3.759,7.03-3.759,9.961a4.4,4.4,0,1,0,8.807,0C347.642,69.09,345.106,64.232,343.883,62.06Z" transform="translate(-338.834 -51.1)" fill="#6cbff8"/>
          <path id="Trazado_160987" data-name="Trazado 160987" d="M419.532,7.878a.74.74,0,0,0-1.29,0c-1.223,2.173-3.759,7.03-3.759,9.961a4.4,4.4,0,1,0,8.807,0c0-2.931-2.536-7.788-3.759-9.961Z" transform="translate(-399.708 -7.5)" fill="#6cbff8"/>
          <path id="Trazado_160988" data-name="Trazado 160988" d="M419.532,116.243a.74.74,0,0,0-1.29,0c-1.223,2.173-3.759,7.03-3.759,9.961a4.4,4.4,0,1,0,8.807,0c0-2.931-2.536-7.788-3.759-9.961Z" transform="translate(-399.708 -94.7)" fill="#6cbff8"/>
        </g>
      </g>
      <g id="Grupo_109335" data-name="Grupo 109335" transform="translate(44.923 0)">
        <path id="Trazado_160989" data-name="Trazado 160989" d="M104.763,98.168a1.465,1.465,0,1,0-1.879,2.248A33.652,33.652,0,0,1,114.4,119.93a18.75,18.75,0,0,0-19.117,2.384A94.375,94.375,0,0,0,91.4,101.68a30.679,30.679,0,0,0-4.074-8.549,33.63,33.63,0,0,1,10.157,3.594,1.465,1.465,0,0,0,1.41-2.568,36.633,36.633,0,0,0-13.133-4.229V85.742a4.492,4.492,0,1,0-8.984,0v4.186a36.671,36.671,0,0,0-31.832,31.35,2.015,2.015,0,0,0,2.988,2.027,15.8,15.8,0,0,1,7.773-2.041c.337,0,.677.011,1.011.032a1.465,1.465,0,1,0,.184-2.924c-.4-.025-.8-.038-1.2-.038a18.77,18.77,0,0,0-7.572,1.6,33.751,33.751,0,0,1,27.2-26.824,30.575,30.575,0,0,0-4.087,8.558,94.46,94.46,0,0,0-3.9,20.729A18.735,18.735,0,0,0,64.07,120.3a1.465,1.465,0,0,0-1.31,2.621,15.831,15.831,0,0,1,4.162,3.012,2.2,2.2,0,0,0,3.126,0,15.681,15.681,0,0,1,9.631-4.591v21.666a4.089,4.089,0,0,0-2.612,3.84v7.9a10.2,10.2,0,1,0,20.382,0v-2.135a3.967,3.967,0,1,0-7.93,0v2.135a2.269,2.269,0,1,1-4.523,0v-7.9a4.1,4.1,0,0,0-2.388-3.751V121.325a15.68,15.68,0,0,1,9.876,4.61l.008.007a2.2,2.2,0,0,0,3.118-.007,15.815,15.815,0,0,1,18.992-2.629,2.015,2.015,0,0,0,2.988-2.027A36.561,36.561,0,0,0,104.763,98.168ZM79.7,85.742a1.563,1.563,0,0,1,3.125,0v3.944H82.76c-.85-.013-1.332-.068-2.96,0h-.01l-.086,0V85.742Zm7.554,74.387a5.293,5.293,0,0,0,5.191-5.378v-2.135a1.042,1.042,0,1,1,2.07,0v2.135a7.274,7.274,0,1,1-14.523,0v-7.9a1.042,1.042,0,1,1,2.07,0v7.9A5.293,5.293,0,0,0,87.257,160.129ZM70.336,121.846a90.1,90.1,0,0,1,3.69-19.264c1.783-5.4,4.017-9.016,6.161-9.983.808-.026,1.412-.027,2.27,0,2.144.973,4.377,4.591,6.158,9.994a90.3,90.3,0,0,1,3.693,19.331,18.765,18.765,0,0,0-21.972-.082Z" transform="translate(-44.923 -65.381)"/>
        <path id="Trazado_160990" data-name="Trazado 160990" d="M337.2,71.854a5.875,5.875,0,0,0,5.869-5.869c0-1.37-.513-4.579-3.947-10.679a2.2,2.2,0,0,0-3.843,0c-3.434,6.1-3.947,9.309-3.947,10.679A5.875,5.875,0,0,0,337.2,71.854Zm0-13.958c1.853,3.48,2.939,6.452,2.939,8.089a2.939,2.939,0,0,1-5.878,0C334.265,64.348,335.35,61.377,337.2,57.9Z" transform="translate(-275.395 -43.6)"/>
        <path id="Trazado_160991" data-name="Trazado 160991" d="M412.853,17.671a5.875,5.875,0,0,0,5.869-5.869c0-1.37-.512-4.579-3.947-10.679a2.2,2.2,0,0,0-3.843,0c-1.474,2.618-3.947,7.487-3.947,10.679A5.875,5.875,0,0,0,412.853,17.671Zm0-13.958c1.853,3.48,2.939,6.452,2.939,8.089a2.939,2.939,0,1,1-5.878,0c0-1.638,1.086-4.609,2.939-8.089Z" transform="translate(-336.269 0)"/>
        <path id="Trazado_160992" data-name="Trazado 160992" d="M412.853,108.366a2.209,2.209,0,0,0-1.921,1.124c-1.474,2.618-3.947,7.487-3.947,10.679a5.869,5.869,0,1,0,11.737,0c0-1.37-.512-4.579-3.947-10.679A2.208,2.208,0,0,0,412.853,108.366Zm0,14.742a2.942,2.942,0,0,1-2.939-2.939c0-1.638,1.086-4.609,2.939-8.089,1.853,3.48,2.939,6.452,2.939,8.089A2.942,2.942,0,0,1,412.853,123.108Z" transform="translate(-336.269 -87.201)"/>
      </g>
    </g>
  </g>
</svg>
