<svg xmlns="http://www.w3.org/2000/svg" width="136" height="136" viewBox="0 0 136 136">
  <g id="Grupo_109540" data-name="Grupo 109540" transform="translate(1279.87 7696.5)">
    <g id="Grupo_109461" data-name="Grupo 109461" transform="translate(644.13 3188.5)">
      <g id="Elipse_5298" data-name="Elipse 5298" transform="translate(-1924 -10885)" fill="#fff" stroke="#3e4bbf" stroke-width="5">
        <circle cx="68" cy="68" r="68" stroke="none"/>
        <circle cx="68" cy="68" r="65.5" fill="none"/>
      </g>
    </g>
    <path id="Trazado_161150" data-name="Trazado 161150" d="M-88.1-237.158v8.133a19.3,19.3,0,0,0-4.144.27,2.127,2.127,0,0,0-1.388,1.253q-.443.983-.443,5.57v31.956a23.582,23.582,0,0,0,.347,5.339,2.09,2.09,0,0,0,1.291,1.407,16.225,16.225,0,0,0,4.337.347v8.133h-4.9q-6.784,0-9.964-1.253a7.016,7.016,0,0,1-4.2-3.681q-1.021-2.429-1.021-10.331v-31.878q0-7.864,1-10.331a6.873,6.873,0,0,1,4.279-3.7q3.277-1.234,9.907-1.234Zm16.729,0h4.9q6.63,0,9.907,1.234a6.873,6.873,0,0,1,4.279,3.7q1,2.467,1,10.331v31.878q0,7.9-1,10.331a6.944,6.944,0,0,1-4.2,3.681q-3.2,1.253-9.984,1.253h-4.9v-8.133a16.2,16.2,0,0,0,4.356-.347,2.149,2.149,0,0,0,1.291-1.407,22.371,22.371,0,0,0,.366-5.339v-31.956q0-4.587-.463-5.57a2.185,2.185,0,0,0-1.407-1.253,19.3,19.3,0,0,0-4.144-.27Z" transform="translate(-1131.691 -7422.342)" fill="#f85316"/>
  </g>
</svg>
