<svg xmlns="http://www.w3.org/2000/svg" width="94.792" height="94.808" viewBox="0 0 94.792 94.808">
  <g id="Grupo_109567" data-name="Grupo 109567" transform="translate(-4700 7872.309)">
    <g id="Grupo_109242" data-name="Grupo 109242" transform="translate(4700 -7872.309)">
      <path id="Trazado_160756" data-name="Trazado 160756" d="M1417.662,17.6c2.389.46,3.98,2.1,5.612,3.723q9.636,9.6,19.324,19.151a7.281,7.281,0,0,1,2.291,5.536c-.055,3.547-.015,7.095-.015,10.643v.956a11.927,11.927,0,0,1,1.206-.373,4.253,4.253,0,0,1,4.114,1.26c4.48,4.55,9,9.059,13.5,13.586a4.46,4.46,0,0,1,.593,5.95,5.177,5.177,0,0,1-5.831,2.276.507.507,0,0,0-.631.149c-.361.38-.738.745-1.109,1.116-1.324,1.323-1.316,1.313.192,2.5,3.341,2.63,6.654,5.3,10.019,7.9a9.106,9.106,0,0,1,3.487,4.679V98.87c-.055.069-.141.129-.162.207a8.414,8.414,0,0,1-5.413,5.731,4.653,4.653,0,0,1-2.983.191,8.739,8.739,0,0,1-4.589-3.525q-4.255-5.412-8.5-10.829c-.3-.384-.528-.714-1.009-.137A18.375,18.375,0,0,1,1446,92.272a.729.729,0,0,0-.187.886,4.21,4.21,0,0,1-.4,3.555,3.6,3.6,0,0,0-.544,2.262c.032.429.014.863,0,1.295a8.625,8.625,0,0,1-4.978,7.911,10.173,10.173,0,0,1-5.4.858c-.616-.029-.826.112-.838.782a2.29,2.29,0,0,1-2.4,2.557q-8.557.015-17.114,0a1.518,1.518,0,0,1-1.678-1.432c.286-1.074,1-1.379,2.076-1.37,5.144.043,10.289,0,15.433.036.7,0,.89-.19.863-.877a2.3,2.3,0,0,0-2.478-2.47q-6.192-.018-12.384,0-5.729.009-11.457.036c-1.711-.1-2.61.53-2.863,2.019-.208,1.228-.162,1.284,1.112,1.28.4,0,.8-.022,1.2-.033.98.011,1.964.08,2.94.016a1.738,1.738,0,0,1,2.063,1.367c-.27,1.307-1.167,1.506-2.337,1.454-1.693-.075-3.392-.018-5.089-.02-1.825,0-2.767-.887-2.73-2.69.014-.7-.167-.857-.856-.852-4.565.033-9.13.053-13.7,0a8.788,8.788,0,0,1-8.613-8.434q-.03-31.094-.018-62.188a1.43,1.43,0,0,1,1.3-1.606c1.157.2,1.487.592,1.488,1.8q0,14.292,0,28.585,0,16.42,0,32.84a6.4,6.4,0,0,0,6.366,6.225q6.987-.007,13.973.005a1.07,1.07,0,0,0,1.06-.514,3.7,3.7,0,0,1,1.887-1.574c.806-.263.919-.73.928-1.492a4.968,4.968,0,0,1,5.233-5.117c5.676-.009,11.351-.018,17.027.007a4.975,4.975,0,0,1,4.96,5.017c-.008.828.1,1.368.986,1.622a2.252,2.252,0,0,1,1.385,1.031c.652,1.293,1.742,1.317,2.929,1.223.337-.027.678,0,1.018-.005a6.119,6.119,0,0,0,5.934-6.007c.007-.554-.08-.757-.691-.643a3.943,3.943,0,0,1-3.693-1.216q-6.893-6.913-13.8-13.81a3.884,3.884,0,0,1-1.074-1.7,4.8,4.8,0,0,1,1.335-4.83,4.887,4.887,0,0,1,4.951-1.52.92.92,0,0,0,1.047-.234q5.81-5.837,11.645-11.65c.162-.163.478-.306.348-.589-.566-1.237-.086-2.483-.089-3.726-.012-4.9-.086-9.809-.087-14.713,0-.76-.25-.888-.937-.885q-8.375.039-16.749.011a6.494,6.494,0,0,1-6.824-6.866c0-5.522-.011-11.043.014-16.565,0-.627-.126-.831-.8-.832q-16.054-.032-32.107-.117a3.477,3.477,0,0,0-1.363.2,5.827,5.827,0,0,0-4.626,4.428c-.417,2.033-.117,4.1-.184,6.151-.039,1.185-.3,1.532-1.489,1.82a1.557,1.557,0,0,1-1.307-1.8c.047-1.6.008-3.2.014-4.8a8.791,8.791,0,0,1,6.332-8.429c.3-.089.673-.037.886-.355Zm-9.436,82.6c-1.683-.1-2.7.729-2.812,2.191-.06.808.13,1.1,1.03,1.1,6.471-.043,12.942-.023,19.413-.023,1.411,0,1.425-.019,1.131-1.462a2.149,2.149,0,0,0-2.125-1.824C1419.318,100.164,1413.771,100.186,1408.226,100.2Zm18.647-20.662c-1.715,1.092-1.847,2.194-.431,3.61q6.568,6.568,13.138,13.134a1.681,1.681,0,0,0,2.389.208,2.455,2.455,0,0,0,.95-1.1,1.51,1.51,0,0,0-.366-2.122q-6.744-6.715-13.458-13.46A1.59,1.59,0,0,0,1426.873,79.534Zm35.1-3.214a1.557,1.557,0,0,0-.186-2.156q-6.785-6.806-13.544-13.637a1.541,1.541,0,0,0-2.073-.312c-1.823,1.151-1.962,2.311-.459,3.818,1.044,1.047,2.092,2.09,3.13,3.143a1.514,1.514,0,0,1,.289,2.281c-1.035.567-1.435.515-2.276-.32-.788-.782-1.576-1.563-2.342-2.366-.291-.305-.48-.357-.81-.023q-4.968,5.032-9.963,10.036c-.445.423-.861.882-1.342,1.258-.536.419-.43.684.014,1.122,3.265,3.224,6.5,6.477,9.745,9.721,1.744,1.743,1.744,1.743,3.426-.21q5.016-4.981,10.04-9.954c.343-.338.26-.518-.032-.806-1.207-1.19-2.4-2.4-3.588-3.6-.833-.846-.873-1.219-.291-2.28,1.067-.561,1.442-.515,2.28.319q2.228,2.221,4.443,4.454C1459.8,78.17,1460.922,78.015,1461.975,76.321Zm-6.692,10.121a1.943,1.943,0,0,0-.182-.2c-1.649-1.4-1.65-1.4-3.179.126-1.684,1.684-1.684,1.684-.169,3.531a.782.782,0,0,0,.145.109c2.867,3.657,5.7,7.344,8.617,10.958a3.265,3.265,0,0,0,4.844.458,7.109,7.109,0,0,0,1.428-1.438,3.4,3.4,0,0,0-.546-4.925c-.749-.64-1.537-1.233-2.312-1.841Q1459.608,89.827,1455.283,86.441Zm-15.174-44.476-19.834-19.631c0,5.511-.029,10.783.015,16.053a3.573,3.573,0,0,0,3.726,3.563C1429.286,41.994,1434.557,41.965,1440.109,41.965Z" transform="translate(-1375.627 -17.601)" fill="#0a0a09"/>
      <path id="Trazado_160757" data-name="Trazado 160757" d="M1398.477,29.054a3.477,3.477,0,0,1,1.363-.2q16.054.068,32.107.117c.67,0,.8.205.8.832-.025,5.522-.017,11.043-.014,16.565a6.494,6.494,0,0,0,6.824,6.866q8.375.022,16.749-.011c.687,0,.937.125.937.885,0,4.9.075,9.809.087,14.713,0,1.243-.478,2.489.089,3.726.13.284-.186.427-.348.589q-5.822,5.826-11.645,11.65a.92.92,0,0,1-1.047.234,4.887,4.887,0,0,0-4.951,1.52,4.8,4.8,0,0,0-1.335,4.83,3.884,3.884,0,0,0,1.074,1.7q6.9,6.9,13.8,13.81a3.943,3.943,0,0,0,3.693,1.216c.611-.115.7.089.691.643a6.119,6.119,0,0,1-5.934,6.007c-.339.007-.68-.021-1.018.005-1.187.094-2.277.07-2.929-1.223a2.252,2.252,0,0,0-1.385-1.031c-.884-.254-.994-.794-.986-1.622a4.975,4.975,0,0,0-4.96-5.017c-5.675-.025-11.351-.016-17.027-.007a4.968,4.968,0,0,0-5.233,5.117c-.009.762-.122,1.229-.928,1.492a3.7,3.7,0,0,0-1.887,1.574,1.07,1.07,0,0,1-1.06.514q-6.987-.02-13.973-.005a5.958,5.958,0,0,1-1.553-.2,1.756,1.756,0,0,0-.25-.475,8.331,8.331,0,0,1-2.333-6.29q-.029-35.876.007-71.752a8.352,8.352,0,0,1,1.648-5.537C1397.872,29.89,1398.4,29.635,1398.477,29.054ZM1420.8,75.581q7.77,0,15.541,0a6.086,6.086,0,0,0,1.013-.054,1.369,1.369,0,0,0,.158-2.652,3.728,3.728,0,0,0-1-.112q-15.68-.008-31.36,0a3.808,3.808,0,0,0-.828.047,1.342,1.342,0,0,0-1.184,1.427,1.312,1.312,0,0,0,1.29,1.323,9.2,9.2,0,0,0,.924.025ZM1418.039,97.8h9.527c1.295,0,2.591.027,3.885-.013a1.364,1.364,0,0,0,1.454-1.686c-.144-.758-.737-1.123-1.866-1.124q-13,0-25.992,0a3.216,3.216,0,0,0-.735.049,1.344,1.344,0,0,0-1.172,1.438,1.316,1.316,0,0,0,1.3,1.312c.306.029.616.023.924.023Q1411.7,97.8,1418.039,97.8Zm-1.607-11.107q5.452,0,10.9,0a5.962,5.962,0,0,0,1.011-.06,1.218,1.218,0,0,0,1.078-1.2,1.293,1.293,0,0,0-.895-1.442,3.16,3.16,0,0,0-1.186-.122h-21.715a2.858,2.858,0,0,0-1.271.154,1.322,1.322,0,0,0-.841,1.4,1.278,1.278,0,0,0,1.092,1.207,6.185,6.185,0,0,0,1.011.061Q1411.026,86.692,1416.432,86.689Zm-.915-33.322q3.418,0,6.837,0c1.324,0,2.649.014,3.971-.036a1.221,1.221,0,0,0,1.248-1.234,1.3,1.3,0,0,0-1.082-1.485,2.994,2.994,0,0,0-.731-.067q-10.21,0-20.419-.005a2.23,2.23,0,0,0-.993.161,1.319,1.319,0,0,0-.83,1.407,1.281,1.281,0,0,0,1.1,1.2,6.355,6.355,0,0,0,1.011.059Q1410.574,53.37,1415.517,53.367Zm-.94,11.1h6.564c1.171,0,2.343.02,3.513-.011a1.356,1.356,0,0,0,1.488-1.314,1.426,1.426,0,0,0-1.446-1.478c-.153-.015-.308-.007-.462-.007q-9.569,0-19.139,0a3.384,3.384,0,0,0-1,.121,1.265,1.265,0,0,0-.949,1.406,1.28,1.28,0,0,0,1.169,1.236,7.112,7.112,0,0,0,.922.039Q1409.907,64.466,1414.576,64.464Zm24.212,0c2.4,0,4.806,0,7.209,0,1.2,0,1.9-.538,1.875-1.417s-.72-1.383-1.929-1.389c-1.14-.005-2.28,0-3.42,0q-5.407,0-10.815,0c-.75,0-1.436.121-1.754.9-.409,1.007.289,1.89,1.53,1.9C1433.92,64.478,1436.355,64.464,1438.789,64.464Z" transform="translate(-1390.87 -26.068)" fill="#75b62f"/>
      <path id="Trazado_160758" data-name="Trazado 160758" d="M1628.49,220.836c-.582,1.06-.542,1.433.291,2.28,1.188,1.208,2.38,2.414,3.588,3.6.292.288.375.468.032.806q-5.035,4.961-10.04,9.954a3.952,3.952,0,0,1-.358-.285q-5.552-5.546-11.1-11.1a4.793,4.793,0,0,1-.389-.507q4.985-5.015,9.963-10.036c.33-.334.518-.282.81.023.766.8,1.554,1.585,2.342,2.366.842.836,1.242.887,2.276.32Z" transform="translate(-1552.403 -166.404)" fill="#dce736"/>
      <path id="Trazado_160759" data-name="Trazado 160759" d="M1575.892,56.364c-5.552,0-10.823.029-16.093-.014a3.573,3.573,0,0,1-3.726-3.563c-.044-5.271-.015-10.542-.015-16.053Z" transform="translate(-1511.411 -32)" fill="#c5dadd"/>
      <path id="Trazado_160760" data-name="Trazado 160760" d="M1387.2,29.669c-.075.582-.6.836-.927,1.228a8.352,8.352,0,0,0-1.648,5.537q-.043,35.876-.007,71.752a8.331,8.331,0,0,0,2.333,6.29,1.759,1.759,0,0,1,.249.475,5.945,5.945,0,0,1-4.813-6.026q-.011-16.42,0-32.84,0-14.292,0-28.585c0-1.211-.331-1.6-1.488-1.8q0-1.814.005-3.629c1.194-.288,1.451-.635,1.489-1.82.067-2.051-.233-4.118.184-6.151A5.827,5.827,0,0,1,1387.2,29.669Z" transform="translate(-1379.592 -26.683)" fill="#c8dde1"/>
      <path id="Trazado_160761" data-name="Trazado 160761" d="M1687.29,295.846q4.323,3.387,8.646,6.775c.775.608,1.564,1.2,2.312,1.841a3.4,3.4,0,0,1,.546,4.925,7.113,7.113,0,0,1-1.428,1.438,3.265,3.265,0,0,1-4.844-.458c-2.921-3.614-5.75-7.3-8.617-10.958A17.322,17.322,0,0,1,1687.29,295.846Z" transform="translate(-1607.634 -227.006)" fill="#bc7147"/>
      <path id="Trazado_160762" data-name="Trazado 160762" d="M1498.568,380.631h-3.5a1.738,1.738,0,0,0-2.063-1.367c-.975.064-1.959-.005-2.94-.016a6.523,6.523,0,0,1,.553-3.266q5.729-.019,11.457-.036,6.192-.009,12.384,0a2.3,2.3,0,0,1,2.478,2.47c.027.688-.161.882-.863.877-5.144-.031-10.289.007-15.433-.036C1499.566,379.252,1498.854,379.557,1498.568,380.631Z" transform="translate(-1461.727 -287.284)" fill="#bd7148"/>
      <path id="Trazado_160763" data-name="Trazado 160763" d="M1661.781,201.664l-2.582-2.575a1.514,1.514,0,0,0-.289-2.281c-1.038-1.053-2.086-2.1-3.13-3.143-1.5-1.507-1.364-2.666.459-3.818a1.52,1.52,0,0,0,.523,1.138c1.516,1.573,3.009,3.169,4.546,4.72,2.972,3,5.974,5.971,8.948,8.97a5.27,5.27,0,0,0,1.786,1.276c-1.053,1.695-2.178,1.849-3.538.486q-2.222-2.227-4.443-4.454C1663.223,201.149,1662.847,201.1,1661.781,201.664Z" transform="translate(-1585.693 -147.232)" fill="#b1683e"/>
      <path id="Trazado_160764" data-name="Trazado 160764" d="M1594.546,283.779a2.455,2.455,0,0,1-.95,1.1,1.681,1.681,0,0,1-2.389-.208q-6.572-6.564-13.138-13.134c-1.416-1.416-1.284-2.518.431-3.61a5.429,5.429,0,0,0,.883,1.394q6.909,6.882,13.793,13.789A1.938,1.938,0,0,0,1594.546,283.779Z" transform="translate(-1527.255 -205.996)" fill="#b1683e"/>
      <path id="Trazado_160765" data-name="Trazado 160765" d="M1605.336,256.813a4.8,4.8,0,0,0,.389.507q5.544,5.554,11.1,11.1a3.95,3.95,0,0,0,.358.285c-1.683,1.953-1.683,1.953-3.426.21-3.245-3.244-6.481-6.5-9.745-9.721-.444-.438-.55-.7-.014-1.122C1604.475,257.7,1604.891,257.236,1605.336,256.813Z" transform="translate(-1547.222 -197.63)" fill="#f9c81d"/>
      <path id="Trazado_160766" data-name="Trazado 160766" d="M1676.562,205.135a5.272,5.272,0,0,1-1.786-1.276c-2.974-3-5.976-5.969-8.948-8.97-1.537-1.552-3.03-3.147-4.546-4.72a1.519,1.519,0,0,1-.523-1.138,1.541,1.541,0,0,1,2.073.312q6.762,6.828,13.544,13.637A1.557,1.557,0,0,1,1676.562,205.135Z" transform="translate(-1590.213 -146.415)" fill="#ba7047"/>
      <path id="Trazado_160767" data-name="Trazado 160767" d="M1598.8,282.763a1.938,1.938,0,0,1-1.37-.665q-6.888-6.9-13.793-13.789a5.426,5.426,0,0,1-.883-1.394,1.59,1.59,0,0,1,2.221.266q6.708,6.751,13.458,13.46A1.51,1.51,0,0,1,1598.8,282.763Z" transform="translate(-1531.51 -204.98)" fill="#bd7148"/>
      <path id="Trazado_160768" data-name="Trazado 160768" d="M1517.567,353.22c.293,1.444.279,1.462-1.131,1.462-6.471,0-12.942-.02-19.413.023-.9.006-1.09-.289-1.03-1.1.109-1.461,1.129-2.287,2.812-2.191a5.922,5.922,0,0,1-.221.886c-.27.654-.165.95.63.946C1505.33,353.225,1511.448,353.227,1517.567,353.22Z" transform="translate(-1466.205 -268.823)" fill="#ac653c"/>
      <path id="Trazado_160769" data-name="Trazado 160769" d="M1525.069,353.17c-6.118.006-12.237,0-18.355.03-.795,0-.9-.292-.63-.946a5.923,5.923,0,0,0,.221-.886c5.546-.01,11.092-.032,16.638-.022A2.149,2.149,0,0,1,1525.069,353.17Z" transform="translate(-1473.708 -268.772)" fill="#bd7148"/>
      <path id="Trazado_160770" data-name="Trazado 160770" d="M1683.455,292.07a17.319,17.319,0,0,0-3.385,3.562.783.783,0,0,1-.145-.109c-1.515-1.846-1.515-1.847.169-3.531,1.529-1.529,1.529-1.529,3.179-.126A1.942,1.942,0,0,1,1683.455,292.07Z" transform="translate(-1603.799 -223.23)" fill="#b1683e"/>
      <path id="Trazado_160771" data-name="Trazado 160771" d="M1483.425,376.075a6.52,6.52,0,0,0-.553,3.266c-.4.012-.8.032-1.2.033-1.275,0-1.321-.052-1.112-1.28C1480.815,376.6,1481.714,375.971,1483.425,376.075Z" transform="translate(-1454.53 -287.377)" fill="#ae663d"/>
      <path id="Trazado_160772" data-name="Trazado 160772" d="M1442.881,209.136h-15.448a9.2,9.2,0,0,1-.924-.025,1.312,1.312,0,0,1-1.29-1.323,1.342,1.342,0,0,1,1.184-1.427,3.809,3.809,0,0,1,.828-.047q15.68,0,31.36,0a3.728,3.728,0,0,1,1,.112,1.369,1.369,0,0,1-.158,2.652,6.086,6.086,0,0,1-1.013.054Q1450.652,209.138,1442.881,209.136Z" transform="translate(-1412.948 -159.622)" fill="#0b0d0d"/>
      <path id="Trazado_160773" data-name="Trazado 160773" d="M1440.115,298.924q-6.336,0-12.672,0c-.308,0-.618.006-.924-.023a1.316,1.316,0,0,1-1.3-1.312,1.344,1.344,0,0,1,1.172-1.438,3.216,3.216,0,0,1,.735-.049q13,0,25.992,0c1.129,0,1.722.366,1.866,1.124a1.364,1.364,0,0,1-1.454,1.686c-1.294.04-2.59.013-3.885.013Z" transform="translate(-1412.946 -227.196)" fill="#0b0d0d"/>
      <path id="Trazado_160774" data-name="Trazado 160774" d="M1439.627,254.018q-5.406,0-10.811,0a6.186,6.186,0,0,1-1.011-.061,1.278,1.278,0,0,1-1.092-1.207,1.322,1.322,0,0,1,.841-1.4,2.858,2.858,0,0,1,1.271-.154h21.715a3.16,3.16,0,0,1,1.186.122,1.293,1.293,0,0,1,.895,1.442,1.218,1.218,0,0,1-1.078,1.2,5.963,5.963,0,0,1-1.011.06Q1445.079,254.022,1439.627,254.018Z" transform="translate(-1414.065 -193.398)" fill="#0b0d0d"/>
      <path id="Trazado_160775" data-name="Trazado 160775" d="M1438.71,119.338q-4.943,0-9.886,0a6.355,6.355,0,0,1-1.011-.059,1.281,1.281,0,0,1-1.1-1.2,1.319,1.319,0,0,1,.83-1.407,2.23,2.23,0,0,1,.993-.161q10.209.006,20.419.005a2.994,2.994,0,0,1,.731.067,1.3,1.3,0,0,1,1.082,1.485,1.221,1.221,0,0,1-1.248,1.234c-1.322.05-2.647.034-3.971.036Q1442.129,119.343,1438.71,119.338Z" transform="translate(-1414.063 -92.039)" fill="#0b0d0d"/>
      <path id="Trazado_160776" data-name="Trazado 160776" d="M1436.656,164.243q-4.669,0-9.338,0a7.113,7.113,0,0,1-.922-.039,1.28,1.28,0,0,1-1.169-1.236,1.265,1.265,0,0,1,.949-1.406,3.384,3.384,0,0,1,1-.121q9.569-.01,19.139,0c.154,0,.309-.008.462.007a1.426,1.426,0,0,1,1.446,1.478,1.356,1.356,0,0,1-1.488,1.314c-1.171.03-2.342.01-3.513.011Z" transform="translate(-1412.95 -125.847)" fill="#0c0e0e"/>
      <path id="Trazado_160777" data-name="Trazado 160777" d="M1542.087,164.241c-2.434,0-4.868.014-7.3-.006-1.241-.01-1.939-.893-1.53-1.9.318-.784,1-.906,1.754-.9q5.407.009,10.815,0c1.14,0,2.28,0,3.42,0,1.208.006,1.906.513,1.929,1.389s-.673,1.414-1.875,1.417C1546.893,164.246,1544.49,164.241,1542.087,164.241Z" transform="translate(-1494.168 -125.845)" fill="#0c0e0e"/>
    </g>
  </g>
</svg>
