<svg xmlns="http://www.w3.org/2000/svg" width="100" height="99.968" viewBox="0 0 100 99.968">
  <g id="Grupo_109550" data-name="Grupo 109550" transform="translate(-3770.087 6829.228)">
    <g id="Grupo_109393" data-name="Grupo 109393" transform="translate(3272.989 -6838.888)">
      <path id="Trazado_160646" data-name="Trazado 160646" d="M497.142,59.4c0-9.349.016-18.7-.015-28.047a5.43,5.43,0,0,1,1.651-4.079q8-7.979,15.98-15.976a5.338,5.338,0,0,1,3.984-1.636q21.506.033,43.012.014a5.025,5.025,0,0,1,5.332,5.321q.021,12.19-.015,24.38a1.293,1.293,0,0,0,.887,1.378c9.527,4.634,15.3,12.152,17.021,22.627a28.888,28.888,0,0,1-4.652,21.088c-.392.6-.461.964.131,1.445a13.87,13.87,0,0,1,1.616,1.6,2.843,2.843,0,0,0,2.666,1.285,2.378,2.378,0,0,1,1.9.922c2.874,2.872,5.775,5.719,8.609,8.63a6.663,6.663,0,0,1-9.424,9.416c-2.885-2.813-5.706-5.693-8.561-8.538a3.083,3.083,0,0,1-1.017-2.666,1.292,1.292,0,0,0-.483-1.2c-.86-.821-1.719-1.646-2.519-2.525-.4-.442-.662-.412-1.133-.095a29.854,29.854,0,0,1-32.549.614,2.813,2.813,0,0,0-1.567-.444c-11.761.014-23.521-.034-35.282.039a5.391,5.391,0,0,1-5.609-5.609C497.221,78.031,497.142,68.714,497.142,59.4Zm85.783,34.083c-.962.945-1.9,1.914-2.895,2.823-.449.41-.327.628.041.992q3.9,3.852,7.755,7.741a3.1,3.1,0,0,0,1.49.915,3.282,3.282,0,0,0,3.09-5.683q-3.415-3.43-6.845-6.845C584.22,92.083,584.221,92.083,582.924,93.481Zm-19.589-.2a3.928,3.928,0,0,0,.567-.107,26.675,26.675,0,0,0,17.85-28.761,26,26,0,0,0-10.732-18,20.051,20.051,0,0,0-7.087-3.57,24.46,24.46,0,0,0-13.424-1.061,26.6,26.6,0,0,0-21.6,28.807,25.961,25.961,0,0,0,12.685,20.084A25.1,25.1,0,0,0,563.335,93.278ZM559.99,13.067a1.221,1.221,0,0,0-.2-.032q-20.169,0-40.339-.023c-.711,0-.7.324-.695.832q.017,6.046,0,12.092a4.964,4.964,0,0,1-5.358,5.361c-3.931.01-7.863.029-11.794-.018-.872-.011-1.139.174-1.138,1.105q.047,27.405.023,54.811c0,.231-.007.463,0,.694a1.436,1.436,0,0,0,1.146,1.514l.253.1c.89.017,1.781.05,2.671.05q13.63-.008,27.259-.026h2.776c-.31-.325-.506-.534-.706-.74a29.98,29.98,0,0,1,.819-42.567,36.2,36.2,0,0,1,7.308-5.191c.214-.079.435-.144.642-.238A30.659,30.659,0,0,1,552,38.171a38.15,38.15,0,0,1,7.774.064c.993.215,2.011.357,2.973.669.826.268,1,.081.993-.753-.027-7.627-.016-15.254-.017-22.882a5.012,5.012,0,0,0-.021-.692,1.643,1.643,0,0,0-1.731-1.542C561.309,13.022,560.65,13.055,559.99,13.067ZM503.177,27.92c.11.007.262.024.414.024,3.3,0,6.6.008,9.906,0,1.359,0,1.906-.562,1.914-1.931.012-2.08,0-4.16,0-6.241V15.682Zm74.479,60.047c-.357.379-.7.765-1.069,1.132-1.165,1.173-1.168,1.171,0,2.335,1.934,1.935,1.934,1.935,3.713-.119.043-.05.089-.1.137-.142.166-.161.2-.322.023-.5q-1.257-1.252-2.512-2.507A2.168,2.168,0,0,0,577.655,87.967Z" transform="translate(0 0)" fill="#09090a"/>
      <path id="Trazado_160647" data-name="Trazado 160647" d="M568.658,47.333a37.842,37.842,0,0,0-7.711-.064,30.41,30.41,0,0,0-9.249,2.6c-.206.094-.424.158-.637.237a1.917,1.917,0,0,0-1.139.227,28.589,28.589,0,0,0-12.006,8.358,27.946,27.946,0,0,0-6.561,15.949,26.613,26.613,0,0,0,1.431,11.191,27.342,27.342,0,0,0,7.2,11.184c.369.345.87.615.961,1.2q-13.519.014-27.038.026c-.883,0-1.766-.032-2.649-.049l-.251-.1a1.424,1.424,0,0,1-1.137-1.5c-.011-.229,0-.459,0-.688q0-27.183-.023-54.366c0-.924.264-1.107,1.128-1.1,3.9.047,7.8.028,11.7.018a4.924,4.924,0,0,0,5.315-5.318q.01-6,0-11.994c0-.5-.016-.826.689-.825q20.006.037,40.013.022a1.21,1.21,0,0,1,.194.031,3.928,3.928,0,0,1,.4,1.893c-.014,4.325-.007,8.65-.007,12.976q0,4.571,0,9.142C569.274,46.833,569.373,47.344,568.658,47.333ZM550.192,43.78h8.06c2.523,0,5.046.022,7.568-.01a1.65,1.65,0,0,0,1.547-2.508,1.912,1.912,0,0,0-1.866-.823q-12.925.014-25.85.006c-1.606,0-3.211.008-4.816,0a1.708,1.708,0,0,0-1.742,1.018c-.542,1.213.336,2.314,1.865,2.317Q542.574,43.788,550.192,43.78Zm.1-8.26h15.038a6.355,6.355,0,0,0,.785-.013,1.658,1.658,0,0,0,.158-3.277,3.725,3.725,0,0,0-.782-.043q-15.235,0-30.469,0a3.541,3.541,0,0,0-.589.018,1.666,1.666,0,0,0-1.349,1.007c-.512,1.189.328,2.3,1.777,2.305Q542.58,35.531,550.3,35.52ZM527.972,48.7q-5.651,0-11.3,0a1.72,1.72,0,0,0-1.738,1.027,1.52,1.52,0,0,0,.284,1.729,2.036,2.036,0,0,0,1.695.587q6.585-.016,13.17-.006c3.047,0,6.094.005,9.14,0,1.173,0,1.867-.55,1.948-1.494.1-1.121-.616-1.832-1.894-1.835C535.507,48.693,531.74,48.7,527.972,48.7Zm-3.244,11.594c2.586,0,5.173,0,7.759,0,1.308,0,2.118-.642,2.131-1.661s-.807-1.671-2.1-1.671q-7.808,0-15.617,0c-1.352,0-2.1.586-2.1,1.643s.762,1.686,2.074,1.689C519.491,60.3,522.11,60.293,524.729,60.294Zm-1.7,29.694c-2.127,0-4.254-.007-6.381,0a1.634,1.634,0,0,0-1.853,1.579,1.678,1.678,0,0,0,1.831,1.738q6.43.034,12.86,0a1.669,1.669,0,1,0-.077-3.315C527.285,89.982,525.158,89.987,523.031,89.987Zm.054-24.771c-2.094,0-4.189,0-6.283,0-1.269,0-2,.6-2,1.637s.749,1.686,1.973,1.689q6.283.013,12.566,0c1.2,0,1.992-.707,1.972-1.7a1.716,1.716,0,0,0-1.94-1.62C527.273,65.21,525.179,65.216,523.085,65.216Zm-.814,16.512c-1.867,0-3.734-.008-5.6,0-1.135.006-1.831.6-1.873,1.567a1.672,1.672,0,0,0,1.815,1.751q5.6.033,11.2,0a1.669,1.669,0,1,0-.039-3.318C525.939,81.72,524.105,81.728,522.271,81.728Zm-.023-8.253c-1.867,0-3.734-.007-5.6,0a1.646,1.646,0,0,0-1.85,1.59,1.682,1.682,0,0,0,1.838,1.73q5.6.029,11.2,0a1.67,1.67,0,1,0-.086-3.318C525.916,73.47,524.082,73.476,522.248,73.476Z" transform="translate(-9.395 -9.329)" fill="#f2f2f2"/>
      <path id="Trazado_160648" data-name="Trazado 160648" d="M650.849,180.652a24.9,24.9,0,0,1-21.566-2.589A25.75,25.75,0,0,1,616.7,158.141a26.381,26.381,0,0,1,21.426-28.573,24.263,24.263,0,0,1,13.315,1.052c.036.323.324.385.541.513a28.18,28.18,0,0,1,10.143,10.02,18.04,18.04,0,0,1,2.366,5.35l-.209-.008c-.1-.207-.2-.413-.292-.621a23.089,23.089,0,1,0,.195,18.853c.461.321.088.678-.02.95a28.021,28.021,0,0,1-11.649,13.85C651.95,179.875,651.229,180.02,650.849,180.652Z" transform="translate(-87.554 -87.242)" fill="#8b8b8b"/>
      <path id="Trazado_160649" data-name="Trazado 160649" d="M747.076,184.9c.38-.632,1.1-.778,1.668-1.126a28.021,28.021,0,0,0,11.649-13.85c.108-.272.481-.628.02-.95l.144-.336c.358-.07.314-.345.305-.6l-.009.016c.226-.105.2-.311.206-.507a.99.99,0,0,1,.078-.662,21.858,21.858,0,0,0,.923-10.125c-.175-1.185-.4-2.362-.609-3.542a4.675,4.675,0,0,0-.732-2.466,18.056,18.056,0,0,0-2.367-5.35,28.182,28.182,0,0,0-10.143-10.02c-.217-.128-.505-.19-.541-.513a19.893,19.893,0,0,1,7.03,3.542,25.784,25.784,0,0,1,10.645,17.857,26.459,26.459,0,0,1-17.706,28.528A3.9,3.9,0,0,1,747.076,184.9Z" transform="translate(-183.617 -91.757)" fill="#5e5d5d"/>
      <path id="Trazado_160650" data-name="Trazado 160650" d="M601,176.085c-.091-.581-.592-.851-.961-1.2a27.341,27.341,0,0,1-7.2-11.184,26.613,26.613,0,0,1-1.431-11.191,27.946,27.946,0,0,1,6.561-15.949,28.589,28.589,0,0,1,12.006-8.358,1.917,1.917,0,0,1,1.139-.227,35.9,35.9,0,0,0-7.248,5.149,29.737,29.737,0,0,0-.812,42.222c.2.2.393.412.7.734Z" transform="translate(-69.193 -86.709)" fill="#c3cdd2"/>
      <path id="Trazado_160651" data-name="Trazado 160651" d="M733.623,47.386c.715.011.616-.5.616-.954q0-4.571,0-9.142c0-4.325-.007-8.651.007-12.976a3.928,3.928,0,0,0-.4-1.893c.654-.012,1.308-.045,1.962-.032a1.629,1.629,0,0,1,1.716,1.53,4.979,4.979,0,0,1,.021.686c0,7.565-.01,15.131.017,22.7,0,.828-.166,1.013-.985.747C735.618,47.74,734.608,47.6,733.623,47.386Z" transform="translate(-173.831 -9.382)" fill="#c1cbd0"/>
      <path id="Trazado_160652" data-name="Trazado 160652" d="M520.039,44.526l12.138-12.139v4.055c0,2.063.008,4.127,0,6.19-.007,1.358-.55,1.911-1.9,1.915-3.275.011-6.55,0-9.826,0C520.3,44.55,520.148,44.532,520.039,44.526Z" transform="translate(-16.912 -16.754)" fill="#c4cfd4"/>
      <path id="Trazado_160653" data-name="Trazado 160653" d="M818.487,338.366a3.072,3.072,0,0,1-1.478-.908q-3.839-3.846-7.692-7.678c-.365-.361-.486-.576-.041-.984.986-.9,1.917-1.863,2.871-2.8,1.8,1.76,3.6,3.511,5.383,5.282C819.881,333.614,820.127,335.5,818.487,338.366Z" transform="translate(-229.109 -232.385)" fill="#e02d29"/>
      <path id="Trazado_160654" data-name="Trazado 160654" d="M827.343,335.43c1.639-2.87,1.394-4.752-.957-7.087-1.783-1.771-3.588-3.522-5.383-5.282,1.286-1.386,1.285-1.386,2.615-.057q3.4,3.394,6.79,6.789a3.256,3.256,0,0,1-3.065,5.637Z" transform="translate(-237.965 -229.449)" fill="#b90916"/>
      <path id="Trazado_160655" data-name="Trazado 160655" d="M795.709,305.187a2.143,2.143,0,0,1,.285.194q1.249,1.241,2.492,2.487c.18.179.142.339-.023.5-.047.045-.093.092-.135.141-1.765,2.038-1.765,2.038-3.683.119-1.154-1.155-1.151-1.152,0-2.316C795.011,305.946,795.355,305.563,795.709,305.187Z" transform="translate(-218.037 -217.187)" fill="#6a7a80"/>
      <path id="Trazado_160656" data-name="Trazado 160656" d="M514.273,310.608l.251.1Z" transform="translate(-12.661 -221.204)" fill="#c3cdd2"/>
      <path id="Trazado_160657" data-name="Trazado 160657" d="M614.947,94.614q-7.618,0-15.235,0c-1.529,0-2.407-1.1-1.865-2.317a1.708,1.708,0,0,1,1.742-1.018c1.605.012,3.211,0,4.816,0q12.925,0,25.85-.006a1.912,1.912,0,0,1,1.866.823,1.65,1.65,0,0,1-1.547,2.508c-2.522.032-5.046.01-7.568.01Z" transform="translate(-73.819 -59.982)" fill="#080808"/>
      <path id="Trazado_160658" data-name="Trazado 160658" d="M615.066,63.2q-7.716,0-15.431,0c-1.449,0-2.289-1.116-1.777-2.305a1.666,1.666,0,0,1,1.349-1.007,3.54,3.54,0,0,1,.589-.018q15.235,0,30.469,0a3.726,3.726,0,0,1,.782.043,1.658,1.658,0,0,1-.158,3.277,6.355,6.355,0,0,1-.785.013Z" transform="translate(-73.834 -37.006)" fill="#080808"/>
      <path id="Trazado_160659" data-name="Trazado 160659" d="M541.814,122.693c3.767,0,7.535-.007,11.3,0,1.278,0,1.991.714,1.894,1.835-.081.944-.775,1.49-1.948,1.494-3.047.008-6.094,0-9.14,0q-6.585,0-13.17.006a2.036,2.036,0,0,1-1.695-.587,1.52,1.52,0,0,1-.284-1.729,1.72,1.72,0,0,1,1.738-1.027Q536.162,122.7,541.814,122.693Z" transform="translate(-23.237 -83.072)" fill="#080808"/>
      <path id="Trazado_160660" data-name="Trazado 160660" d="M538.624,157.462c-2.619,0-5.238,0-7.857,0-1.313,0-2.082-.639-2.074-1.689s.752-1.642,2.1-1.643q7.808,0,15.616,0c1.294,0,2.115.659,2.1,1.671s-.823,1.658-2.131,1.661C543.8,157.466,541.211,157.462,538.624,157.462Z" transform="translate(-23.291 -106.176)" fill="#080808"/>
      <path id="Trazado_160661" data-name="Trazado 160661" d="M536.922,279.789c2.127,0,4.254-.006,6.381,0a1.669,1.669,0,1,1,.077,3.315q-6.43.038-12.86,0a1.678,1.678,0,0,1-1.831-1.738,1.634,1.634,0,0,1,1.853-1.579C532.668,279.782,534.8,279.789,536.922,279.789Z" transform="translate(-23.287 -198.53)" fill="#0b0b0b"/>
      <path id="Trazado_160662" data-name="Trazado 160662" d="M536.979,185.54c2.094,0,4.189-.006,6.283,0a1.716,1.716,0,0,1,1.94,1.62c.021,1-.771,1.7-1.972,1.7q-6.283.014-12.566,0c-1.224,0-1.981-.67-1.973-1.689s.736-1.634,2-1.637C532.791,185.537,534.885,185.54,536.979,185.54Z" transform="translate(-23.29 -129.262)" fill="#09090a"/>
      <path id="Trazado_160663" data-name="Trazado 160663" d="M536.16,248.362c1.834,0,3.668-.009,5.5,0a1.669,1.669,0,1,1,.039,3.318q-5.6.032-11.2,0a1.672,1.672,0,0,1-1.815-1.751c.042-.965.738-1.56,1.873-1.567C532.426,248.355,534.293,248.363,536.16,248.362Z" transform="translate(-23.284 -175.432)" fill="#0b0b0b"/>
      <path id="Trazado_160664" data-name="Trazado 160664" d="M536.141,216.965c1.834,0,3.668-.006,5.5,0a1.67,1.67,0,1,1,.086,3.318q-5.6.034-11.2,0a1.682,1.682,0,0,1-1.838-1.73,1.646,1.646,0,0,1,1.85-1.59C532.407,216.957,534.274,216.965,536.141,216.965Z" transform="translate(-23.289 -152.357)" fill="#09090a"/>
      <path id="Trazado_160665" data-name="Trazado 160665" d="M674.5,158.084c.2,1.181.433,2.358.609,3.542a21.857,21.857,0,0,1-.923,10.125.99.99,0,0,0-.077.662c-.209.112-.205.311-.206.507l.009-.016c-.241.13-.194.406-.305.6l-.144.336a23.159,23.159,0,1,1-.195-18.853c.1.208.194.414.292.621Zm-16.94,25.474a1.763,1.763,0,0,0,.946-.184c7.664-2.811,12.272-8.267,13.323-16.322.961-7.366-1.725-13.5-7.558-18.142a16.034,16.034,0,0,0-6.9-3.332,16.555,16.555,0,0,0-8.227-.536,19.794,19.794,0,0,0,3.043,39.35A12.877,12.877,0,0,0,657.561,183.558Z" transform="translate(-96.795 -96.637)" fill="#06080a"/>
      <path id="Trazado_160666" data-name="Trazado 160666" d="M799.133,197.742l-.941-2.474.209.008A4.67,4.67,0,0,1,799.133,197.742Z" transform="translate(-221.306 -136.417)" fill="#6a7a80"/>
      <path id="Trazado_160667" data-name="Trazado 160667" d="M798.37,261.671c.112-.2.064-.472.305-.6C798.684,261.326,798.728,261.6,798.37,261.671Z" transform="translate(-221.441 -184.789)" fill="#8b8b8b"/>
      <path id="Trazado_160668" data-name="Trazado 160668" d="M799.5,259.706c0-.2,0-.4.206-.507C799.7,259.4,799.725,259.6,799.5,259.706Z" transform="translate(-222.112 -183.415)" fill="#8b8b8b"/>
      <path id="Trazado_160669" data-name="Trazado 160669" d="M666.775,192.792a12.877,12.877,0,0,1-5.375.833,19.794,19.794,0,0,1-3.043-39.35,16.553,16.553,0,0,1,8.227.537c.351.237.69.491,1.053.707a20.307,20.307,0,0,1,6.937,6.786,20.985,20.985,0,0,1,3.279,13.431,21.423,21.423,0,0,1-5.583,12.668A27.066,27.066,0,0,1,666.775,192.792Zm-3.7-33.651a1.633,1.633,0,0,0-1.608-1.77,11.618,11.618,0,0,0-2.537.189,15.867,15.867,0,0,0-9.09,4.639,1.477,1.477,0,0,0-.443,1.605,1.62,1.62,0,0,0,1.348,1.143,1.779,1.779,0,0,0,1.564-.639,13.392,13.392,0,0,1,5.832-3.282,25.541,25.541,0,0,1,3.491-.447A1.566,1.566,0,0,0,663.074,159.14Z" transform="translate(-106.051 -105.885)" fill="#1594d6"/>
      <path id="Trazado_160670" data-name="Trazado 160670" d="M736.785,195.075a27.064,27.064,0,0,0,5.5-4.388,21.423,21.423,0,0,0,5.583-12.668,20.985,20.985,0,0,0-3.28-13.431,20.3,20.3,0,0,0-6.937-6.786c-.363-.216-.7-.47-1.053-.707a16.031,16.031,0,0,1,6.9,3.332c5.833,4.647,8.519,10.777,7.558,18.142-1.051,8.055-5.659,13.511-13.323,16.322A1.763,1.763,0,0,1,736.785,195.075Z" transform="translate(-175.947 -108.172)" fill="#0066af"/>
      <path id="Trazado_160671" data-name="Trazado 160671" d="M684.63,168.565A1.566,1.566,0,0,1,683.185,170a25.538,25.538,0,0,0-3.491.447,13.392,13.392,0,0,0-5.831,3.282,1.779,1.779,0,0,1-1.564.639,1.621,1.621,0,0,1-1.348-1.143,1.477,1.477,0,0,1,.443-1.605,15.868,15.868,0,0,1,9.09-4.639,11.619,11.619,0,0,1,2.537-.189A1.633,1.633,0,0,1,684.63,168.565Z" transform="translate(-127.664 -115.461)" fill="#f2f2f2"/>
    </g>
  </g>
</svg>
