<svg xmlns="http://www.w3.org/2000/svg" width="114.956" height="89.001" viewBox="0 0 114.956 89.001">
  <g id="Grupo_109548" data-name="Grupo 109548" transform="translate(-3257.544 6829.228)">
    <g id="Grupo_109239" data-name="Grupo 109239" transform="translate(1369.089 -7384.296)">
      <path id="Trazado_160690" data-name="Trazado 160690" d="M2008,616.232c.012-1.19-.428-2.758.163-3.465.613-.734,2.24-.18,3.422-.22a25.719,25.719,0,0,1,2.894.011c.8.064.933-.242.928-.964-.032-4.4-.016-8.8-.016-13.206q0-17.841,0-35.681a7.336,7.336,0,0,1,7.629-7.635q27.627,0,55.254,0a7.332,7.332,0,0,1,7.555,7.593q0,36.9,0,73.795a7.336,7.336,0,0,1-7.555,7.6q-27.685.005-55.37,0a7.333,7.333,0,0,1-7.513-7.521c-.005-2.78-.021-5.561.013-8.341.008-.642-.149-.854-.819-.837-1.93.045-3.862-.01-5.791.031-.645.014-.878-.153-.833-.821.064-.961.035-1.928.046-2.893q10.921,0,21.842-.006c1.566,0,2.213.669,2.223,2.259.006,1.085,0,2.17,0,3.437,3.984-2.789,7.767-5.426,11.531-8.088.578-.409,1.291-.665,1.669-1.329-.05-.315-.342-.385-.55-.531q-5.9-4.138-11.816-8.265c-.233-.163-.413-.471-.834-.365,0,1.107.01,2.217,0,3.326a1.88,1.88,0,0,1-2.116,2.134Q2018.98,616.249,2008,616.232Zm12.96-3.729c2.238.012,4.477.008,6.714.049.574.011.714-.193.7-.73-.031-1.544,0-3.089-.016-4.633a1.894,1.894,0,0,1,.969-1.832,1.815,1.815,0,0,1,2.063.165q9.144,6.4,18.278,12.808a1.836,1.836,0,0,1,0,3.251q-9.121,6.43-18.279,12.808a1.815,1.815,0,0,1-2.063.166,1.894,1.894,0,0,1-.971-1.831c.019-1.544-.014-3.089.016-4.633.01-.538-.129-.741-.7-.731-2.238.041-4.476.037-6.714.049a5.14,5.14,0,0,1-.576-.04c-1.061-.191-1.346.245-1.311,1.3.081,2.428.024,4.861.026,7.292,0,2.945,1.451,4.391,4.406,4.392H2063.9q7.06,0,14.121,0a3.6,3.6,0,0,0,3.487-1.811,3.753,3.753,0,0,0,.619-2.516q0-31.606,0-63.211v-1.265c-.653.8-1.115,1.346-1.56,1.909a9.765,9.765,0,0,1-8.239,3.877c-3.9-.052-7.795.006-11.691-.029a1.017,1.017,0,0,0-1.179.861,9.236,9.236,0,0,1-17.689-.012,1.013,1.013,0,0,0-1.187-.847c-3.859.03-7.719-.041-11.576.032a10.074,10.074,0,0,1-7.852-3.25l-2.05-2.545V610.9c0,1.683,0,1.683,1.746,1.617A1.084,1.084,0,0,0,2020.962,612.5Zm29.65-53.724q-13.727,0-27.455,0a3.757,3.757,0,0,0-4.056,4.033c-.006.7.02,1.391-.008,2.085a1.6,1.6,0,0,0,.421,1.143c1.438,1.765,2.834,3.564,4.267,5.332a5.776,5.776,0,0,0,4.635,2.227c4.093.024,8.187-.006,12.28.024a.876.876,0,0,0,1.023-.741,9.255,9.255,0,0,1,17.785,0,.88.88,0,0,0,1.023.743c4.093-.03,8.186,0,12.28-.024a5.826,5.826,0,0,0,4.709-2.315c1.009-1.268,1.932-2.62,3.053-3.78a5.542,5.542,0,0,0,1.592-4.46c-.139-2.789-1.517-4.266-4.326-4.267Q2064.224,558.776,2050.612,558.778Zm5.558,16.607a5.555,5.555,0,1,0-5.453,5.627A5.656,5.656,0,0,0,2056.17,575.385Z" transform="translate(-82.424)" fill="#070706"/>
      <path id="Trazado_160691" data-name="Trazado 160691" d="M2008.328,740.375q10.978.008,21.956.012a1.88,1.88,0,0,0,2.115-2.134c.013-1.11,0-2.22,0-3.326.421-.107.6.2.834.364q5.913,4.125,11.815,8.265c.208.146.5.216.55.531l-37.267.028Z" transform="translate(-82.75 -124.143)" fill="#3d46c2"/>
      <path id="Trazado_160692" data-name="Trazado 160692" d="M2008.349,764.584l37.267-.028c-.378.664-1.091.92-1.669,1.329-3.764,2.662-7.547,5.3-11.531,8.088,0-1.267.005-2.352,0-3.437-.01-1.59-.657-2.258-2.223-2.259q-10.921,0-21.842.007Q2008.35,766.434,2008.349,764.584Z" transform="translate(-82.765 -144.612)" fill="#3d46c2"/>
      <path id="Trazado_160693" data-name="Trazado 160693" d="M1904.236,800.471c4.942,0,9.885.017,14.827-.018.751-.005.955.185.951.945-.018,2.781.013,2.781-2.8,2.781-9.229,0-18.457-.013-27.685.022-.861,0-1.088-.192-1.07-1.064.054-2.664.011-2.665,2.69-2.665Z" transform="translate(0 -169.392)" fill="#040506"/>
      <path id="Trazado_160694" data-name="Trazado 160694" d="M1947.454,588.67c-3.4,0-6.8-.019-10.193.016-.679.007-.913-.115-.912-.867,0-2.857-.032-2.857,2.845-2.857,6.139,0,12.278.015,18.417-.019.781,0,1.041.144,1.028.986-.039,2.74,0,2.74-2.73,2.74Z" transform="translate(-33.062 -20.623)" fill="#040506"/>
      <path id="Trazado_160695" data-name="Trazado 160695" d="M1899.614,630.567c-3.4,0-6.8-.024-10.193.018-.753.009-.956-.185-.95-.945.018-2.781-.013-2.781,2.8-2.781,6.139,0,12.278.019,18.417-.022.862-.006,1.087.193,1.07,1.065-.053,2.664-.011,2.665-2.69,2.665Z" transform="translate(-0.011 -49.542)" fill="#040506"/>
      <path id="Trazado_160696" data-name="Trazado 160696" d="M1962.761,834.092c-2.509,0-5.019-.019-7.528.013-.646.008-.932-.064-.933-.846,0-2.875-.04-2.875,2.827-2.875,4.285,0,8.571.032,12.856-.026.908-.012,1.059.264,1.044,1.09-.045,2.643-.01,2.643-2.708,2.643Z" transform="translate(-45.454 -190.037)" fill="#040506"/>
      <path id="Trazado_160697" data-name="Trazado 160697" d="M1989.737,702.408c-1.583,0-3.166-.029-4.748.014-.612.017-.756-.171-.769-.77-.062-2.952-.081-2.952,2.859-2.952,2.47,0,4.941.03,7.411-.019.722-.015.888.181.888.891,0,2.835.026,2.835-2.747,2.835Z" transform="translate(-66.097 -99.137)" fill="#040506"/>
      <path id="Trazado_160698" data-name="Trazado 160698" d="M1916.186,586.919c0,1.793,0,1.793-1.8,1.793-1.908,0-1.908,0-1.908-1.915,0-1.793,0-1.793,1.8-1.793C1916.186,585,1916.186,585,1916.186,586.919Z" transform="translate(-16.584 -20.665)" fill="#040506"/>
      <path id="Trazado_160699" data-name="Trazado 160699" d="M1962.331,698.744c1.742,0,1.742,0,1.742,1.734,0,1.973,0,1.973-1.966,1.973-1.742,0-1.742,0-1.742-1.734C1960.365,698.744,1960.365,698.744,1962.331,698.744Z" transform="translate(-49.641 -99.181)" fill="#040506"/>
      <path id="Trazado_160700" data-name="Trazado 160700" d="M1932.338,830.443c1.806,0,1.806,0,1.806,1.786,0,1.922,0,1.922-1.9,1.922-1.806,0-1.806,0-1.806-1.786C1930.436,830.443,1930.436,830.443,1932.338,830.443Z" transform="translate(-28.98 -190.095)" fill="#040506"/>
      <path id="Trazado_160701" data-name="Trazado 160701" d="M2050.3,610.807a10.075,10.075,0,0,0,7.853,3.25c3.857-.073,7.717,0,11.576-.032a1.013,1.013,0,0,1,1.188.847,9.236,9.236,0,0,0,17.689.012,1.017,1.017,0,0,1,1.179-.861c3.9.034,7.795-.023,11.692.029a9.766,9.766,0,0,0,8.239-3.877c.445-.563.908-1.112,1.56-1.909v1.265q0,31.606,0,63.211a3.749,3.749,0,0,1-.619,2.516c-.462-.014-.926-.039-1.388-.039q-26.757,0-53.513,0a5.629,5.629,0,0,1-5.652-5.64c0-1.815,0-3.63.006-5.444,2.238-.012,4.476-.008,6.714-.049.574-.01.714.193.7.731-.03,1.544,0,3.089-.016,4.633a1.893,1.893,0,0,0,.97,1.831,1.816,1.816,0,0,0,2.063-.166q9.145-6.4,18.279-12.808a1.836,1.836,0,0,0,0-3.251q-9.121-6.43-18.278-12.808a1.815,1.815,0,0,0-2.062-.165,1.893,1.893,0,0,0-.969,1.832c.019,1.544-.014,3.089.016,4.633.01.538-.129.741-.7.731-2.238-.041-4.476-.037-6.714-.049q0-18.66,0-37.319C2050.113,611.535,2049.985,611.128,2050.3,610.807Zm44.165,62.556H2105c2.592,0,2.552,0,2.6-2.652.015-.86-.2-1.083-1.071-1.078-7.4.039-14.808.022-22.212.022-2.731,0-2.7,0-2.71,2.767,0,.749.188.966.951.958C2086.524,673.342,2090.5,673.363,2094.469,673.363Zm7.538-7.415h2.773c2.879,0,2.856,0,2.81-2.89-.01-.657-.183-.842-.839-.833-2.5.037-5.005.015-7.509.015-2.961,0-2.944,0-2.808,3.006.025.55.168.724.721.713C2098.772,665.927,2100.39,665.948,2102.007,665.948Z" transform="translate(-111.577 -36.723)" fill="#75b62f"/>
      <path id="Trazado_160702" data-name="Trazado 160702" d="M2075.658,567.043q13.611,0,27.223,0c2.809,0,4.187,1.478,4.326,4.267a5.541,5.541,0,0,1-1.592,4.46c-1.121,1.16-2.044,2.512-3.053,3.78a5.827,5.827,0,0,1-4.709,2.315c-4.093.026-8.187-.006-12.28.024a.879.879,0,0,1-1.023-.743,9.255,9.255,0,0,0-17.784,0,.876.876,0,0,1-1.023.741c-4.093-.03-8.186,0-12.279-.023a5.777,5.777,0,0,1-4.636-2.227c-1.434-1.768-2.829-3.567-4.267-5.332a1.6,1.6,0,0,1-.421-1.143c.029-.694,0-1.39.008-2.085a3.757,3.757,0,0,1,4.056-4.033Q2061.93,567.035,2075.658,567.043Z" transform="translate(-107.47 -8.265)" fill="#dce736"/>
      <path id="Trazado_160703" data-name="Trazado 160703" d="M2045.963,788.474c0,1.815-.01,3.629-.006,5.444a5.629,5.629,0,0,0,5.653,5.64q26.756,0,53.513,0c.463,0,.926.025,1.389.039a3.6,3.6,0,0,1-3.487,1.811q-7.061,0-14.121,0H2048.51c-2.955,0-4.4-1.447-4.406-4.392,0-2.431.055-4.863-.026-7.292-.035-1.05.25-1.487,1.311-1.3A5.15,5.15,0,0,0,2045.963,788.474Z" transform="translate(-107.426 -161.065)" fill="#df8d1b"/>
      <path id="Trazado_160704" data-name="Trazado 160704" d="M2139.1,608.454a5.555,5.555,0,1,1-5.6-5.48A5.657,5.657,0,0,1,2139.1,608.454Zm-7.41.045c0,1.885,0,1.885,1.388,1.886,2.316,0,2.316,0,2.317-1.417,0-2.289,0-2.289-1.561-2.289C2131.695,606.678,2131.695,606.678,2131.695,608.5Z" transform="translate(-165.358 -33.069)" fill="#b86117"/>
      <path id="Trazado_160705" data-name="Trazado 160705" d="M2046.217,610.8c-.318.321-.191.728-.191,1.1q-.005,18.66,0,37.319a1.062,1.062,0,0,1-.115.017c-1.746.067-1.746.067-1.746-1.617V608.254Z" transform="translate(-107.49 -36.714)" fill="#df8d1b"/>
      <path id="Trazado_160706" data-name="Trazado 160706" d="M2164.715,810.156c-3.972,0-7.944-.021-11.916.018-.763.008-.954-.209-.952-.958.009-2.767-.02-2.767,2.711-2.767,7.4,0,14.808.016,22.212-.022.873,0,1.086.218,1.071,1.078-.046,2.651-.006,2.651-2.6,2.651Z" transform="translate(-181.823 -173.515)" fill="#040506"/>
      <path id="Trazado_160707" data-name="Trazado 160707" d="M2205.217,786.226c-1.617,0-3.235-.021-4.852.011-.552.011-.7-.163-.721-.713-.136-3.006-.153-3.006,2.808-3.006,2.5,0,5.006.022,7.509-.015.656-.01.828.176.838.833.046,2.89.069,2.89-2.811,2.89Z" transform="translate(-214.787 -157.001)" fill="#040506"/>
      <path id="Trazado_160708" data-name="Trazado 160708" d="M2139.94,616.759c0-1.82,0-1.82,2.145-1.82,1.563,0,1.563,0,1.561,2.289,0,1.419,0,1.419-2.317,1.417C2139.94,618.644,2139.94,618.644,2139.94,616.759Z" transform="translate(-173.604 -41.329)" fill="#040506"/>
    </g>
  </g>
</svg>
