<svg xmlns="http://www.w3.org/2000/svg" width="100" height="100" viewBox="0 0 100 100">
  <g id="Grupo_109494" data-name="Grupo 109494" transform="translate(5280.071 2011.674)">
    <g id="XMLID_1156_" transform="translate(-5280.071 -2011.674)">
      <path id="XMLID_1446_" d="M97.4,50H14a4,4,0,0,0-4,4v72.461a4,4,0,0,0,4,4H97.4a4,4,0,0,0,4-4V54A4,4,0,0,0,97.4,50Z" transform="translate(-8.047 -40.234)" fill="#fff"/>
      <path id="XMLID_1445_" d="M29.336,50H14a4,4,0,0,0-4,4v72.461a4,4,0,0,0,4,4H97.4a4,4,0,0,0,4-4V54a4,4,0,0,0-4-4H82.07" transform="translate(-8.047 -40.234)" fill="#fff"/>
      <path id="XMLID_1410_" d="M97.4,50H14a4,4,0,0,0-4,4v72.461a4,4,0,0,0,4,4H97.4a4,4,0,0,0,4-4V54A4,4,0,0,0,97.4,50Z" transform="translate(-8.047 -40.234)" fill="#fff"/>
      <rect id="XMLID_1498_" width="72.656" height="46.094" transform="translate(11.328 34.766)" fill="#c9f3ff"/>
      <path id="XMLID_3609_" d="M0,0H14.531V15.039H0Z" transform="translate(25.859 50.195)" fill="#f85316"/>
      <path id="XMLID_2244_" d="M97.4,50H14a4,4,0,0,0-4,4V65.625h91.406V54A4,4,0,0,0,97.4,50Z" transform="translate(-8.047 -40.234)" fill="#75b62f"/>
      <g id="XMLID_2241_" transform="translate(22.07 1.953)">
        <path id="XMLID_2243_" d="M116.906,25.625h0A3.906,3.906,0,0,1,113,21.719V13.906A3.906,3.906,0,0,1,116.906,10h0a3.906,3.906,0,0,1,3.906,3.906v7.813A3.906,3.906,0,0,1,116.906,25.625Z" transform="translate(-113 -10)" fill="#72d8ff"/>
        <path id="XMLID_2242_" d="M338.906,25.625h0a3.906,3.906,0,0,0,3.906-3.906V13.906A3.906,3.906,0,0,0,338.906,10h0A3.906,3.906,0,0,0,335,13.906v7.813A3.906,3.906,0,0,0,338.906,25.625Z" transform="translate(-291.641 -10)" fill="#72d8ff"/>
      </g>
      <path id="XMLID_1443_" d="M16.406,0A16.406,16.406,0,1,1,0,16.406,16.406,16.406,0,0,1,16.406,0Z" transform="translate(65.234 65.234)" fill="#f85316"/>
      <g id="XMLID_416_">
        <path id="XMLID_419_" d="M95.313,69.4V13.77a5.964,5.964,0,0,0-5.957-5.957H75.2V5.859a5.859,5.859,0,0,0-11.719,0V7.813H31.836V5.859a5.859,5.859,0,0,0-11.719,0V7.813H5.957A5.964,5.964,0,0,0,0,13.77V86.23a5.964,5.964,0,0,0,5.957,5.957H32.578a1.953,1.953,0,0,0,0-3.906H5.957A2.053,2.053,0,0,1,3.906,86.23V13.77a2.053,2.053,0,0,1,2.051-2.051h14.16v1.953a5.859,5.859,0,0,0,11.719,0V11.719H63.477v1.953a5.859,5.859,0,0,0,11.719,0V11.719h14.16a2.053,2.053,0,0,1,2.051,2.051v9.668H17.578a1.953,1.953,0,0,0,0,3.906H91.406V66.1a18.258,18.258,0,0,0-5.469-2.311V34.766a1.953,1.953,0,0,0-1.953-1.953H11.328a1.953,1.953,0,0,0-1.953,1.953V80.859a1.953,1.953,0,0,0,1.953,1.953H63.32a18.222,18.222,0,0,0,1.2,5.469H48.2a1.953,1.953,0,0,0,0,3.906H66.622A18.352,18.352,0,1,0,95.313,69.4ZM27.93,13.672a1.953,1.953,0,0,1-3.906,0V5.859a1.953,1.953,0,0,1,3.906,0Zm43.359,0a1.953,1.953,0,0,1-3.906,0V5.859a1.953,1.953,0,0,1,3.906,0ZM81.641,63.281a18.436,18.436,0,0,0-2.674.2H71.406V52.148H82.031V63.286C81.9,63.283,81.771,63.281,81.641,63.281ZM63.485,78.906h-6.61V67.383H67.5v2.561A18.29,18.29,0,0,0,63.485,78.906Zm-50.2-26.758H23.906V63.477H13.281Zm14.531,0H38.438V63.477H27.813Zm29.063,0H67.5V63.477H56.875ZM52.969,63.477H42.344V52.148H52.969Zm3.906-15.234V36.719H67.5V48.242Zm-3.906,0H42.344V36.719H52.969Zm-14.531,0H27.813V36.719H38.438Zm0,19.141V78.906H27.813V67.383Zm3.906,0H52.969V78.906H42.344V67.383ZM82.031,48.242H71.406V36.719H82.031ZM23.906,36.719V48.242H13.281V36.719ZM13.281,67.383H23.906V78.906H13.281ZM81.641,96.094A14.453,14.453,0,1,1,96.094,81.641,14.469,14.469,0,0,1,81.641,96.094Z"/>
        <path id="XMLID_1115_" d="M397.229,391.4l-6.04,6.04-2.688-2.69a1.954,1.954,0,0,0-2.761,2.766l4.067,4.067a1.954,1.954,0,0,0,2.761,0l7.422-7.422a1.952,1.952,0,0,0-2.761-2.761Z" transform="translate(-309.937 -314.5)"/>
        <path id="XMLID_1116_" d="M198.753,452a1.959,1.959,0,1,0,1.382.576A1.943,1.943,0,0,0,198.753,452Z" transform="translate(-158.363 -363.719)"/>
        <path id="XMLID_1120_" d="M43.334,123.334a1.951,1.951,0,1,0-1.381.573A1.965,1.965,0,0,0,43.334,123.334Z" transform="translate(-32.188 -96.563)"/>
      </g>
    </g>
  </g>
</svg>
