<svg xmlns="http://www.w3.org/2000/svg" width="90" height="100" viewBox="0 0 90 100">
  <g id="Grupo_109492" data-name="Grupo 109492" transform="translate(5616.317 2011.108)">
    <g id="votacion" transform="translate(-5656.317 -2027.108)">
      <path id="Trazado_160944" data-name="Trazado 160944" d="M257.667,179.333v-10H224.333V141l-7.945-22.246a6.667,6.667,0,0,1-.388-2.242V96h11.667v20l11.9,16.667h19.762A8.333,8.333,0,0,1,267.667,141v38.333Z" transform="translate(-139.333 -63.333)" fill="#dee4f0"/>
      <path id="Trazado_160945" data-name="Trazado 160945" d="M78,336a6.667,6.667,0,0,1,6.667,6.667V351a9.975,9.975,0,0,1-3.333,7.454v10.88h-30v-11.01A10.208,10.208,0,0,1,48,350.765v-8.1A6.667,6.667,0,0,1,54.667,336Z" transform="translate(-6.333 -253.333)" fill="#dee4f0"/>
      <path id="Trazado_160946" data-name="Trazado 160946" d="M165,371.879l2.955-7.388a1.544,1.544,0,0,0-.342-1.665h0a1.544,1.544,0,0,0-2.018-.143l-5.6,4.2Z" transform="translate(-95 -274.213)" fill="#ffceb6"/>
      <path id="Trazado_160947" data-name="Trazado 160947" d="M110.667,287h0A6.667,6.667,0,0,1,104,280.333V277l5-5h8.333v8.333A6.667,6.667,0,0,1,110.667,287Z" transform="translate(-50.667 -202.667)" fill="#ffceb6"/>
      <path id="Trazado_160948" data-name="Trazado 160948" d="M117.333,246.667l1.625-.813a3.09,3.09,0,0,0,1.708-2.764h0a3.09,3.09,0,0,0-3.09-3.09h-6.91A6.667,6.667,0,0,0,104,246.667v5l5-5Z" transform="translate(-50.667 -177.333)" fill="#c47220"/>
      <path id="Trazado_160949" data-name="Trazado 160949" d="M84.35,371.879,81.4,364.491a1.544,1.544,0,0,1,.342-1.665h0a1.544,1.544,0,0,1,2.018-.143l7.5,5.626Z" transform="translate(-32.684 -274.213)" fill="#ffceb6"/>
      <path id="Trazado_160957" data-name="Trazado 160957" d="M0,0H33.333V10H0Z" transform="translate(85 106)" fill="#3d46c2"/>
      <path id="Trazado_160950" data-name="Trazado 160950" d="M326.667,312,330,327l-5,5-5-5,3.333-15Z" transform="translate(-221.667 -234.333)" fill="#f85316"/>
      <path id="Trazado_160951" data-name="Trazado 160951" d="M329.667,286.667,328,283.333,331.333,280l3.333,3.333L333,286.667Z" transform="translate(-228 -209)" fill="#e04f2b"/>
      <path id="Trazado_160952" data-name="Trazado 160952" d="M216,39V27.333A3.333,3.333,0,0,1,219.333,24H226v6.667L229.333,29,231,30.667,227.667,39Z" transform="translate(-139.333 -6.333)" fill="#ffceb6"/>
      <path id="Trazado_160953" data-name="Trazado 160953" d="M318.667,223h0A6.667,6.667,0,0,1,312,216.333V213l5-5h8.333v8.333A6.667,6.667,0,0,1,318.667,223Z" transform="translate(-215.333 -152)" fill="#ffceb6"/>
      <path id="Trazado_160954" data-name="Trazado 160954" d="M325.333,182.667l1.625-.813a3.09,3.09,0,0,0,1.708-2.764h0a3.09,3.09,0,0,0-3.09-3.09h-6.91A6.667,6.667,0,0,0,312,182.667v5l5-5Z" transform="translate(-215.333 -126.667)" fill="#c47220"/>
      <path id="Trazado_160955" data-name="Trazado 160955" d="M71.667,252H67.635a8.282,8.282,0,0,0,.7-3.333v-7.3l.7-.352A4.757,4.757,0,0,0,66.91,232H60a8.343,8.343,0,0,0-8.333,8.333v8.333a8.282,8.282,0,0,0,.7,3.333H48.333A8.343,8.343,0,0,0,40,260.333v8.1a11.857,11.857,0,0,0,3.333,8.247V287h3.333v-7.883a11.889,11.889,0,0,0,11.836-.783l1.735-1.156,1.1.822a11.739,11.739,0,0,0,7,2.333,11.6,11.6,0,0,0,5-1.128V287h3.333V276.82A11.626,11.626,0,0,0,80,268.667v-8.333A8.343,8.343,0,0,0,71.667,252ZM60,253.667a5.006,5.006,0,0,1-5-5v-2.643L59.024,242H65v6.667a5.006,5.006,0,0,1-5,5Zm0-18.333h6.91a1.423,1.423,0,0,1,.637,2.7l-1.273.637h-7.94a1.667,1.667,0,0,0-1.179.488L55,241.31v-.976A5.006,5.006,0,0,1,60,235.333Zm16.667,33.333a8.333,8.333,0,0,1-13.333,6.667l-.155-.116,7.746-5.164a1.666,1.666,0,0,0,.623-.768L74.5,261.9a3.211,3.211,0,0,0-4.907-3.761l-5.4,4.053L60.6,263.538l-3.09-1.324-5.436-4.077a3.211,3.211,0,0,0-4.907,3.761L49.2,267H46.667v3.333h5v0a1.658,1.658,0,0,0,.585-.1L64.58,265.6l2.8,2.8-10.73,7.153a8.568,8.568,0,0,1-13.321-7.129v-8.1a5.006,5.006,0,0,1,5-5H55v0a8.315,8.315,0,0,0,10,0v0h6.667a5.006,5.006,0,0,1,5,5ZM69.391,265.7l-1.854-1.854,3.708-2.781Zm-18.97-4.635L55.667,265a1.663,1.663,0,0,0,.343.2l.074.032-3.476,1.3Z" transform="translate(0 -171)"/>
      <path id="Trazado_160956" data-name="Trazado 160956" d="M253,67.667h-9.031a8.283,8.283,0,0,0,.7-3.333v-7.3l.7-.352a4.757,4.757,0,0,0-2.127-9.011h-6.91A8.343,8.343,0,0,0,228,56v3.133l-5-7V32.988l3.214-8.035a1.667,1.667,0,0,0-.369-1.8l-1.667-1.667a1.667,1.667,0,0,0-1.924-.312l-.921.461v-3.97A1.667,1.667,0,0,0,219.667,16H213a5.006,5.006,0,0,0-5,5V53.179a8.314,8.314,0,0,0,.485,2.8l7.848,21.974V116h3.333v-8.333h30V116H253V87.667h-3.333v16.667h-30V77.667a1.666,1.666,0,0,0-.1-.561L211.625,54.86a4.988,4.988,0,0,1-.291-1.682V34.333h8.333V52.667a1.667,1.667,0,0,0,.31.969L228.021,64.9a8.348,8.348,0,0,0,4.984,7.074l-4.517,4.517,2.357,2.357,1.7-1.7.368.736-3.2,14.422a1.667,1.667,0,0,0,.448,1.54l5,5a1.667,1.667,0,0,0,2.357,0l5-5a1.667,1.667,0,0,0,.448-1.54l-3.2-14.422.368-.736,1.7,1.7,2.357-2.357-4.517-4.517A8.34,8.34,0,0,0,241.333,71v0H253a6.674,6.674,0,0,1,6.667,6.667V116H263V77.667A10.011,10.011,0,0,0,253,67.667ZM220.2,31h-8.872V21A1.669,1.669,0,0,1,213,19.333h5v5a1.667,1.667,0,0,0,2.412,1.491l2.259-1.129.04.04Zm16.128,20h6.91a1.423,1.423,0,0,1,.637,2.7l-1.273.637h-7.94a1.667,1.667,0,0,0-1.179.488l-2.155,2.155V56A5.006,5.006,0,0,1,236.333,51Zm0,44.31-3.175-3.175L236,79.333h.659l2.845,12.8ZM236.97,76H235.7l-.669-1.338,1.305-1.305,1.305,1.305Zm-.637-6.667a5.006,5.006,0,0,1-5-5V61.69l4.024-4.024h5.976v6.667A5.006,5.006,0,0,1,236.333,69.333Z" transform="translate(-133)"/>
    </g>
  </g>
</svg>
