<svg xmlns="http://www.w3.org/2000/svg" width="106.599" height="120.872" viewBox="0 0 106.599 120.872">
  <g id="Grupo_109552" data-name="Grupo 109552" transform="translate(-4269.157 6829.228)">
    <g id="Grupo_109243" data-name="Grupo 109243" transform="translate(4269.157 -6829.228)">
      <path id="Trazado_160778" data-name="Trazado 160778" d="M627.545,571.97c3.066.012,6.135.115,9.2.016A11.659,11.659,0,0,1,648.7,583.743q.1,14.8,0,29.608a11.587,11.587,0,0,1-12.022,11.788c-9.712,0-19.425-.111-29.134.042a11.852,11.852,0,0,1-12.078-12.021c.007-1.723-.007-1.723-1.7-1.723H556.486c-4.342,0-6.554-2.161-6.525-6.48.006-.883-.2-1.166-1.091-1.081a6.032,6.032,0,0,1-4.547-1.188,5.658,5.658,0,0,1-2.156-4.63q-.01-35.8-.01-71.6a2.916,2.916,0,0,1,.917-2.2q9.576-9.525,19.122-19.079c.3-.3.611-.576.917-.864h1.416a2.561,2.561,0,0,1,1.187,1.881c-.021.43-.061.86-.061,1.29,0,4.678,0,9.357-.005,14.035-.008,3.886-2.275,6.156-6.133,6.158-4.167,0-8.335.046-12.5-.031-1.082-.02-1.249.31-1.248,1.3q.043,34.2.024,68.406a10.028,10.028,0,0,0,.038,1.177,1.636,1.636,0,0,0,1.407,1.631l.3.112c.429.021.858.06,1.288.06q19.3,0,38.6,0c1.411,0,2.822-.027,4.233-.042.941.016,1.887-.018,2.823.064.839.074,1.044-.226,1.037-1.042-.038-4.714.075-9.431-.045-14.143-.118-4.644,1.4-8.432,5.172-11.238A13.209,13.209,0,0,1,608.1,572c1.988.078,3.983-.01,5.975-.025a22.324,22.324,0,0,1,2.586.064c1.1.149,1.253-.311,1.252-1.294q-.044-30.05-.022-60.1c0-.275.008-.55-.008-.825a1.905,1.905,0,0,0-1.918-1.96c-.782-.04-1.569.014-2.353.026-.431-.013-.862-.037-1.293-.037q-19.794,0-39.589.013c-1.148,0-2-.279-2.37-1.456a2.312,2.312,0,0,1,1.015-2.1H617.15a7.346,7.346,0,0,1,3.218,2.165,5.765,5.765,0,0,1,1.1,4.106c-.1,1.087.3,1.353,1.305,1.261a5.641,5.641,0,0,1,5.093,1.854,5.062,5.062,0,0,1,1.341,3.182c.014.392.037.785.037,1.177q0,23.341,0,46.683c0,1.806-.239,2.161-1.711,2.613-1.538-.414-1.869-.847-1.869-2.5q0-22.744,0-45.489c0-.707.036-1.417-.017-2.121a1.826,1.826,0,0,0-1.783-1.829,12.175,12.175,0,0,0-1.527.022l-.7.023c-.411.243-.187.638-.188.948q-.02,27.294,0,54.589c0,.317-.2.71.2.96l1.161.026Zm-69.86-47.875c.666.013,1.333.042,2,.036a2.1,2.1,0,0,0,2.4-2.367c.032-1.609.007-3.22.008-4.83v-6.252l-3.963,3.71-9.388,9.7Zm33.973,79.825c-4.164-.012-8.327-.032-12.491-.035q-12.257-.008-24.514.009c-.356,0-.817-.227-1.067.208-.615,1.069.247,3.15,1.467,3.593.458.339.987.185,1.481.185q17.961.012,35.923,0c3.115,0,3.115,0,3.048-3.129a1.455,1.455,0,0,1,0-.235c.075-.529-.172-.676-.672-.656C593.776,603.906,592.717,603.9,591.658,603.919Zm45.554-28.3c-.274-.014-.548-.041-.822-.041-9.667,0-19.335.074-29-.038a8.194,8.194,0,0,0-8.357,8.183q-.112,14.855,0,29.711a7.986,7.986,0,0,0,6.607,8.006,22.622,22.622,0,0,0,4.93.151c8.88.011,17.761-.015,26.641-.027a7.434,7.434,0,0,0,5.312-2.106,8.456,8.456,0,0,0,2.644-6.661q-.006-13.8-.009-27.6a26.135,26.135,0,0,0-.169-2.938A7.907,7.907,0,0,0,637.213,575.615Z" transform="translate(-542.157 -504.31)" fill="#0a0b0d"/>
      <path id="Trazado_160779" data-name="Trazado 160779" d="M614.278,506.191a2.561,2.561,0,0,0-1.187-1.881h6.843a2.312,2.312,0,0,0-1.015,2.1C617.391,505.936,615.822,506.321,614.278,506.191Z" transform="translate(-590.72 -504.31)" fill="#fff"/>
      <path id="Trazado_160780" data-name="Trazado 160780" d="M801.6,596.025l-4.743.01q.007-26.6.023-53.2a8.692,8.692,0,0,0-.488-3.345,12.163,12.163,0,0,1,1.527-.022A1.826,1.826,0,0,1,799.7,541.3c.053.7.017,1.414.017,2.121q0,22.744,0,45.489c0,1.653.331,2.086,1.869,2.5Q801.593,593.715,801.6,596.025Z" transform="translate(-716.21 -528.365)" fill="#bbdff1"/>
      <path id="Trazado_160781" data-name="Trazado 160781" d="M573.553,510.22c1.544.13,3.113-.255,4.641.219.366,1.176,1.222,1.457,2.37,1.456q19.794-.033,39.589-.013c.431,0,.862.024,1.293.037a10.07,10.07,0,0,1,.487,2.165q-.029,30.961-.023,61.923c-1.992.014-3.987.1-5.975.025a13.21,13.21,0,0,0-7.459,1.923,5.2,5.2,0,0,0-1.733.217,9.764,9.764,0,0,0-7.238,9.9q0,8.119-.015,16.238c-1.411.015-2.822.042-4.233.042q-19.3.005-38.6,0c-.429,0-.859-.039-1.288-.06l-.3-.112a1.636,1.636,0,0,1-1.407-1.631,10.041,10.041,0,0,1-.037-1.177q0-34.2-.024-68.406c0-.986.166-1.316,1.248-1.3,4.166.077,8.333.033,12.5.031,3.858,0,6.126-2.271,6.133-6.158.009-4.678,0-9.357.005-14.035C573.492,511.08,573.531,510.65,573.553,510.22Zm18.973,19.838c2.748,0,5.5.011,8.245,0a5.645,5.645,0,1,0,.17-11.288c-5.575-.06-11.151-.068-16.726.007a5.641,5.641,0,0,0,.183,11.281C587.107,530.072,589.816,530.058,592.525,530.058Zm-2.8,11.464q-11.8,0-23.591,0a9.065,9.065,0,0,0-1.177.036,1.636,1.636,0,0,0-1.529,1.66,1.6,1.6,0,0,0,1.292,1.732,5.209,5.209,0,0,0,1.279.138q23.709.01,47.418.008a3.617,3.617,0,0,0,1.508-.2A1.655,1.655,0,0,0,616,543.119a1.608,1.608,0,0,0-1.389-1.532,7.529,7.529,0,0,0-1.292-.062Q601.526,541.52,589.73,541.522Zm-.063,14.023H613.38a7.241,7.241,0,0,0,1.061-.018,1.669,1.669,0,0,0,1.56-1.638,1.7,1.7,0,0,0-1.455-1.855,4.472,4.472,0,0,0-1.058-.032H565.943a4.66,4.66,0,0,0-1.058.032,1.7,1.7,0,0,0-1.452,1.748,1.676,1.676,0,0,0,1.578,1.745,7.561,7.561,0,0,0,1.061.018Zm-8.7,10.536q7.432,0,14.865-.005a6.1,6.1,0,0,0,1.4-.125,1.731,1.731,0,0,0-.063-3.375,5.727,5.727,0,0,0-1.171-.087q-14.983-.007-29.965,0a6.578,6.578,0,0,0-1.173.074,1.736,1.736,0,0,0-.043,3.409,6.059,6.059,0,0,0,1.286.105Q573.532,566.087,580.964,566.081Zm-5.126,20.972c3.494,0,6.988.017,10.481-.009a1.865,1.865,0,0,0,2.064-1.787c0-1.008-.836-1.73-2.073-1.8-.2-.01-.393,0-.589,0q-9.834,0-19.668.006a4.975,4.975,0,0,0-1.395.141,1.708,1.708,0,0,0-.926,2.65,2.145,2.145,0,0,0,1.976.8Q570.774,587.051,575.838,587.054ZM575.913,573q-5.122,0-10.245,0c-1.431,0-2.283.69-2.254,1.8.028,1.081.845,1.732,2.211,1.733q10.245.005,20.49,0c1.43,0,2.291-.7,2.263-1.809-.027-1.076-.85-1.726-2.221-1.728Q581.035,572.995,575.913,573Zm33.755-10.514c-1.415,0-2.831-.019-4.246.005-1.285.022-2.089.694-2.131,1.72-.042,1.054.808,1.847,2.123,1.86q4.245.044,8.492,0c1.356-.014,2.149-.755,2.116-1.853-.032-1.052-.8-1.7-2.108-1.727C612.5,562.465,611.083,562.486,609.668,562.486Z" transform="translate(-549.995 -508.338)" fill="#dce736"/>
      <path id="Trazado_160782" data-name="Trazado 160782" d="M760.559,776.171c-8.88.013-17.761.038-26.641.027a22.623,22.623,0,0,1-4.93-.151,7.986,7.986,0,0,1-6.607-8.006q-.089-14.855,0-29.711a8.194,8.194,0,0,1,8.357-8.183c9.666.112,19.334.036,29,.039.274,0,.548.027.822.041a9.906,9.906,0,0,1,4.016,8.087c-.022,9.613-.072,19.228.025,28.84A10.585,10.585,0,0,1,760.559,776.171Zm-7.728-13.1h.06c0-1.062-.01-2.124,0-3.186.024-2.146-.253-1.843,1.787-1.812a5.1,5.1,0,0,0,3.276-1.062,6.2,6.2,0,0,0,.929-9.04c-2.853-3.341-5.556-6.813-8.281-10.262a6.38,6.38,0,0,0-10.3-.049c-2.46,3.109-4.971,6.176-7.428,9.287a10.627,10.627,0,0,0-2.291,3.515c-1.044,3.6,2.107,8.059,5.9,7.578,1.3-.165,1.539.375,1.5,1.546-.085,2.475-.054,4.955-.018,7.433a3.994,3.994,0,0,0,4.258,4.274c2.241.019,4.484.026,6.725-.009a3.725,3.725,0,0,0,3.866-3.615C752.919,766.141,752.831,764.6,752.831,763.069Z" transform="translate(-665.508 -658.923)" fill="#dce736"/>
      <path id="Trazado_160783" data-name="Trazado 160783" d="M769.176,579.663q.005-30.962.023-61.923a10.056,10.056,0,0,0-.487-2.165c.785-.012,1.572-.065,2.353-.026a1.905,1.905,0,0,1,1.918,1.96c.016.274.008.55.008.825q0,30.05.022,60.1c0,.982-.152,1.442-1.251,1.294A22.3,22.3,0,0,0,769.176,579.663Z" transform="translate(-697.261 -511.995)" fill="#bee4f8"/>
      <path id="Trazado_160784" data-name="Trazado 160784" d="M843.541,776.334a10.585,10.585,0,0,0,4.046-9.017c-.1-9.613-.047-19.227-.025-28.84a9.906,9.906,0,0,0-4.016-8.087,7.907,7.907,0,0,1,7.773,6.635,26.162,26.162,0,0,1,.169,2.938q.018,13.8.009,27.6a8.455,8.455,0,0,1-2.644,6.661A7.434,7.434,0,0,1,843.541,776.334Z" transform="translate(-748.49 -659.086)" fill="#75b62f"/>
      <path id="Trazado_160785" data-name="Trazado 160785" d="M579.421,823.74c-1.22-.443-2.082-2.524-1.467-3.593.25-.436.711-.208,1.067-.208q12.257-.02,24.515-.009c4.164,0,8.327.023,12.491.035.006.9-.035,1.809.033,2.707.064.852-.286,1.054-1.084,1.049-5.1-.03-10.2-.019-15.306-.014Q589.545,823.717,579.421,823.74Z" transform="translate(-566.525 -720.355)" fill="#e3f3fd"/>
      <path id="Trazado_160786" data-name="Trazado 160786" d="M699.091,751.4q.008-8.119.015-16.238a9.764,9.764,0,0,1,7.238-9.9,5.2,5.2,0,0,1,1.733-.217c-3.768,2.806-5.289,6.594-5.172,11.238.12,4.711.007,9.429.045,14.143.007.816-.2,1.116-1.037,1.042C700.978,751.382,700.032,751.416,699.091,751.4Z" transform="translate(-649.597 -655.426)" fill="#bbdff1"/>
      <path id="Trazado_160787" data-name="Trazado 160787" d="M794.865,539.583a8.693,8.693,0,0,1,.488,3.345q-.029,26.6-.023,53.2l-1.161-.026-.006-56.5Z" transform="translate(-714.685 -528.459)" fill="#e3f3fd"/>
      <path id="Trazado_160788" data-name="Trazado 160788" d="M571.986,545.982h-8.94l9.388-9.7c.009,2.516.005,5.033.037,7.55A4.365,4.365,0,0,1,571.986,545.982Z" transform="translate(-556.458 -526.197)" fill="#bee4f8"/>
      <path id="Trazado_160789" data-name="Trazado 160789" d="M591.393,537.93a4.366,4.366,0,0,0,.484-2.153c-.031-2.516-.027-5.033-.037-7.55l3.963-3.71v6.252c0,1.61.025,3.221-.008,4.83a2.1,2.1,0,0,1-2.4,2.367C592.726,537.972,592.059,537.943,591.393,537.93Z" transform="translate(-575.865 -518.145)" fill="#8acce6"/>
      <path id="Trazado_160790" data-name="Trazado 160790" d="M583.047,823.8q10.124-.017,20.248-.033c5.1-.005,10.2-.016,15.306.014.8,0,1.149-.2,1.084-1.049-.068-.9-.027-1.8-.033-2.707,1.058-.016,2.118-.013,3.175-.056.5-.02.747.127.672.656a1.469,1.469,0,0,0,0,.235c.068,3.127.068,3.128-3.047,3.129q-17.962,0-35.923,0C584.034,823.983,583.505,824.137,583.047,823.8Z" transform="translate(-570.151 -720.413)" fill="#afcad9"/>
      <path id="Trazado_160791" data-name="Trazado 160791" d="M793.624,539.656l.006,56.5c-.4-.25-.2-.643-.2-.96q-.018-27.294,0-54.589C793.437,540.294,793.214,539.9,793.624,539.656Z" transform="translate(-714.147 -528.509)" fill="#bbdff1"/>
      <path id="Trazado_160792" data-name="Trazado 160792" d="M558.259,808.21l.3.112Z" transform="translate(-553.181 -712.366)" fill="#bbdff1"/>
      <path id="Trazado_160793" data-name="Trazado 160793" d="M646.977,548.567c-2.709,0-5.419.013-8.128,0a5.641,5.641,0,0,1-.183-11.281c5.575-.075,11.151-.067,16.726-.007a5.645,5.645,0,1,1-.17,11.288C652.473,548.578,649.725,548.567,646.977,548.567Zm-8.824-7.561a1.941,1.941,0,0,0-1.431,2.326,2.011,2.011,0,0,0,2.084,1.68c4.735.006,9.469-.016,14.2-.027.783.014,1.566.033,2.349.038a2,2,0,0,0,1.883-1.175c.765-1.49-.322-3.032-2.2-3.041-5.333-.026-10.666-.011-16-.011A1.215,1.215,0,0,0,638.153,541.006Z" transform="translate(-604.446 -526.847)" fill="#05080b"/>
      <path id="Trazado_160794" data-name="Trazado 160794" d="M611.058,609.528q11.8,0,23.591,0a7.536,7.536,0,0,1,1.292.062,1.608,1.608,0,0,1,1.389,1.532,1.655,1.655,0,0,1-1.073,1.782,3.619,3.619,0,0,1-1.508.2q-23.709-.005-47.418-.008a5.206,5.206,0,0,1-1.279-.138,1.6,1.6,0,0,1-1.292-1.732,1.636,1.636,0,0,1,1.529-1.66,9.075,9.075,0,0,1,1.177-.036Q599.262,609.527,611.058,609.528Z" transform="translate(-571.322 -576.344)" fill="#0d0e0f"/>
      <path id="Trazado_160795" data-name="Trazado 160795" d="M611,646.264H587.4a7.58,7.58,0,0,1-1.061-.018,1.676,1.676,0,0,1-1.578-1.745,1.7,1.7,0,0,1,1.452-1.748,4.647,4.647,0,0,1,1.058-.033H634.82a4.473,4.473,0,0,1,1.058.032,1.7,1.7,0,0,1,1.455,1.855,1.67,1.67,0,0,1-1.56,1.639,7.258,7.258,0,0,1-1.061.018Z" transform="translate(-571.327 -599.057)" fill="#060607"/>
      <path id="Trazado_160796" data-name="Trazado 160796" d="M602.285,679.594q-7.432,0-14.865,0a6.052,6.052,0,0,1-1.286-.105,1.736,1.736,0,0,1,.043-3.409A6.578,6.578,0,0,1,587.35,676q14.982-.006,29.965,0a5.726,5.726,0,0,1,1.171.087,1.731,1.731,0,0,1,.063,3.375,6.109,6.109,0,0,1-1.4.125Q609.717,679.6,602.285,679.594Z" transform="translate(-571.315 -621.851)" fill="#151718"/>
      <path id="Trazado_160797" data-name="Trazado 160797" d="M597.124,746.092q-5.064,0-10.128,0a2.145,2.145,0,0,1-1.976-.8,1.708,1.708,0,0,1,.926-2.65,4.979,4.979,0,0,1,1.395-.141q9.834-.012,19.668-.006c.2,0,.393-.008.589,0,1.237.065,2.069.787,2.073,1.8a1.865,1.865,0,0,1-2.064,1.787C604.111,746.108,600.617,746.091,597.124,746.092Z" transform="translate(-571.28 -667.375)" fill="#151718"/>
      <path id="Trazado_160798" data-name="Trazado 160798" d="M597.205,709.337q5.122,0,10.245,0c1.37,0,2.193.651,2.221,1.728.028,1.111-.833,1.809-2.263,1.809q-10.245,0-20.49,0c-1.367,0-2.183-.653-2.211-1.733-.029-1.113.823-1.8,2.254-1.8Q592.083,709.332,597.205,709.337Z" transform="translate(-571.287 -644.675)" fill="#060607"/>
      <path id="Trazado_160799" data-name="Trazado 160799" d="M717.522,675.983c1.415,0,2.831-.021,4.246.006,1.311.024,2.076.675,2.108,1.727.033,1.1-.76,1.839-2.115,1.853q-4.245.044-8.492,0c-1.315-.014-2.165-.806-2.123-1.86.041-1.026.845-1.7,2.131-1.72C714.691,675.964,716.107,675.983,717.522,675.983Z" transform="translate(-657.849 -621.835)" fill="#151718"/>
      <path id="Trazado_160800" data-name="Trazado 160800" d="M770.3,773.747c0,1.533.089,3.072-.021,4.6a3.725,3.725,0,0,1-3.867,3.615c-2.241.035-4.483.028-6.725.009a3.994,3.994,0,0,1-4.258-4.274c-.036-2.478-.068-4.958.018-7.433.04-1.171-.2-1.711-1.5-1.546-3.79.481-6.941-3.974-5.9-7.578a10.629,10.629,0,0,1,2.291-3.515c2.457-3.11,4.969-6.178,7.428-9.287a6.38,6.38,0,0,1,10.3.049c2.726,3.449,5.428,6.92,8.281,10.262a6.2,6.2,0,0,1-.93,9.04,5.1,5.1,0,0,1-3.276,1.062c-2.04-.03-1.762-.333-1.787,1.813-.012,1.062,0,2.124,0,3.186Zm-7.38,4.653c1.02.02,2.04.023,3.059.066.6.026.861-.223.856-.821q-.048-5.3-.079-10.6a2,2,0,0,1,1.952-1.828c.429-.023.858-.038,1.286-.056.548.016,1.1.013,1.642.054a2.383,2.383,0,0,0,2.522-1.343,2.493,2.493,0,0,0-.462-2.83c-2.854-3.535-5.684-7.089-8.543-10.62a2.693,2.693,0,0,0-4.338-.1c-1.241,1.515-2.489,3.024-3.72,4.547-1.679,2.075-3.36,4.149-5.01,6.248a2.507,2.507,0,0,0-.421,2.854,2.394,2.394,0,0,0,2.36,1.244c.825-.01,1.65,0,2.476,0,1.906.009,2.465.554,2.469,2.438.006,3.223.024,6.445-.013,9.667-.01.856.24,1.23,1.141,1.157C761.035,778.394,761.98,778.419,762.921,778.4Z" transform="translate(-682.979 -669.601)" fill="#05080b"/>
      <path id="Trazado_160803" data-name="Trazado 160803" d="M777.672,775.077c-.429.018-.858.033-1.286.056a2,2,0,0,0-1.952,1.829c-.351.009-.7.023-1.052.025-2.1.008-2.772.683-2.774,2.791q0,4.272-.009,8.544c-.941.019-1.886-.007-2.823.069-.9.073-1.151-.3-1.141-1.157.036-3.222.019-6.445.013-9.667,0-1.884-.562-2.429-2.469-2.438-.825,0-1.651-.009-2.476,0a2.393,2.393,0,0,1-2.36-1.244,2.507,2.507,0,0,1,.421-2.854c1.649-2.1,3.331-4.173,5.01-6.248,1.232-1.522,2.479-3.031,3.72-4.547a3.074,3.074,0,0,1,1.949,1.41c2.041,2.464,3.975,5.021,6.089,7.42C778.149,770.9,778.682,772.808,777.672,775.077Z" transform="translate(-690.655 -679.522)" fill="#f85316"/>
      <path id="Trazado_160804" data-name="Trazado 160804" d="M798.142,772.806c1.01-2.269.477-4.174-1.142-6.011-2.113-2.4-4.048-4.955-6.089-7.42a3.073,3.073,0,0,0-1.949-1.41,2.693,2.693,0,0,1,4.338.1c2.859,3.531,5.689,7.085,8.543,10.62a2.493,2.493,0,0,1,.462,2.83,2.383,2.383,0,0,1-2.522,1.343C799.238,772.819,798.69,772.823,798.142,772.806Z" transform="translate(-711.125 -677.251)" fill="#f85316"/>
      <path id="Trazado_160805" data-name="Trazado 160805" d="M795.637,824.629q0-4.272.009-8.544c0-2.108.674-2.783,2.774-2.791.351,0,.7-.016,1.052-.025q.038,5.3.079,10.6c.005.6-.253.846-.856.821C797.677,824.652,796.657,824.649,795.637,824.629Z" transform="translate(-715.694 -715.829)" fill="#f85316"/>
    </g>
  </g>
</svg>
