<svg xmlns="http://www.w3.org/2000/svg" width="91.847" height="100" viewBox="0 0 91.847 100">
  <g id="Grupo_109553" data-name="Grupo 109553" transform="translate(-4524.549 6809.505)">
    <g id="Grupo_109244" data-name="Grupo 109244" transform="translate(4524.549 -6809.505)">
      <path id="Trazado_160806" data-name="Trazado 160806" d="M1067.84,599.285a6.309,6.309,0,0,0-2-.552,15.877,15.877,0,0,1-6.7-3.8,2.028,2.028,0,0,0-1.542-.594q-23.233.02-46.466.01c-2.51,0-3.327-.831-3.362-3.317-.013-.928.427-2.165-.2-2.7-.537-.456-1.735-.151-2.64-.155-2.444-.01-3.25-.817-3.25-3.285q0-26.652.022-53.3c0-.9-.239-1.2-1.111-1.081a7.546,7.546,0,0,1-1.267.008,2.437,2.437,0,0,1-2.581-2.561q-.021-13.082,0-26.163a2.377,2.377,0,0,1,2.6-2.509q9.762-.008,19.524,0a2.376,2.376,0,0,1,2.672,2.618c-.018.822.388.758.94.758q22.11-.012,44.221-.01a3.247,3.247,0,0,1,2.29.627,2.29,2.29,0,0,1,.837,1.794c0,1.041.027,2.083,0,3.124-.01.463.142.632.612.619.975-.027,1.953-.031,2.928,0a2.421,2.421,0,0,1,2.565,2.476c.028.356.014.715.014,1.073q0,27.433-.016,54.866a1.406,1.406,0,0,0,.943,1.515,15.645,15.645,0,0,1,8.589,9.911c.35,1.142.118,1.625-.991,2.16-1.273-.048-1.484-.23-1.971-1.7-1.592-4.816-6.259-8.581-10.865-8.766a8.17,8.17,0,0,0-4.049.092c-5.438,1.261-8.945,4.622-10.234,10.054a12.812,12.812,0,0,0,5.33,13.5,11.941,11.941,0,0,0,8.742,2.2,8.312,8.312,0,0,0,1.251-.109,12.92,12.92,0,0,0,10.13-9.728c.279-1.02.751-1.608,1.815-1.663,1.184.553,1.449,1.077,1.066,2.4-1.957,6.765-6.383,10.806-13.341,12.035-.076.013-.138.105-.206.161Zm-57.613-78.871a8.67,8.67,0,0,1-2.618-.108,2.624,2.624,0,0,0-1.96.212,10.347,10.347,0,0,0-5.4,6.191c-.284.792-.085.907.677.9,5.109-.028,10.218-.014,15.328-.013.521,0,1.041,0,1.562,0,.569,0,.487-.272.236-.6a9.907,9.907,0,0,0-4.465-5.975A3.413,3.413,0,0,0,1010.227,520.414Zm-5.845-13.1c.218-.137.438-.271.653-.412a7.4,7.4,0,0,1,10.342,2.163c1.787,2.762,1.521,5.924-.78,9.113a13.562,13.562,0,0,1,4.027,3.446c0-6.465-.005-12.7.01-18.926,0-.5-.258-.487-.607-.486q-6.827.023-13.654.035c-1.267-.01-2.537.022-3.8-.048-.719-.04-.915.147-.91.892.036,5.854.018,11.708.025,17.562,0,.241-.1.507.126.789a13.58,13.58,0,0,1,3.925-3.293,7.453,7.453,0,0,1-1.91-3.933A7.6,7.6,0,0,1,1004.382,507.317Zm13.073,83.972c.258.019.516.053.774.053q18.549,0,37.1,0c.255,0,.509-.023.751-.035.017-.073.039-.111.029-.136a5.007,5.007,0,0,0-.213-.526,15.687,15.687,0,0,1-1.33-11.25,15.951,15.951,0,0,1,17.337-12.047c.866.1,1.071.018,1.07-.895q-.043-26.8,0-53.6c0-.886-.217-1.1-1.1-1.1q-19.281.046-38.563.021c-1.406,0-1.791-.275-2.185-1.542.3-1.148,1.083-1.427,2.2-1.423,10.509.03,21.017.018,31.526.018,2.023,0,1.96,0,2.047-2.025.042-.993-.3-1.14-1.2-1.138q-20.887.043-41.774.02c-2.551,0-2.537,0-2.383,2.55.028.473.179.612.632.6,1.04-.025,2.085.045,3.122-.022a1.777,1.777,0,0,1,2.108,1.412c-.458,1.333-.76,1.548-2.188,1.55-.909,0-1.822.052-2.726-.016-.753-.056-.961.165-.955.938.038,5.033.025,10.066.017,15.1a2.509,2.509,0,0,1-2.64,2.716c-.485.02-.971.028-1.457.042-1.885-.013-3.773.028-5.654-.062-.885-.042-1.044.232-1.042,1.065q.038,29.368.02,58.737a4.387,4.387,0,0,1,0,.488c-.046.41.1.576.537.568C1013.361,591.314,1015.408,591.307,1017.455,591.289ZM1004.7,557.864v25.377c0,1.988,0,1.936,1.96,2.01.926.035,1.186-.194,1.184-1.158q-.049-25.719-.024-51.438c0-2.145,0-2.106-2.113-2.157-.8-.019-1.029.19-1.027,1.012C1004.715,540.3,1004.7,549.08,1004.7,557.864Zm4.475-49.242a4.44,4.44,0,0,0-4.53,4.464,4.539,4.539,0,0,0,4.448,4.483,4.46,4.46,0,0,0,4.5-4.5A4.366,4.366,0,0,0,1009.178,508.623Z" transform="translate(-996.731 -499.285)" fill="#0c0d0d"/>
      <path id="Trazado_160807" data-name="Trazado 160807" d="M1261.32,771.547c4.606.185,9.272,3.95,10.865,8.766.487,1.474.7,1.657,1.971,1.7a18.318,18.318,0,0,1,.149,3.87c-1.064.055-1.536.643-1.815,1.663a12.92,12.92,0,0,1-10.13,9.728,8.26,8.26,0,0,1-1.252.109,14.449,14.449,0,0,1-7.4-9.142c-.121-.425-.5-.948-.07-1.445.974.953,1.952,1.9,2.92,2.86,1.231,1.219,1.8,1.232,3.01.026q4.039-4.031,8.068-8.07a4.08,4.08,0,0,0,.581-.654,1.388,1.388,0,0,0-.128-1.864,1.354,1.354,0,0,0-1.929-.156,5.2,5.2,0,0,0-.642.6c-2.324,2.32-4.657,4.631-6.957,6.975-.418.426-.63.43-1.042,0-1.34-1.413-2.731-2.778-4.1-4.161.044-.352.064-.709.135-1.055a14.655,14.655,0,0,1,5.254-8.314A5.808,5.808,0,0,1,1261.32,771.547Z" transform="translate(-1186.418 -700.484)" fill="#f85316"/>
      <path id="Trazado_160808" data-name="Trazado 160808" d="M1322.131,561.85c1.125.236,1.463.955,1.454,2.059-.038,4.816-.028,9.633-.007,14.449a8.782,8.782,0,0,1-.618,3.319c-.677,1.714-1.312,3.445-1.957,5.172a1.893,1.893,0,0,1-1.877,1.418,1.868,1.868,0,0,1-1.808-1.378c-.729-1.936-1.444-3.877-2.177-5.812a6.094,6.094,0,0,1-.4-2.186q.005-19.33.008-38.66a4.321,4.321,0,0,1,3.675-4.365,4.427,4.427,0,0,1,5.012,3.211,5.066,5.066,0,0,1,.128,1.449c.008,5.207-.014,10.414.02,15.62a1.718,1.718,0,0,1-1.453,1.962c-1.294-.439-1.507-.735-1.508-2.117q0-7.563,0-15.126a4.465,4.465,0,0,0-.015-.779,1.462,1.462,0,0,0-2.905-.006,5.017,5.017,0,0,0-.016.877q0,16.053,0,32.106c0,2.138,0,2.1,2.112,2.13.714.009.846-.224.839-.881-.032-3.448-.016-6.9-.014-10.344C1320.624,562.583,1320.836,562.288,1322.131,561.85Zm-3.016,21.455c.134-.263.221-.4.277-.55.344-.9.71-1.8,1.016-2.717.563-1.685.4-1.9-1.374-1.9h-.1c-1.4,0-1.55.169-1.114,1.565C1318.189,580.867,1318.646,582.005,1319.115,583.3Z" transform="translate(-1231.738 -526.287)" fill="#080807"/>
      <path id="Trazado_160809" data-name="Trazado 160809" d="M1330.433,570.248c-1.295.437-1.507.733-1.508,2.117,0,3.448-.017,6.9.014,10.344.006.657-.126.89-.839.881-2.112-.026-2.112.008-2.112-2.13q0-16.053,0-32.106a5.03,5.03,0,0,1,.016-.877,1.462,1.462,0,0,1,2.905.007,4.452,4.452,0,0,1,.015.779q0,7.563,0,15.126c0,1.383.214,1.679,1.508,2.118Q1330.433,568.377,1330.433,570.248Z" transform="translate(-1240.04 -534.684)" fill="#ffc900"/>
      <path id="Trazado_160810" data-name="Trazado 160810" d="M1076.114,561.527c.486-.014.972-.022,1.457-.042a2.509,2.509,0,0,0,2.641-2.716c.008-5.033.022-10.067-.017-15.1-.006-.773.2-.994.955-.938.9.067,1.817.017,2.726.016,1.427,0,1.73-.217,2.188-1.55l3.716.008c.394,1.267.779,1.542,2.185,1.542q19.281,0,38.563-.021c.883,0,1.1.213,1.1,1.1q-.042,26.8,0,53.6c0,.913-.2.995-1.07.895a15.951,15.951,0,0,0-17.337,12.047,15.689,15.689,0,0,0,1.33,11.25,4.971,4.971,0,0,1,.213.526c.009.025-.012.063-.029.136-.243.012-.5.035-.751.035q-18.549,0-37.1,0c-.258,0-.516-.035-.774-.053q0-3.679,0-7.358a3.035,3.035,0,0,0,1.251.126q6.881,0,13.763,0c1.594,0,3.189.017,4.783-.009a1.429,1.429,0,0,0,1.492-1.456,1.467,1.467,0,0,0-1.495-1.467c-.065,0-.13,0-.2,0q-9.37,0-18.741.006a5.706,5.706,0,0,0-.858.129q.005-2.04.01-4.08a4.284,4.284,0,0,0,1.689.384c2.8-.014,5.594,0,8.391-.01,1.734-.008,2.49-.764,2.5-2.508q.027-3.122,0-6.245c-.015-1.776-.781-2.5-2.6-2.508-2.634,0-5.269.007-7.9-.007a5.735,5.735,0,0,0-1.824.228c-.35-.212-.269-.563-.269-.878q0-3.9.014-7.806c.454.025.907.072,1.361.072q23.033.006,46.066,0c.293,0,.587.011.878-.015a1.332,1.332,0,0,0,1.258-1.162,1.375,1.375,0,0,0-.83-1.594,2.9,2.9,0,0,0-1.34-.167q-22.984,0-45.968,0c-.39,0-.78.017-1.17.026-.346-.212-.269-.56-.269-.874,0-1.23,0-2.46.007-3.69.486.028.973.082,1.459.082q22.931.006,45.862,0a9.635,9.635,0,0,0,.974-.028,1.332,1.332,0,0,0,1.283-1.242,1.373,1.373,0,0,0-1-1.578,3.532,3.532,0,0,0-1.255-.1q-21.907-.005-43.813,0c-1.073,0-2.146.015-3.219.022-.392-.23-.292-.618-.294-.961-.007-1.2,0-2.4,0-3.6.453.03.907.086,1.361.086q23.034.007,46.067,0a5.8,5.8,0,0,0,.972-.048,1.326,1.326,0,0,0,1.192-1.327,1.365,1.365,0,0,0-1.018-1.475,3.718,3.718,0,0,0-1.257-.1q-22.887,0-45.774,0c-.516,0-1.031.081-1.547.124Zm24.4-2.987q-5.9,0-11.8,0a1.766,1.766,0,0,0-1.292.3,1.4,1.4,0,0,0-.5,1.567,1.624,1.624,0,0,0,1.764,1.082q11.8-.006,23.6,0c1.208,0,1.895-.549,1.908-1.479s-.67-1.462-1.881-1.463Q1106.409,558.536,1100.51,558.541Zm.114-7.408c-2.341,0-4.683-.007-7.024,0-1.112,0-1.693.5-1.705,1.419a1.462,1.462,0,0,0,1.646,1.513q6.975.022,13.951,0a1.465,1.465,0,0,0,1.658-1.5c-.009-.919-.59-1.425-1.7-1.43C1105.177,551.126,1102.9,551.133,1100.624,551.133Z" transform="translate(-1055.388 -530.258)" fill="#dce736"/>
      <path id="Trazado_160811" data-name="Trazado 160811" d="M1057.179,672.275q0,3.679,0,7.358c-2.047.018-4.094.025-6.14.061-.442.008-.583-.158-.537-.568a4.418,4.418,0,0,0,0-.488q0-29.369-.02-58.737c0-.833.158-1.107,1.042-1.065,1.881.09,3.769.05,5.654.062q0,4.865,0,9.73c-1.111,1.018-1.11,1.7,0,2.737,0,1.2-.009,2.4,0,3.6,0,.344-.1.732.294.961q-2.063,1.178-.287,2.842c0,1.23-.01,2.46-.007,3.69,0,.314-.076.662.269.874-1.355.822-1.437,1.741-.255,2.839q-.009,3.9-.014,7.806c0,.314-.081.666.269.878a2.568,2.568,0,0,0-1.078,2.342c.055,2.044.045,4.091,0,6.136a2.765,2.765,0,0,0,.816,2.187q0,2.04-.01,4.08C1056.069,670.6,1056.069,671.278,1057.179,672.275Z" transform="translate(-1036.452 -587.63)" fill="#dce736"/>
      <path id="Trazado_160812" data-name="Trazado 160812" d="M1027.219,646.234c0-8.785.012-17.569-.019-26.353,0-.823.222-1.032,1.026-1.012,2.112.051,2.113.011,2.113,2.157q0,25.719.024,51.438c0,.964-.258,1.193-1.184,1.158-1.958-.074-1.96-.021-1.96-2.01Z" transform="translate(-1019.247 -587.655)" fill="#afafaf"/>
      <path id="Trazado_160813" data-name="Trazado 160813" d="M1242.3,770.932a5.807,5.807,0,0,0-2.517,1.43,14.656,14.656,0,0,0-5.254,8.314c-.07.347-.091.7-.134,1.055a1.48,1.48,0,0,0-2.115.473,1.51,1.51,0,0,0,.442,2.057c.649.623,1.264,1.281,1.894,1.923-.43.5-.051,1.02.07,1.445a14.45,14.45,0,0,0,7.4,9.142,11.94,11.94,0,0,1-8.742-2.2,12.812,12.812,0,0,1-5.33-13.5c1.289-5.433,4.8-8.793,10.234-10.054A8.169,8.169,0,0,1,1242.3,770.932Z" transform="translate(-1167.399 -699.868)" fill="#f85316"/>
      <path id="Trazado_160814" data-name="Trazado 160814" d="M1101.219,528.291l-3.716-.008a1.778,1.778,0,0,0-2.108-1.412c-1.037.067-2.082,0-3.122.022-.453.011-.6-.128-.632-.6-.154-2.551-.168-2.55,2.383-2.55q20.887,0,41.775-.02c.9,0,1.239.145,1.2,1.139-.087,2.022-.024,2.025-2.047,2.025-10.509,0-21.018.012-31.526-.018C1102.3,526.865,1101.519,527.143,1101.219,528.291Z" transform="translate(-1066.827 -517.344)" fill="#afafaf"/>
      <path id="Trazado_160815" data-name="Trazado 160815" d="M1026.006,510.547q6.827-.016,13.654-.035c.349,0,.608-.015.607.486-.015,6.23-.01,12.461-.01,18.926a13.56,13.56,0,0,0-4.027-3.446c2.3-3.19,2.567-6.351.78-9.113a7.4,7.4,0,0,0-10.342-2.163c-.215.142-.435.275-.653.412Q1026.011,513.081,1026.006,510.547Z" transform="translate(-1018.365 -507.582)" fill="#cde6f8"/>
      <path id="Trazado_160816" data-name="Trazado 160816" d="M1032.967,579.584a3.413,3.413,0,0,1,3.357.608,9.907,9.907,0,0,1,4.465,5.975c-.045.4-.333.413-.644.413q-6,0-12.007,0c-.52,0-.771-.2-.562-.706C1028.686,583.194,1029.47,580.224,1032.967,579.584Z" transform="translate(-1019.471 -558.456)" fill="#3d46c2"/>
      <path id="Trazado_160817" data-name="Trazado 160817" d="M1031.593,535.059a4.366,4.366,0,0,1,4.419,4.447,4.459,4.459,0,0,1-4.5,4.5,4.539,4.539,0,0,1-4.448-4.483A4.44,4.44,0,0,1,1031.593,535.059Z" transform="translate(-1019.146 -525.722)" fill="#3d46c2"/>
      <path id="Trazado_160818" data-name="Trazado 160818" d="M1012.665,510.495q0,2.534.01,5.067a7.6,7.6,0,0,0-2.555,6.9,7.453,7.453,0,0,0,1.91,3.933,13.58,13.58,0,0,0-3.925,3.293c-.222-.282-.125-.548-.126-.789-.007-5.854.01-11.708-.025-17.562,0-.745.192-.932.91-.892C1010.127,510.517,1011.4,510.484,1012.665,510.495Z" transform="translate(-1005.024 -507.53)" fill="#b4d8f4"/>
      <path id="Trazado_160819" data-name="Trazado 160819" d="M1019.832,579.639c-3.5.639-4.281,3.609-5.391,6.292-.209.506.042.707.562.706q6-.011,12.007,0c.31,0,.6-.011.643-.413.251.33.333.6-.236.6-.521,0-1.042,0-1.562,0-5.109,0-10.219-.015-15.327.013-.762,0-.961-.111-.677-.9a10.347,10.347,0,0,1,5.4-6.191,2.623,2.623,0,0,1,1.96-.212A8.672,8.672,0,0,0,1019.832,579.639Z" transform="translate(-1006.336 -558.511)" fill="#3d46c2"/>
      <path id="Trazado_160820" data-name="Trazado 160820" d="M1246.951,806.8c-.63-.643-1.245-1.3-1.894-1.923a1.51,1.51,0,0,1-.442-2.057,1.48,1.48,0,0,1,2.115-.473c1.371,1.383,2.762,2.748,4.1,4.161.412.435.624.431,1.042,0,2.3-2.344,4.633-4.655,6.957-6.975a5.207,5.207,0,0,1,.642-.6,1.354,1.354,0,0,1,1.929.156,1.388,1.388,0,0,1,.128,1.864,4.072,4.072,0,0,1-.581.654q-4.031,4.038-8.068,8.07c-1.208,1.206-1.778,1.193-3.01-.026C1248.9,808.7,1247.925,807.754,1246.951,806.8Z" transform="translate(-1179.733 -720.485)" fill="#090909"/>
      <path id="Trazado_160821" data-name="Trazado 160821" d="M1327.225,703.1c-.469-1.3-.926-2.438-1.291-3.6-.436-1.4-.289-1.565,1.114-1.565h.1c1.769,0,1.937.216,1.374,1.9-.306.917-.672,1.814-1.016,2.717C1327.445,702.7,1327.359,702.838,1327.225,703.1Z" transform="translate(-1239.848 -646.083)" fill="#efecf0"/>
      <path id="Trazado_160822" data-name="Trazado 160822" d="M1073.782,658.727c-1.114-1.036-1.115-1.719,0-2.737.515-.043,1.031-.124,1.546-.124q22.887-.01,45.774,0a3.714,3.714,0,0,1,1.257.1,1.365,1.365,0,0,1,1.018,1.475,1.326,1.326,0,0,1-1.192,1.327,5.8,5.8,0,0,1-.972.048q-23.034,0-46.067,0C1074.689,658.813,1074.236,658.757,1073.782,658.727Z" transform="translate(-1053.053 -614.99)" fill="#0c0d0d"/>
      <path id="Trazado_160823" data-name="Trazado 160823" d="M1073.843,687.1q-1.776-1.662.287-2.842c1.073-.008,2.146-.022,3.219-.022q21.906,0,43.813,0a3.533,3.533,0,0,1,1.255.1,1.373,1.373,0,0,1,1,1.578,1.332,1.332,0,0,1-1.283,1.242,9.633,9.633,0,0,1-.974.028q-22.931,0-45.862,0C1074.816,687.178,1074.33,687.125,1073.843,687.1Z" transform="translate(-1053.109 -635.954)" fill="#0c0d0d"/>
      <path id="Trazado_160824" data-name="Trazado 160824" d="M1073.851,715.464c-1.182-1.1-1.1-2.017.255-2.839.39-.009.78-.026,1.17-.026q22.984,0,45.968,0a2.9,2.9,0,0,1,1.34.167,1.375,1.375,0,0,1,.83,1.594,1.332,1.332,0,0,1-1.258,1.163c-.291.027-.585.015-.878.015q-23.033,0-46.066,0C1074.759,715.536,1074.3,715.489,1073.851,715.464Z" transform="translate(-1053.11 -656.919)" fill="#090909"/>
      <path id="Trazado_160825" data-name="Trazado 160825" d="M1073.854,766.871a2.766,2.766,0,0,1-.816-2.187c.042-2.045.052-4.092,0-6.136a2.568,2.568,0,0,1,1.078-2.342,5.736,5.736,0,0,1,1.824-.228c2.634.014,5.269,0,7.9.007,1.816,0,2.583.732,2.6,2.508q.026,3.122,0,6.245c-.015,1.745-.77,2.5-2.5,2.508-2.8.013-5.594,0-8.391.01A4.284,4.284,0,0,1,1073.854,766.871Zm5.847-7.94c-1.008,0-2.017.031-3.023-.012-.572-.024-.714.189-.7.726.033,1.3.03,2.6,0,3.9-.011.513.083.759.68.749,2.048-.034,4.1-.026,6.145,0,.513.005.677-.171.667-.678-.028-1.333-.035-2.667,0-4,.016-.586-.225-.709-.748-.692C1081.719,758.953,1080.71,758.931,1079.7,758.931Z" transform="translate(-1053.118 -688.978)" fill="#0c0d0d"/>
      <path id="Trazado_160826" data-name="Trazado 160826" d="M1130.911,607.643q5.9,0,11.8,0c1.212,0,1.9.542,1.881,1.464s-.7,1.478-1.908,1.479q-11.8.008-23.6,0a1.624,1.624,0,0,1-1.764-1.082,1.4,1.4,0,0,1,.5-1.567,1.766,1.766,0,0,1,1.292-.3Q1125.012,607.642,1130.911,607.643Z" transform="translate(-1085.789 -579.36)" fill="#0c0d0d"/>
      <path id="Trazado_160827" data-name="Trazado 160827" d="M1073.782,815.634c-1.11-1-1.11-1.675,0-2.672a5.707,5.707,0,0,1,.858-.129q9.37-.011,18.74-.006c.065,0,.131,0,.2,0a1.467,1.467,0,0,1,1.495,1.467,1.429,1.429,0,0,1-1.492,1.456c-1.594.026-3.188.009-4.782.009q-6.881,0-13.763,0A3.034,3.034,0,0,1,1073.782,815.634Z" transform="translate(-1053.056 -730.989)" fill="#080807"/>
      <path id="Trazado_160828" data-name="Trazado 160828" d="M1145.326,579.257c2.276,0,4.553-.007,6.829,0,1.105.005,1.687.511,1.7,1.43a1.465,1.465,0,0,1-1.658,1.5q-6.975.02-13.951,0a1.462,1.462,0,0,1-1.646-1.513c.013-.917.593-1.414,1.706-1.419C1140.643,579.251,1142.984,579.257,1145.326,579.257Z" transform="translate(-1100.09 -558.382)" fill="#090909"/>
      <path id="Trazado_160829" data-name="Trazado 160829" d="M1088.036,767.253c1.008,0,2.017.023,3.024-.009.523-.017.764.106.748.692-.037,1.332-.03,2.666,0,4,.011.506-.153.683-.666.678-2.048-.022-4.1-.03-6.145,0-.6.01-.691-.235-.68-.749.029-1.3.032-2.6,0-3.9-.014-.537.129-.75.7-.726C1086.019,767.283,1087.028,767.253,1088.036,767.253Z" transform="translate(-1061.452 -697.3)" fill="#f09255"/>
    </g>
  </g>
</svg>
