<svg xmlns="http://www.w3.org/2000/svg" width="100.002" height="100" viewBox="0 0 100.002 100">
  <g id="Grupo_109497" data-name="Grupo 109497" transform="translate(4676.271 2009.893)">
    <g id="abrir-caja" transform="translate(-4676.27 -2009.893)">
      <path id="Trazado_161013" data-name="Trazado 161013" d="M48.667,25,45.333,81.667a3.075,3.075,0,0,1-1.217-.267L8.983,66.767A3.167,3.167,0,0,1,7,63.833V25Z" transform="translate(4.667 16.667)" fill="#b78e69"/>
      <path id="Trazado_161014" data-name="Trazado 161014" d="M68.333,25V63.833a3.167,3.167,0,0,1-1.983,2.933L31.217,81.4A3.075,3.075,0,0,1,30,81.667V25Z" transform="translate(20.001 16.667)" fill="#d0a578"/>
      <path id="Trazado_161015" data-name="Trazado 161015" d="M96.733,45.8a3.227,3.227,0,0,1-1.017,5.233L63.983,64.416a3.157,3.157,0,0,1-3.467-.683L49.333,53,38.15,63.733a3.157,3.157,0,0,1-3.467.683L2.95,51.033A3.227,3.227,0,0,1,1.933,45.8L11,36.333,1.933,26.866A3.227,3.227,0,0,1,2.95,21.633L34.683,8.249a3.157,3.157,0,0,1,3.467.683l4.517,4.333H56l4.517-4.333a3.157,3.157,0,0,1,3.467-.683L95.717,21.633a3.227,3.227,0,0,1,1.017,5.233l-9.067,9.467Z" transform="translate(0.667 5.334)" fill="#e5b991"/>
      <path id="Trazado_161016" data-name="Trazado 161016" d="M38.667,16.74,7,30.507,45.334,47.173,83.667,30.507,52,16.74Z" transform="translate(4.667 11.16)" fill="#a07b5c"/>
      <path id="Trazado_161017" data-name="Trazado 161017" d="M45.815,39l-9.9,9.817a1.78,1.78,0,0,1-2.5,0L23.515,39a1.758,1.758,0,0,1,1.25-3H28V2.667A1.667,1.667,0,0,1,29.665,1h10a1.667,1.667,0,0,1,1.667,1.667V36h3.233a1.758,1.758,0,0,1,1.25,3Z" transform="translate(15.335 0.667)" fill="#f85316"/>
      <path id="Trazado_161018" data-name="Trazado 161018" d="M.1,28.977a4.892,4.892,0,0,0,1.3,4.387l7.962,8.3L1.411,49.955A4.9,4.9,0,0,0,2.972,57.9L34.7,71.287a4.808,4.808,0,0,0,1.883.385,4.742,4.742,0,0,0,3.382-1.41l8.367-8.022V96.073L14.294,81.907a1.515,1.515,0,0,1-.96-1.407V68.333a1.667,1.667,0,1,0-3.333,0V80.5a4.862,4.862,0,0,0,3,4.475L48.084,99.583a4.625,4.625,0,0,0,1.932.417,4.412,4.412,0,0,0,1.833-.4L87,84.975A4.86,4.86,0,0,0,90,80.5V60.863L97.029,57.9a4.9,4.9,0,0,0,1.578-7.928l-7.965-8.3,7.943-8.293a4.893,4.893,0,0,0-1.553-7.942L65.3,12.048a4.8,4.8,0,0,0-5.27,1.015l-1.7,1.627V3.333A3.333,3.333,0,0,0,55,0H45a3.333,3.333,0,0,0-3.333,3.333V14.7L40,13.1a4.793,4.793,0,0,0-5.3-1.055L2.972,25.435A4.867,4.867,0,0,0,.1,28.977ZM41.667,35H40.1a3.423,3.423,0,0,0-2.425,5.85l9.9,9.817a3.44,3.44,0,0,0,4.85,0l9.9-9.813A3.423,3.423,0,0,0,59.9,35H58.334V30.442L84.156,41.667,50,56.515,15.846,41.667,41.667,30.442Zm-4.04,32.887A1.478,1.478,0,0,1,36,68.22L4.269,54.833a1.513,1.513,0,0,1-.9-1.12A1.56,1.56,0,0,1,3.8,52.285l8.267-8.618,34.973,15.2ZM86.667,80.5a1.515,1.515,0,0,1-.955,1.4L51.667,96.077V62.243l8.333,8A4.785,4.785,0,0,0,65.3,71.3l21.37-9.028ZM96.636,53.7a1.513,1.513,0,0,1-.9,1.12L64,68.218a1.5,1.5,0,0,1-1.658-.362l-9.378-9,34.972-15.19L96.217,52.3a1.545,1.545,0,0,1,.418,1.4ZM62.362,15.445A1.49,1.49,0,0,1,64,15.112L95.732,28.5a1.512,1.512,0,0,1,.9,1.12,1.568,1.568,0,0,1-.438,1.427l-8.265,8.63-29.6-12.868v-7.5ZM45,3.333H55V35H53.334a1.667,1.667,0,0,0,0,3.333h3.333L60,38.45a.221.221,0,0,1-.025.03L49.922,48.3l-9.9-9.817.078-.147h6.567a1.667,1.667,0,0,0,0-3.333H45ZM3.366,29.627a1.513,1.513,0,0,1,.9-1.12L36,15.115a1.5,1.5,0,0,1,1.667.362l4,3.843v7.488l-29.6,12.868L3.784,31.038a1.545,1.545,0,0,1-.418-1.412Z" transform="translate(0)"/>
    </g>
  </g>
</svg>
