<svg xmlns="http://www.w3.org/2000/svg" width="79.493" height="100" viewBox="0 0 79.493 100">
  <g id="Grupo_109493" data-name="Grupo 109493" transform="translate(5466.68 2011.108)">
    <g id="trotar" transform="translate(-5519.18 -2011.108)">
      <path id="Trazado_160961" data-name="Trazado 160961" d="M153.12,411.177l-3.81-9.94-6.793,2.507,5.838,15.786c4-2.252,5.694-5.919,4.838-8.154Z" transform="translate(-72.436 -322.87)" fill="#ededed" fill-rule="evenodd"/>
      <path id="Trazado_160962" data-name="Trazado 160962" d="M200.732,323.743l3.689-7.66c-3.231-1.864-11.343-5.419-12.5-13.279l-1.916,9.946-1.033,5.369-11.68,3.911,3.81,9.94,16.954-5.857a4.077,4.077,0,0,0,2.673-2.369Z" transform="translate(-100.421 -243.661)" fill="#3d46c2" fill-rule="evenodd"/>
      <path id="Trazado_160963" data-name="Trazado 160963" d="M281.171,311.745l-9.079-8.942H252.2c1.154,7.86,9.267,11.416,12.5,13.279l7.433,4.177-.005,14.034h10.172V315.8c0-2.2.171-2.785-1.121-4.055Z" transform="translate(-160.692 -243.661)" fill="#3d46c2" fill-rule="evenodd"/>
      <path id="Trazado_160964" data-name="Trazado 160964" d="M371.45,471.429c1.325-4.36-4.771-7.4-7.152-7.4H354.12v.127l-.022,7.272H371.45Z" transform="translate(-242.692 -373.399)" fill="#ededed" fill-rule="evenodd"/>
      <path id="Trazado_160965" data-name="Trazado 160965" d="M262.393,177.055l.017-9.413-5.975-9.407a11.451,11.451,0,0,1-4.76,1.093,13.229,13.229,0,0,1-5.683-1.165l-4.28,6.185a4.539,4.539,0,0,1,2.634,8.681l-4.225,1.448,2.358,11.937h19.9Z" transform="translate(-150.976 -127.271)" fill="#f85316" fill-rule="evenodd"/>
      <path id="Trazado_160966" data-name="Trazado 160966" d="M188.194,197.88a4.539,4.539,0,0,0-2.634-8.681c-.094.028-.193.055-.287.088l-11.879,4.071a4.55,4.55,0,0,0-3.054,4.116v11.859a4.54,4.54,0,1,0,9.079-.039l-.033-8.4,4.584-1.57Z" transform="translate(-94.824 -152.123)" fill="#fdd99b" fill-rule="evenodd"/>
      <path id="Trazado_160967" data-name="Trazado 160967" d="M365.386,177.848l6.572-9.352a4.528,4.528,0,1,0-7.45-5.147l-4.738,6.917-5.6-.028-.017,9.413,7.014-.005c2.11-.005,2.921-.011,4.219-1.8Z" transform="translate(-242.736 -129.867)" fill="#fdd99b" fill-rule="evenodd"/>
      <path id="Trazado_160968" data-name="Trazado 160968" d="M256.071,75.529c4.319-1.975,7.88-6.424,7.88-11.6a12.7,12.7,0,0,0-3.291-8.548c-2.9,1.942-7.218,2.879-10.454,3.123-7.151.549-10.537,10.367-10.537,10.367a12.134,12.134,0,0,0,5.959,6.584,13.228,13.228,0,0,0,5.683,1.165,11.446,11.446,0,0,0,4.76-1.093Z" transform="translate(-150.612 -44.565)" fill="#fdd99b" fill-rule="evenodd"/>
      <path id="Trazado_160969" data-name="Trazado 160969" d="M254.564,18.934c2.833-1.891,4.313-4.748,2.1-8.847-7.682,3.844-12.276,1.326-16.6,2.862-7.466,2.651-9.83,9.3-6.494,19.475,0,0,3.385-9.818,10.537-10.367,3.236-.244,7.555-1.181,10.454-3.123Z" transform="translate(-144.517 -8.117)" fill="#b3b3b3" fill-rule="evenodd"/>
      <g id="Grupo_109326" data-name="Grupo 109326" transform="translate(52.5 0)">
        <path id="Trazado_160970" data-name="Trazado 160970" d="M153.8,88.662h-8.207l0-12.063a1.97,1.97,0,0,0-1-1.718L137.16,70.7h0c-.362-.208-.774-.433-1.211-.671-3.055-1.665-7.893-4.3-9.7-8.922h16.541l8.505,8.377c.55.541.55.541.536,1.946,0,.216,0,.45,0,.7v3.084a1.97,1.97,0,1,0,3.939,0V72.138c0-.241,0-.463,0-.667.017-1.787.029-3.079-1.713-4.791l-8.49-8.362.012-6.566,5.053,0c2.275-.006,3.919-.01,5.807-2.608l.018-.026,6.573-9.354a6.4,6.4,0,0,0,1.054-4.838,6.489,6.489,0,0,0-11.741-2.553l-4.148,6.055-3.479-.017-4.279-6.736A14.808,14.808,0,0,0,147.5,19.365a14.68,14.68,0,0,0-2.52-8.235A8.49,8.49,0,0,0,146.5,9.156c.91-1.664,1.576-4.424-.415-8.12a1.969,1.969,0,0,0-2.615-.827A19.147,19.147,0,0,1,134.045,2.3c-.326,0-.646,0-.96-.005s-.623-.005-.927-.005a14.827,14.827,0,0,0-5.071.684c-4.98,1.769-12.6,6.965-7.719,21.9l0,.007.011.033c.017.051.036.1.056.15v0a14.734,14.734,0,0,0,4.947,6.441l-2.7,3.9-11.559,3.962a6.523,6.523,0,0,0-4.386,5.91c0,.023,0,.046,0,.07V47.51H94.48a1.97,1.97,0,0,0,0,3.939h11.262v5.763a6.517,6.517,0,0,0,6.528,6.491h.029a6.508,6.508,0,0,0,6.461-6.537l-.028-6.985,1.113-.381,1.847,9.348-1.535,7.971h-11.2a1.97,1.97,0,0,0,0,3.939H119.4l-.365,1.9L108.444,76.5l-.03.012-.027.008L101.6,79.026a1.969,1.969,0,0,0-1.165,2.531l5.837,15.787a1.97,1.97,0,0,0,2.813,1.034c3.814-2.145,6.153-5.659,6.063-8.768l15.338-5.3a6.012,6.012,0,0,0,3.8-3.374l2.769-5.75,3.376,1.943a1.979,1.979,0,0,0,.477.2l.755.424,0,12.874h0l-.022,7.4A1.97,1.97,0,0,0,143.6,100h17.352a1.969,1.969,0,0,0,1.884-1.4,6.183,6.183,0,0,0-1.075-5.652A11.523,11.523,0,0,0,153.8,88.662Zm-4.582-46.293a1.971,1.971,0,0,0,1.634-.856l4.739-6.918a2.549,2.549,0,0,1,3.54-.656,2.577,2.577,0,0,1,1.074,1.68,2.485,2.485,0,0,1-.4,1.879l-6.562,9.339c-.7.968-.712.968-2.618.973l-5.039,0,.01-5.463Zm-5.654-23c0,6.038-5.737,10.722-10.671,10.722a11.37,11.37,0,0,1-4.762-.935c-.057-.03-.114-.057-.172-.081a9.822,9.822,0,0,1-4.568-4.813c.877-2.054,3.813-7.99,8.547-8.353a28.649,28.649,0,0,0,9.81-2.526A10.748,10.748,0,0,1,143.565,19.365ZM122.314,12.38c.915-2.7,2.908-4.561,6.092-5.692a11.031,11.031,0,0,1,3.752-.457c.293,0,.591,0,.894,0,.325,0,.656.005.994.005A23.521,23.521,0,0,0,143.3,4.6a3.546,3.546,0,0,1-.261,2.665c-1.505,2.754-6.964,4.372-11.4,4.71-4.556.35-7.742,3.668-9.721,6.681A13.749,13.749,0,0,1,122.314,12.38Zm-6.195,34.531a1.97,1.97,0,0,0-1.331,1.871l.033,8.4a2.564,2.564,0,0,1-2.54,2.581h-.011a2.6,2.6,0,0,1-2.589-2.551V49.685a1.947,1.947,0,0,0,0-.412V45.392A2.6,2.6,0,0,1,111.4,43.1l11.877-4.071a2.5,2.5,0,0,1,.809-.135,2.571,2.571,0,0,1,.837,5Zm10.084.71a6.51,6.51,0,0,0,.276-12.21l1.466-2.118a16.084,16.084,0,0,0,4.949.733,12.909,12.909,0,0,0,3.959-.65l4.806,7.566-.016,8.843h0l-.013,7.386H125.317l-1.711-8.662ZM109.07,93.568,104.808,82.04l3.118-1.151,3.187,8.323C111.46,90.119,110.857,91.94,109.07,93.568Zm21.662-14.342a2.157,2.157,0,0,1-1.542,1.362l-15.157,5.237-2.39-6.242,9.731-3.258a1.97,1.97,0,0,0,1.309-1.5l1.721-8.94c2.632,3.643,6.543,5.9,9.208,7.356Zm14.844,16.835.01-3.46H153.8a7.817,7.817,0,0,1,4.8,2.7,3.177,3.177,0,0,1,.429.764h-13.45Z" transform="translate(-84.696 0)"/>
        <path id="Trazado_160971" data-name="Trazado 160971" d="M130.834,347.3a1.97,1.97,0,0,0,0-3.939h-.05a1.97,1.97,0,0,0,0,3.939Z" transform="translate(-113.91 -276.294)"/>
        <path id="Trazado_160972" data-name="Trazado 160972" d="M54.519,243.247h-.05a1.97,1.97,0,1,0,0,3.939h.05a1.97,1.97,0,0,0,0-3.939Z" transform="translate(-52.5 -195.738)"/>
        <path id="Trazado_160973" data-name="Trazado 160973" d="M398.207,413.76a1.97,1.97,0,0,0-1.97,1.97v.05a1.97,1.97,0,1,0,3.939,0v-.05A1.969,1.969,0,0,0,398.207,413.76Z" transform="translate(-329.101 -332.947)"/>
      </g>
    </g>
  </g>
</svg>
