<svg xmlns="http://www.w3.org/2000/svg" width="100" height="99.949" viewBox="0 0 100 99.949">
  <g id="Grupo_109554" data-name="Grupo 109554" transform="translate(-4765.19 6808.304)">
    <g id="Grupo_109245" data-name="Grupo 109245" transform="translate(4709.312 -7316.303)">
      <path id="Trazado_160830" data-name="Trazado 160830" d="M55.878,576.323V573a23.5,23.5,0,0,1,6.872.491,16.515,16.515,0,0,1,8.966,6.349,11.748,11.748,0,0,0,6.908,4.438c2.077.49,4.209.231,6.316.317.757.031.912-.234.91-.94q-.033-14.586-.021-29.173c0-.224.113-.5-.206-.714a14.271,14.271,0,0,1-3.941,4.55,15.232,15.232,0,0,1-9.959,2.994c-2.658-.073-2.638-.014-2.567-2.676.016-.6.24-.7.752-.677.91.032,1.822.025,2.732.006a11.536,11.536,0,0,0,8.45-3.61,20.017,20.017,0,0,0,3.029-4.966c.708-1.381,1.219-1.615,2.742-1.212q9.023,2.388,18.043,4.785a3.13,3.13,0,0,0,3.185-.614,2.982,2.982,0,0,0,1-2.985,3.326,3.326,0,0,0-2.683-2.511c-4.856-1.284-9.739-2.479-14.55-3.917A35.289,35.289,0,0,0,79.2,541.356c-.615.043-1.238.024-1.845.112a12.319,12.319,0,0,0-7.8,4.383,15.772,15.772,0,0,1-4.275,3.5,17.167,17.167,0,0,1-9.4,1.981v-3.319a25,25,0,0,0,4.931-.478,14.209,14.209,0,0,0,6.913-4.641,14.85,14.85,0,0,1,10.18-4.865c2.309-.175,4.617-.1,6.925-.079.8.006,1.018-.182,1.015-1-.033-8.846-.022-17.691-.019-26.537,0-1.888.537-2.415,2.432-2.415h65.1c2.088,0,2.508.416,2.508,2.484q0,47.465.018,94.93a2.873,2.873,0,0,1-1,2.535H86.927a2.532,2.532,0,0,1-1.113-2.4c.016-5.528-.005-11.057.024-16.585,0-.727-.132-1-.934-.973a29.514,29.514,0,0,1-6.034-.228,15.482,15.482,0,0,1-10.1-6.2,12.679,12.679,0,0,0-6.791-4.781A21.635,21.635,0,0,0,55.878,576.323Zm96.655-18.246q0-22.885,0-45.77c0-.563.1-1.007-.8-1.006q-30.848.044-61.7.01c-.613,0-.822.127-.82.788q.035,12.98,0,25.959a.84.84,0,0,0,.763.976c1.76.439,3.512.906,5.263,1.378,4.315,1.162,8.664,2.213,12.93,3.532A6.363,6.363,0,0,1,111.5,553.5c-1.649,2.57-4.485,3.532-7.785,2.646-4.5-1.209-9.014-2.4-13.509-3.638-.822-.227-.992-.094-.991.775q.042,25.129,0,50.259c0,.888.222,1.1,1.106,1.1q30.556-.041,61.112,0c.855,0,1.124-.167,1.122-1.087Q152.507,580.816,152.533,558.077Z" fill="#0c0a09"/>
      <path id="Trazado_160831" data-name="Trazado 160831" d="M55.878,654.129a17.248,17.248,0,0,0,9.446-1.99,15.851,15.851,0,0,0,4.295-3.521,12.378,12.378,0,0,1,7.836-4.4c.611-.089,1.236-.07,1.854-.113a35.461,35.461,0,0,1,12.722,1.591c4.833,1.444,9.74,2.646,14.619,3.935a3.342,3.342,0,0,1,2.7,2.523,3,3,0,0,1-1.008,3,3.145,3.145,0,0,1-3.2.617q-9.064-2.406-18.129-4.808c-1.531-.405-2.043-.17-2.755,1.218a20.111,20.111,0,0,1-3.044,4.99,11.591,11.591,0,0,1-8.49,3.627c-.915.019-1.831.027-2.745-.006-.515-.018-.739.081-.755.68-.072,2.675-.092,2.615,2.579,2.688A15.305,15.305,0,0,0,81.8,661.148a14.341,14.341,0,0,0,3.96-4.571c.32.21.207.492.207.717q.01,14.656.021,29.311c0,.709-.154.976-.915.944-2.117-.087-4.259.174-6.346-.319a11.8,11.8,0,0,1-6.941-4.459,16.594,16.594,0,0,0-9.008-6.379,23.611,23.611,0,0,0-6.9-.493Z" transform="translate(0 -102.865)" fill="#e28846"/>
      <path id="Trazado_160832" data-name="Trazado 160832" d="M255.746,568.258q0,22.731.023,45.461c0,.919-.268,1.087-1.127,1.087q-30.7-.036-61.4,0c-.889,0-1.113-.213-1.111-1.1q.043-25.121,0-50.242c0-.869.17-1,1-.775,4.516,1.241,9.048,2.427,13.573,3.636,3.315.886,6.165-.075,7.822-2.645a6.349,6.349,0,0,0-3.34-9.55c-4.287-1.319-8.657-2.37-12.992-3.531-1.76-.471-3.52-.939-5.288-1.377a.84.84,0,0,1-.767-.976q.037-12.975,0-25.95c0-.661.207-.788.824-.788q31,.023,61.99-.01c.9,0,.8.443.8,1.005Q255.743,545.381,255.746,568.258Zm-31.785-30.116H202.788c-2.34,0-2.287,0-2.362,2.315-.031.944.3,1.1,1.153,1.1q21.663-.037,43.327-.02c.781,0,1.816.26,2.277-.132.546-.464.088-1.532.194-2.328s-.216-.953-.968-.951C238.926,538.153,231.444,538.142,223.961,538.142Zm0,49.957H202.792c-2.343,0-2.292,0-2.365,2.311-.03.935.284,1.1,1.148,1.1q21.664-.038,43.327-.02c.782,0,1.816.262,2.279-.129.549-.463.09-1.532.2-2.327.1-.779-.2-.958-.963-.955C238.93,588.111,231.448,588.1,223.965,588.1Zm.011-16.626H202.8c-2.342,0-2.3,0-2.362,2.288-.024.858.2,1.066,1.065,1.064q21.719-.046,43.438-.027c.776,0,1.78.329,2.267-.137s.072-1.478.164-2.242c.09-.745-.15-.969-.938-.965C238.946,571.487,231.461,571.474,223.976,571.474Zm-6.877,11.7q7.258,0,14.516,0c.747,0,1.734.25,2.178-.124.529-.445.064-1.469.191-2.225.159-.937-.295-1.019-1.081-1.017q-15.006.036-30.013.016c-2.447,0-2.414,0-2.454,2.4-.013.764.187.976.969.971C206.637,583.152,211.868,583.17,217.1,583.17Zm6.879-53.285c4.737,0,9.475.01,14.212-.01.8,0,1.87.37,2.335-.173.393-.459.062-1.492.151-2.26.094-.812-.254-.933-.977-.931q-15.143.033-30.286.015c-2.261,0-2.223,0-2.276,2.294-.019.833.16,1.1,1.062,1.09C213.458,529.859,218.718,529.885,223.978,529.885Zm6.766,66.567c-4.834,0-9.667-.009-14.5.009-.773,0-1.8-.352-2.248.167-.376.437-.048,1.434-.132,2.172-.094.824.2,1.005,1.009,1,9.994-.03,19.988-.016,29.982-.027.807,0,1.858.352,2.356-.146s.068-1.543.16-2.34c.08-.688-.167-.857-.851-.853C241.261,596.465,236,596.452,230.744,596.452Zm1.568-29.935h12.645c2.421,0,2.38,0,2.433-2.417.018-.835-.237-1-1.034-1-8.855.03-17.71.017-26.565.021-.815,0-1.9-.278-2.373.131-.556.481-.1,1.6-.2,2.426-.082.71.218.854.88.85C222.836,566.5,227.574,566.517,232.312,566.517Zm-2.464-20.022c-2.252,0-4.5-.014-6.757.007-.807.008-1.86-.352-2.356.145s-.068,1.543-.159,2.34c-.078.685.162.86.849.856,5.027-.031,10.053-.017,15.08-.017,2.589,0,2.566,0,2.539-2.59-.006-.611-.184-.76-.776-.754C235.463,546.511,232.655,546.495,229.848,546.495Zm-4.2,8.345c-1.99,0-3.98-.006-5.97,0-.777,0-1.806-.251-2.265.14-.543.463-.086,1.524-.191,2.315-.1.733.168.918.905.912,4.437-.037,8.874-.015,13.311-.022.809,0,1.9.267,2.354-.142.54-.482.094-1.587.185-2.415.069-.63-.143-.818-.793-.808C230.677,554.863,228.165,554.839,225.653,554.839Zm-13.359-5.013c1.434,0,2.867-.016,4.3.009.483.008.716-.1.681-.638a17.384,17.384,0,0,1,0-2.04c.026-.494-.113-.679-.646-.675q-4.4.036-8.8,0c-.6-.006-.712.225-.683.74a13.761,13.761,0,0,1,0,1.846c-.046.586.129.794.75.775C209.36,549.8,210.827,549.827,212.293,549.827Zm-6.863,49.957h2.639c2.533,0,2.5,0,2.514-2.514,0-.716-.245-.844-.894-.834-2.215.037-4.431,0-6.646.022-.835.009-1.927-.369-2.437.165s-.073,1.607-.161,2.437c-.068.641.217.748.782.734C202.628,599.76,204.029,599.784,205.43,599.784Zm36.839-41.593h2.548c2.632,0,2.613,0,2.56-2.664-.011-.56-.17-.707-.719-.7-2.253.029-4.507,0-6.761.02-.837.008-2.015-.375-2.421.158-.43.564-.118,1.673-.174,2.541-.033.513.137.669.656.657C239.394,558.169,240.832,558.191,242.269,558.191Zm.142,21.627c-.849,0-1.7-.006-2.548,0-.813.008-1.9-.282-2.367.126-.546.477-.1,1.59-.2,2.417-.089.737.249.832.887.821,2.22-.036,4.442,0,6.663-.022.807-.008,1.879.361,2.352-.149.505-.545.087-1.61.167-2.442.057-.588-.121-.79-.746-.769C245.221,579.852,243.815,579.818,242.411,579.818Zm2.453-29.963c.778-.153,1.92.366,2.368-.215.414-.536.114-1.616.128-2.457a.711.711,0,0,1,0-.1c.071-.468-.129-.613-.6-.6-1.174.03-2.353.061-3.523-.009-.746-.044-.976.179-.9.909.076.77-.253,1.8.138,2.26C242.939,550.191,244.008,549.73,244.864,549.855Z" transform="translate(-103.229 -10.181)" fill="#fbd3c0"/>
      <path id="Trazado_160833" data-name="Trazado 160833" d="M249.406,589.49c7.483,0,14.965.011,22.448-.017.752,0,1.073.165.968.956s.352,1.873-.194,2.339c-.46.394-1.5.133-2.277.133q-21.663,0-43.327.02c-.856,0-1.183-.156-1.153-1.1.075-2.325.022-2.327,2.362-2.327Z" transform="translate(-128.674 -61.542)" fill="#171312"/>
      <path id="Trazado_160834" data-name="Trazado 160834" d="M249.412,793.725c7.483,0,14.965.011,22.448-.017.759,0,1.067.177.963.96-.106.8.353,1.873-.2,2.339-.463.393-1.5.129-2.279.13q-21.664,0-43.327.02c-.864,0-1.178-.168-1.148-1.108.073-2.321.022-2.323,2.365-2.323Z" transform="translate(-128.676 -215.812)" fill="#171312"/>
      <path id="Trazado_160835" data-name="Trazado 160835" d="M249.448,725.747c7.485,0,14.97.013,22.454-.02.788,0,1.028.222.938.97-.092.768.327,1.781-.164,2.253s-1.492.137-2.267.138q-21.719.012-43.438.027c-.869,0-1.089-.207-1.065-1.069.064-2.3.02-2.3,2.362-2.3Z" transform="translate(-128.7 -164.462)" fill="#060606"/>
      <path id="Trazado_160836" data-name="Trazado 160836" d="M242.584,763.241c-5.231,0-10.462-.018-15.693.019-.782.005-.982-.208-.969-.976.04-2.412.007-2.412,2.454-2.412q15.006,0,30.013-.016c.786,0,1.24.08,1.081,1.022-.128.76.338,1.79-.191,2.236-.445.375-1.431.124-2.178.124Q249.842,763.246,242.584,763.241Z" transform="translate(-128.535 -190.242)" fill="#090808"/>
      <path id="Trazado_160837" data-name="Trazado 160837" d="M270.009,545.381c-5.26,0-10.52-.026-15.78.025-.9.008-1.081-.258-1.062-1.1.053-2.3.014-2.306,2.276-2.306q15.143,0,30.286-.015c.723,0,1.071.119.977.936-.089.771.242,1.809-.151,2.271-.465.546-1.532.171-2.335.174C279.484,545.391,274.746,545.381,270.009,545.381Z" transform="translate(-149.129 -25.634)" fill="#0c0a0a"/>
      <path id="Trazado_160838" data-name="Trazado 160838" d="M297.253,827.6c5.258,0,10.517.013,15.775-.016.684,0,.931.166.851.858-.092.8.335,1.854-.16,2.352s-1.549.146-2.356.147c-9.994.011-19.988,0-29.982.027-.81,0-1.1-.18-1.009-1.008.084-.741-.244-1.744.132-2.183.447-.522,1.475-.164,2.248-.167C287.585,827.588,292.419,827.6,297.253,827.6Z" transform="translate(-169.738 -241.329)" fill="#050506"/>
      <path id="Trazado_160839" data-name="Trazado 160839" d="M309.02,694.8c-4.738,0-9.476-.012-14.214.014-.663,0-.962-.141-.88-.855.1-.835-.356-1.955.2-2.438.472-.411,1.559-.131,2.373-.132,8.855,0,17.71.009,26.565-.021.8,0,1.052.163,1.034,1-.053,2.428-.012,2.429-2.433,2.429Z" transform="translate(-179.937 -138.453)" fill="#161312"/>
      <path id="Trazado_160840" data-name="Trazado 160840" d="M316.857,623.344c2.807,0,5.614.016,8.421-.013.592-.006.77.144.776.758.027,2.6.05,2.6-2.539,2.6-5.027,0-10.054-.014-15.08.017-.687,0-.928-.171-.849-.86.091-.8-.334-1.855.159-2.352s1.549-.138,2.356-.146C312.352,623.331,314.6,623.344,316.857,623.344Z" transform="translate(-190.121 -87.042)" fill="#070707"/>
      <path id="Trazado_160841" data-name="Trazado 160841" d="M302.394,657.571c2.512,0,5.024.023,7.536-.016.65-.01.862.179.793.812-.09.832.355,1.942-.185,2.427-.459.412-1.545.142-2.354.143-4.437.006-8.874-.016-13.311.022-.738.006-1-.18-.905-.917.105-.8-.352-1.862.191-2.327.459-.393,1.488-.137,2.265-.141C298.414,657.565,300.4,657.571,302.394,657.571Z" transform="translate(-179.828 -112.923)" fill="#080807"/>
      <path id="Trazado_160842" data-name="Trazado 160842" d="M258.336,626.993c-1.466,0-2.933-.03-4.4.015-.622.019-.8-.19-.75-.779a13.9,13.9,0,0,0,0-1.855c-.029-.517.087-.75.683-.744q4.4.045,8.8,0c.533,0,.672.182.646.678a17.56,17.56,0,0,0,0,2.051c.035.544-.2.649-.681.641C261.2,626.977,259.769,626.993,258.336,626.993Z" transform="translate(-149.051 -87.342)" fill="#0c0b0a"/>
      <path id="Trazado_160843" data-name="Trazado 160843" d="M230.674,830.923c-1.4,0-2.8-.024-4.2.011-.565.014-.85-.093-.782-.738.088-.834-.341-1.92.161-2.449s1.6-.157,2.437-.166c2.215-.024,4.431.014,6.646-.022.648-.011.9.118.894.838-.011,2.526.019,2.526-2.514,2.526Z" transform="translate(-128.217 -241.306)" fill="#0c0b0a"/>
      <path id="Trazado_160844" data-name="Trazado 160844" d="M380.663,660.807c-1.437,0-2.875-.022-4.311.012-.52.012-.69-.144-.656-.66.057-.872-.256-1.987.174-2.554.406-.536,1.584-.151,2.421-.159,2.253-.022,4.508.009,6.761-.02.549-.007.708.141.719.7.053,2.678.072,2.677-2.56,2.677Z" transform="translate(-241.623 -112.791)" fill="#080808"/>
      <path id="Trazado_160845" data-name="Trazado 160845" d="M380.731,759.641c1.4,0,2.81.034,4.213-.016.624-.022.8.181.746.772-.08.836.338,1.907-.167,2.455-.473.512-1.545.141-2.352.149-2.221.023-4.442-.015-6.663.022-.638.011-.977-.084-.887-.825.1-.831-.35-1.95.2-2.429.466-.41,1.554-.119,2.367-.127C379.033,759.635,379.882,759.641,380.731,759.641Z" transform="translate(-241.549 -190.011)" fill="#080808"/>
      <path id="Trazado_160846" data-name="Trazado 160846" d="M398.7,626.994c-.855-.126-1.924.338-2.39-.211-.391-.461-.062-1.5-.138-2.271-.073-.733.158-.958.9-.913,1.171.07,2.349.039,3.523.009.47-.012.669.133.6.6a.719.719,0,0,0,0,.1c-.014.845.285,1.931-.128,2.47C400.619,627.362,399.477,626.84,398.7,626.994Z" transform="translate(-257.064 -87.315)" fill="#050506"/>
    </g>
  </g>
</svg>
