<svg xmlns="http://www.w3.org/2000/svg" width="101.483" height="125.494" viewBox="0 0 101.483 125.494">
  <g id="Grupo_109551" data-name="Grupo 109551" transform="translate(-4018.88 6835)">
    <g id="Grupo_109205" data-name="Grupo 109205" transform="translate(2187.653 2506)">
      <g id="Grupo_108695" data-name="Grupo 108695" transform="translate(1831.227 -9341)">
        <ellipse id="Elipse_5274" data-name="Elipse 5274" cx="50.741" cy="3.063" rx="50.741" ry="3.063" transform="translate(0 119.368)" fill="#e4bad4"/>
        <g id="Grupo_108694" data-name="Grupo 108694" transform="translate(7.912 0)">
          <g id="Grupo_108689" data-name="Grupo 108689" transform="translate(71.641 60.914)">
            <path id="Trazado_158627" data-name="Trazado 158627" d="M1253.615,1049.841h-7.426v59.641h7.426a4.678,4.678,0,0,0,4.673-4.673v-50.3A4.678,4.678,0,0,0,1253.615,1049.841Z" transform="translate(-1244.946 -1048.598)" fill="#75b62f"/>
            <path id="Trazado_158628" data-name="Trazado 158628" d="M1244.857,1039.841h-8.668v62.126h8.668a5.922,5.922,0,0,0,5.916-5.916v-50.295A5.922,5.922,0,0,0,1244.857,1039.841Zm4.673,56.21a4.679,4.679,0,0,1-4.673,4.673h-7.426v-59.641h7.426a4.678,4.678,0,0,1,4.673,4.673Z" transform="translate(-1236.189 -1039.841)" fill="#75b62f"/>
          </g>
          <g id="Grupo_108690" data-name="Grupo 108690" transform="translate(32.165 20.82)">
            <path id="Trazado_158629" data-name="Trazado 158629" d="M982.811,727.177h-49.7a4.616,4.616,0,0,0-4.61,4.61v74.551a4.616,4.616,0,0,0,4.61,4.611h49.7a4.617,4.617,0,0,0,4.611-4.611V731.787A4.617,4.617,0,0,0,982.811,727.177Zm-48.493,10.229h47.288a.621.621,0,1,1,0,1.243H934.318a.621.621,0,1,1,0-1.243Zm0,8.867h47.288a.621.621,0,0,1,0,1.243H934.318a.621.621,0,0,1,0-1.243Zm0,8.867h47.288a.621.621,0,0,1,0,1.243H934.318a.621.621,0,0,1,0-1.243Zm0,8.867h47.288a.621.621,0,1,1,0,1.243H934.318a.621.621,0,1,1,0-1.243Zm0,8.867h47.288a.621.621,0,1,1,0,1.242H934.318a.621.621,0,1,1,0-1.242Zm47.288,27.844H934.318a.621.621,0,0,1,0-1.243h47.288a.621.621,0,0,1,0,1.243Zm0-8.867H934.318a.621.621,0,1,1,0-1.242h47.288a.621.621,0,1,1,0,1.242Zm-47.288-8.867a.621.621,0,1,1,0-1.243h47.288a.621.621,0,1,1,0,1.243Z" transform="translate(-927.258 -725.935)" fill="#fff"/>
            <path id="Trazado_158630" data-name="Trazado 158630" d="M987.422,797.007v9.331a4.617,4.617,0,0,1-4.611,4.611h-49.7a4.616,4.616,0,0,1-4.61-4.611V731.787a4.616,4.616,0,0,1,4.61-4.61h30.661c.45,2.829,1.057,6.294,1.864,10.229q.127.613.259,1.243c.5,2.393,1.077,4.945,1.731,7.624q.151.617.307,1.243c.613,2.452,1.29,5,2.038,7.625.118.412.237.826.36,1.243.724,2.488,1.513,5.035,2.373,7.624q.2.619.416,1.243,1.275,3.771,2.754,7.625.237.621.482,1.242c1,2.535,2.06,5.083,3.2,7.625q.278.622.561,1.243A147.665,147.665,0,0,0,987.422,797.007Z" transform="translate(-927.258 -725.935)" opacity="0.2"/>
            <path id="Trazado_158631" data-name="Trazado 158631" d="M974.051,717.179h-49.7a5.86,5.86,0,0,0-5.853,5.853v74.55a5.86,5.86,0,0,0,5.853,5.853h49.7a5.859,5.859,0,0,0,5.853-5.853v-74.55A5.859,5.859,0,0,0,974.051,717.179Zm4.61,80.4a4.616,4.616,0,0,1-4.61,4.61h-49.7a4.616,4.616,0,0,1-4.61-4.61v-74.55a4.616,4.616,0,0,1,4.61-4.61h49.7a4.616,4.616,0,0,1,4.61,4.61Z" transform="translate(-918.498 -717.179)"/>
            <path id="Trazado_158632" data-name="Trazado 158632" d="M1018.217,809.5H970.929a.621.621,0,1,0,0,1.242h47.288a.621.621,0,0,0,0-1.242Z" transform="translate(-963.87 -798.029)"/>
            <path id="Trazado_158633" data-name="Trazado 158633" d="M1018.217,880.861H970.929a.621.621,0,1,0,0,1.243h47.288a.621.621,0,0,0,0-1.243Z" transform="translate(-963.87 -860.522)"/>
            <path id="Trazado_158634" data-name="Trazado 158634" d="M1018.217,952.221H970.929a.621.621,0,1,0,0,1.243h47.288a.621.621,0,0,0,0-1.243Z" transform="translate(-963.87 -923.015)"/>
            <path id="Trazado_158635" data-name="Trazado 158635" d="M1018.217,1023.58H970.929a.621.621,0,0,0,0,1.243h47.288a.621.621,0,0,0,0-1.243Z" transform="translate(-963.87 -985.507)"/>
            <path id="Trazado_158636" data-name="Trazado 158636" d="M1018.217,1094.941H970.929a.621.621,0,1,0,0,1.243h47.288a.621.621,0,0,0,0-1.243Z" transform="translate(-963.87 -1048)"/>
            <path id="Trazado_158637" data-name="Trazado 158637" d="M1018.217,1166.3H970.929a.621.621,0,1,0,0,1.242h47.288a.621.621,0,1,0,0-1.242Z" transform="translate(-963.87 -1110.493)"/>
            <path id="Trazado_158638" data-name="Trazado 158638" d="M1018.217,1237.66H970.929a.621.621,0,0,0,0,1.243h47.288a.621.621,0,0,0,0-1.243Z" transform="translate(-963.87 -1172.986)"/>
            <path id="Trazado_158639" data-name="Trazado 158639" d="M1018.217,1309.02H970.929a.621.621,0,1,0,0,1.242h47.288a.621.621,0,1,0,0-1.242Z" transform="translate(-963.87 -1235.479)"/>
          </g>
          <g id="Grupo_108691" data-name="Grupo 108691" transform="translate(19.058 18.011)">
            <path id="Trazado_158640" data-name="Trazado 158640" d="M847.86,615.13h-49.7a4.616,4.616,0,0,0-4.61,4.61v74.55a4.616,4.616,0,0,0,4.61,4.611h49.7a4.617,4.617,0,0,0,4.611-4.611V619.74A4.617,4.617,0,0,0,847.86,615.13Zm-48.493,10.229h47.288a.621.621,0,0,1,0,1.243H799.366a.621.621,0,1,1,0-1.243Zm0,8.867h47.288a.621.621,0,0,1,0,1.243H799.366a.621.621,0,0,1,0-1.243Zm0,8.867h47.288a.621.621,0,0,1,0,1.243H799.366a.621.621,0,1,1,0-1.243Zm0,8.867h47.288a.621.621,0,0,1,0,1.243H799.366a.621.621,0,1,1,0-1.243Zm47.288,36.711H799.366a.621.621,0,1,1,0-1.242h47.288a.621.621,0,0,1,0,1.242Zm0-8.867H799.366a.621.621,0,1,1,0-1.243h47.288a.621.621,0,0,1,0,1.243Zm0-8.867H799.366a.621.621,0,0,1,0-1.243h47.288a.621.621,0,0,1,0,1.243Zm0-8.867H799.366a.621.621,0,1,1,0-1.243h47.288a.621.621,0,0,1,0,1.243Z" transform="translate(-792.307 -613.888)" fill="#fff"/>
            <path id="Trazado_158641" data-name="Trazado 158641" d="M852.471,666.689v27.6a4.617,4.617,0,0,1-4.611,4.611h-49.7a4.616,4.616,0,0,1-4.61-4.611V619.74a4.616,4.616,0,0,1,4.61-4.61h44.382c-.221,3.653-.266,7.073-.193,10.229.009.419.021.834.035,1.243.091,2.765.271,5.313.495,7.624q.062.634.128,1.243.119,1.114.251,2.148c.247,1.956.528,3.78.829,5.476q.112.634.227,1.243c.563,2.96,1.183,5.5,1.784,7.625q.185.647.364,1.243a54.262,54.262,0,0,0,2.439,6.644A64.129,64.129,0,0,0,852.471,666.689Z" transform="translate(-792.307 -613.888)" opacity="0.2"/>
            <path id="Trazado_158642" data-name="Trazado 158642" d="M839.1,605.135H789.4a5.859,5.859,0,0,0-5.853,5.853v74.55a5.859,5.859,0,0,0,5.853,5.853h49.7a5.86,5.86,0,0,0,5.853-5.853v-74.55A5.859,5.859,0,0,0,839.1,605.135Zm4.61,80.4a4.616,4.616,0,0,1-4.61,4.61H789.4a4.616,4.616,0,0,1-4.61-4.61v-74.55a4.615,4.615,0,0,1,4.61-4.61h49.7a4.615,4.615,0,0,1,4.61,4.61Z" transform="translate(-783.551 -605.135)"/>
            <path id="Trazado_158643" data-name="Trazado 158643" d="M883.269,697.457H835.981a.621.621,0,0,0,0,1.243h47.288a.621.621,0,0,0,0-1.243Z" transform="translate(-828.922 -685.985)"/>
            <path id="Trazado_158644" data-name="Trazado 158644" d="M883.269,768.816H835.981a.621.621,0,0,0,0,1.243h47.288a.621.621,0,0,0,0-1.243Z" transform="translate(-828.922 -748.477)"/>
            <path id="Trazado_158645" data-name="Trazado 158645" d="M883.269,840.176H835.981a.621.621,0,0,0,0,1.243h47.288a.621.621,0,1,0,0-1.243Z" transform="translate(-828.922 -810.97)"/>
            <path id="Trazado_158646" data-name="Trazado 158646" d="M883.269,911.536H835.981a.621.621,0,0,0,0,1.243h47.288a.621.621,0,0,0,0-1.243Z" transform="translate(-828.922 -873.463)"/>
            <path id="Trazado_158647" data-name="Trazado 158647" d="M883.269,982.9H835.981a.621.621,0,0,0,0,1.243h47.288a.621.621,0,0,0,0-1.243Z" transform="translate(-828.922 -935.957)"/>
            <path id="Trazado_158648" data-name="Trazado 158648" d="M883.269,1054.256H835.981a.621.621,0,1,0,0,1.242h47.288a.621.621,0,1,0,0-1.242Z" transform="translate(-828.922 -998.449)"/>
            <path id="Trazado_158649" data-name="Trazado 158649" d="M883.269,1125.616H835.981a.621.621,0,0,0,0,1.243h47.288a.621.621,0,1,0,0-1.243Z" transform="translate(-828.922 -1060.942)"/>
            <path id="Trazado_158650" data-name="Trazado 158650" d="M883.269,1196.976H835.981a.621.621,0,0,0,0,1.243h47.288a.621.621,0,1,0,0-1.243Z" transform="translate(-828.922 -1123.434)"/>
          </g>
          <g id="Grupo_108692" data-name="Grupo 108692" transform="translate(12.23 0)">
            <path id="Trazado_158651" data-name="Trazado 158651" d="M1037.262,1006.239h9.9V998.5l-5.208,5.208a.621.621,0,0,1-.879,0l-3.418-3.418a.621.621,0,0,1,.879-.879l2.978,2.979,5.647-5.647v-.4h-9.9Z" transform="translate(-993.583 -929.717)" fill="#fff"/>
            <path id="Trazado_158652" data-name="Trazado 158652" d="M1037.262,550.983h9.9V543.24l-5.208,5.208a.621.621,0,0,1-.879,0l-3.418-3.418a.621.621,0,1,1,.879-.879l2.978,2.979,5.647-5.647v-.4h-9.9Z" transform="translate(-993.583 -531.031)" fill="#fff"/>
            <path id="Trazado_158653" data-name="Trazado 158653" d="M1037.262,854.487h9.9v-7.3l-5.208,5.208a.621.621,0,0,1-.879,0l-3.418-3.418a.621.621,0,0,1,.879-.878l2.978,2.978,5.647-5.647v-.838h-9.9Z" transform="translate(-993.583 -796.822)" fill="#fff"/>
            <path id="Trazado_158654" data-name="Trazado 158654" d="M1037.262,702.735h9.9v-7.743l-5.208,5.208a.621.621,0,0,1-.879,0l-3.418-3.418a.621.621,0,0,1,.879-.879l2.978,2.978,5.647-5.647v-.4h-9.9Z" transform="translate(-993.583 -663.926)" fill="#fff"/>
            <path id="Trazado_158655" data-name="Trazado 158655" d="M750.052,470.187h-49.7a4.616,4.616,0,0,0-4.611,4.61v74.55a4.616,4.616,0,0,0,4.611,4.61h49.7a4.615,4.615,0,0,0,4.61-4.61V474.8A4.615,4.615,0,0,0,750.052,470.187Zm-13.117,8.189a.622.622,0,0,1,.621-.621H748.7a.617.617,0,0,1,.588.432l.569-.569a.621.621,0,0,1,.879.878l-1.414,1.415v9.606a.622.622,0,0,1-.621.621H737.557a.622.622,0,0,1-.621-.621Zm0,18.856a.622.622,0,0,1,.621-.621H748.7a.617.617,0,0,1,.588.432l.569-.569a.622.622,0,0,1,.879.88l-1.414,1.414v9.606a.622.622,0,0,1-.621.621H737.557a.622.622,0,0,1-.621-.621Zm0,18.856a.622.622,0,0,1,.621-.621H748.7a.622.622,0,0,1,.621.621v.218l.536-.536a.621.621,0,0,1,.879.879l-1.414,1.414v9.168a.621.621,0,0,1-.621.621H737.557a.621.621,0,0,1-.621-.621Zm-35.38-36.059h30.273a.621.621,0,0,1,0,1.243H701.555a.621.621,0,1,1,0-1.243Zm0,6.592h30.273a.621.621,0,0,1,0,1.243H701.555a.621.621,0,0,1,0-1.243Zm0,12.264h30.273a.621.621,0,0,1,0,1.243H701.555a.621.621,0,1,1,0-1.243Zm0,6.592h30.273a.621.621,0,0,1,0,1.243H701.555a.621.621,0,1,1,0-1.243Zm0,12.264h30.273a.621.621,0,0,1,0,1.243H701.555a.621.621,0,1,1,0-1.243Zm0,6.592h30.273a.621.621,0,0,1,0,1.242H701.555a.621.621,0,1,1,0-1.242Zm30.273,20.1H701.555a.621.621,0,1,1,0-1.243h30.273a.621.621,0,0,1,0,1.243Zm0-6.591H701.555a.621.621,0,1,1,0-1.243h30.273a.621.621,0,0,1,0,1.243Zm17.493,8.246a.621.621,0,0,1-.621.621H737.557a.621.621,0,0,1-.621-.621V534.945a.622.622,0,0,1,.621-.621H748.7a.618.618,0,0,1,.588.432l.569-.568a.621.621,0,0,1,.879.879l-1.414,1.414Z" transform="translate(-694.499 -468.945)" fill="#fff"/>
            <path id="Trazado_158656" data-name="Trazado 158656" d="M754.662,940.889v12.753a4.615,4.615,0,0,1-4.61,4.61h-49.7a4.616,4.616,0,0,1-4.611-4.61v-21.8c4.706,2.576,16.145,6.935,41.194,8.482,3.806.235,7.927.405,12.386.495Q751.914,940.876,754.662,940.889Z" transform="translate(-694.499 -873.239)" opacity="0.2"/>
            <path id="Trazado_158657" data-name="Trazado 158657" d="M741.3,460.188H691.6a5.859,5.859,0,0,0-5.853,5.853v74.55a5.859,5.859,0,0,0,5.853,5.853h49.7a5.86,5.86,0,0,0,5.853-5.853v-74.55A5.859,5.859,0,0,0,741.3,460.188Zm4.61,80.4a4.616,4.616,0,0,1-4.61,4.61H691.6a4.615,4.615,0,0,1-4.61-4.61v-74.55a4.615,4.615,0,0,1,4.61-4.61h49.7a4.616,4.616,0,0,1,4.61,4.61Z" transform="translate(-685.745 -460.188)"/>
            <path id="Trazado_158658" data-name="Trazado 158658" d="M1040.183,834.89l-.536.536v-.217a.621.621,0,0,0-.621-.621h-11.143a.621.621,0,0,0-.621.621v11.143a.621.621,0,0,0,.621.621h11.143a.621.621,0,0,0,.621-.621v-9.169l1.414-1.414a.621.621,0,0,0-.879-.879Zm-1.778,1.778-5.647,5.647-2.979-2.979a.621.621,0,0,0-.879.879l3.418,3.418a.621.621,0,0,0,.879,0l5.208-5.208v7.3h-9.9v-9.9h9.9Z" transform="translate(-984.825 -788.064)"/>
            <path id="Trazado_158659" data-name="Trazado 158659" d="M768.425,549.4H738.151a.621.621,0,1,0,0,1.243h30.274a.621.621,0,0,0,0-1.243Z" transform="translate(-731.095 -538.313)"/>
            <path id="Trazado_158660" data-name="Trazado 158660" d="M768.425,602.443H738.151a.621.621,0,1,0,0,1.243h30.274a.621.621,0,0,0,0-1.243Z" transform="translate(-731.095 -584.767)"/>
            <path id="Trazado_158661" data-name="Trazado 158661" d="M1040.183,528.708l-.568.568a.619.619,0,0,0-.589-.432h-11.143a.621.621,0,0,0-.621.621v11.143a.621.621,0,0,0,.621.621h11.143a.621.621,0,0,0,.621-.621V531l1.414-1.414a.621.621,0,0,0-.879-.879Zm-1.778,1.778-5.647,5.647-2.979-2.978a.621.621,0,0,0-.879.879l3.418,3.418a.621.621,0,0,0,.879,0l5.208-5.208v7.743h-9.9v-9.9h9.9Z" transform="translate(-984.825 -520.034)"/>
            <path id="Trazado_158662" data-name="Trazado 158662" d="M768.425,701.149H738.151a.621.621,0,0,0,0,1.243h30.274a.621.621,0,0,0,0-1.243Z" transform="translate(-731.095 -671.207)"/>
            <path id="Trazado_158663" data-name="Trazado 158663" d="M768.425,754.195H738.151a.621.621,0,1,0,0,1.243h30.274a.621.621,0,0,0,0-1.243Z" transform="translate(-731.095 -717.662)"/>
            <path id="Trazado_158664" data-name="Trazado 158664" d="M1040.183,680.46l-.568.568a.619.619,0,0,0-.589-.432h-11.143a.621.621,0,0,0-.621.621V692.36a.621.621,0,0,0,.621.621h11.143a.621.621,0,0,0,.621-.621v-9.607l1.414-1.414a.621.621,0,0,0-.879-.878Zm-1.778,1.778-5.647,5.648-2.979-2.979a.621.621,0,0,0-.879.879l3.418,3.417a.621.621,0,0,0,.879,0L1038.4,684v7.743h-9.9v-9.9h9.9Z" transform="translate(-984.825 -652.93)"/>
            <path id="Trazado_158665" data-name="Trazado 158665" d="M768.425,852.9H738.151a.621.621,0,0,0,0,1.243h30.274a.621.621,0,0,0,0-1.243Z" transform="translate(-731.095 -804.103)"/>
            <path id="Trazado_158666" data-name="Trazado 158666" d="M768.425,905.947H738.151a.621.621,0,0,0,0,1.243h30.274a.621.621,0,0,0,0-1.243Z" transform="translate(-731.095 -850.557)"/>
            <path id="Trazado_158667" data-name="Trazado 158667" d="M768.425,1004.652H738.151a.621.621,0,1,0,0,1.243h30.274a.621.621,0,0,0,0-1.243Z" transform="translate(-731.095 -936.997)"/>
            <path id="Trazado_158668" data-name="Trazado 158668" d="M768.425,1057.7H738.151a.621.621,0,1,0,0,1.243h30.274a.621.621,0,0,0,0-1.243Z" transform="translate(-731.095 -983.453)"/>
            <path id="Trazado_158669" data-name="Trazado 158669" d="M1040.183,983.963l-.568.568a.619.619,0,0,0-.589-.432h-11.143a.621.621,0,0,0-.621.621v11.143a.621.621,0,0,0,.621.621h11.143a.621.621,0,0,0,.621-.621v-9.607l1.414-1.414a.621.621,0,0,0-.879-.878Zm-1.778,1.778-5.647,5.647-2.979-2.979a.621.621,0,0,0-.879.879l3.418,3.417a.621.621,0,0,0,.879,0l5.208-5.208v7.743h-9.9v-9.9h9.9Z" transform="translate(-984.825 -918.72)"/>
          </g>
          <g id="Grupo_108693" data-name="Grupo 108693" transform="translate(0 51.173)">
            <path id="Trazado_158670" data-name="Trazado 158670" d="M627.936,979.945H601.994a5.911,5.911,0,0,0-4.673,2.295v-6.121a4.678,4.678,0,0,1,4.673-4.672H612.53a17.12,17.12,0,0,1,7.931,2.47,9.988,9.988,0,0,1,1.057.75Z" transform="translate(-596.079 -970.204)" fill="#dce736"/>
            <path id="Trazado_158671" data-name="Trazado 158671" d="M671.81,997.355h-24.39c5.813-.762,16.406-2.612,16.915-6.025v0a9.992,9.992,0,0,1,1.057.75Z" transform="translate(-639.953 -987.614)" fill="#dce736"/>
            <path id="Trazado_158672" data-name="Trazado 158672" d="M599.809,977.36a4.678,4.678,0,0,1,4.673-4.673h10.536a15.659,15.659,0,0,1,5.447,1.23,17.108,17.108,0,0,0-7.932-2.472H602a4.678,4.678,0,0,0-4.673,4.673v6.121a5.947,5.947,0,0,1,2.485-1.872Z" transform="translate(-596.081 -970.202)" fill="#d3a98b"/>
            <path id="Trazado_158673" data-name="Trazado 158673" d="M673.122,1054.51v50.3a4.451,4.451,0,0,1-4.177,4.673H601.5a3.679,3.679,0,0,1-.667-.06,4.554,4.554,0,0,1-3.512-4.614v-50.3a4.451,4.451,0,0,1,4.178-4.673h67.447a3.833,3.833,0,0,1,2.223.718A4.824,4.824,0,0,1,673.122,1054.51Z" transform="translate(-596.079 -1038.854)" fill="#75b62f"/>
            <path id="Trazado_158674" data-name="Trazado 158674" d="M700.8,1059.572v50.3a4.441,4.441,0,0,1-4.153,4.673H629.585a3.671,3.671,0,0,1-.663-.059h0s69.931-9.047,69.931-58.338c0-.177,0-.352,0-.524A4.833,4.833,0,0,1,700.8,1059.572Z" transform="translate(-623.752 -1043.915)" fill="#dce736"/>
            <path id="Trazado_158675" data-name="Trazado 158675" d="M599.541,1106.051v-50.295a4.448,4.448,0,0,1,4.169-4.673h67.308a3.716,3.716,0,0,1,.667.061,3.932,3.932,0,0,0-2.884-1.3H601.493a4.448,4.448,0,0,0-4.169,4.673v50.3a4.553,4.553,0,0,0,3.5,4.612A4.943,4.943,0,0,1,599.541,1106.051Z" transform="translate(-596.081 -1038.857)" fill="#d3a98b"/>
            <path id="Trazado_158676" data-name="Trazado 158676" d="M660.3,971.186H617.655l-6.8-6.237a15.064,15.064,0,0,0-8.771-3.5H592.63c-2.926,0-5.306,2.654-5.306,5.916V1027.4c0,3.262,2.38,5.916,5.306,5.916H660.3c2.926,0,5.306-2.654,5.306-5.916V977.1C665.611,973.84,663.23,971.186,660.3,971.186Zm-71.866-3.826a4.457,4.457,0,0,1,4.192-4.673h9.451a14.073,14.073,0,0,1,8.063,3.221l5.756,5.277H592.63a5.129,5.129,0,0,0-4.192,2.295ZM664.5,1027.4a4.457,4.457,0,0,1-4.192,4.673H592.63a4.457,4.457,0,0,1-4.192-4.673V977.1a4.457,4.457,0,0,1,4.192-4.673H660.3A4.457,4.457,0,0,1,664.5,977.1Z" transform="translate(-587.324 -961.445)"/>
          </g>
        </g>
      </g>
    </g>
  </g>
</svg>
