<svg xmlns="http://www.w3.org/2000/svg" width="136" height="136" viewBox="0 0 136 136">
  <g id="Grupo_109421" data-name="Grupo 109421" transform="translate(-383 10807)">
    <g id="Trazado_161147" data-name="Trazado 161147" transform="translate(383 -10807)" fill="#fff">
      <path d="M 68 133.5 C 59.15645980834961 133.5 50.57875823974609 131.7685394287109 42.50521850585938 128.3537139892578 C 38.62459945678711 126.7123565673828 34.88156127929688 124.6806793212891 31.38007926940918 122.3151016235352 C 27.91119956970215 119.9715805053711 24.64913940429688 117.2801208496094 21.68449974060059 114.3154983520508 C 18.71987915039062 111.3508605957031 16.02841949462891 108.0887985229492 13.68490028381348 104.6199188232422 C 11.31931972503662 101.1184387207031 9.287639617919922 97.37539672851562 7.646279811859131 93.49478149414062 C 4.231460094451904 85.42124176025391 2.5 76.84353637695312 2.5 68 C 2.5 59.15645980834961 4.231460094451904 50.57875823974609 7.646279811859131 42.50521850585938 C 9.287639617919922 38.62459945678711 11.31931972503662 34.88156127929688 13.68490028381348 31.38007926940918 C 16.02841949462891 27.91119956970215 18.71987915039062 24.64913940429688 21.68449974060059 21.68449974060059 C 24.64913940429688 18.71987915039062 27.91119956970215 16.02841949462891 31.38007926940918 13.68490028381348 C 34.88156127929688 11.31931972503662 38.62459945678711 9.287639617919922 42.50521850585938 7.646279811859131 C 50.57875823974609 4.231460094451904 59.15645980834961 2.5 68 2.5 C 76.84353637695312 2.5 85.42124176025391 4.231460094451904 93.49478149414062 7.646279811859131 C 97.37539672851562 9.287639617919922 101.1184387207031 11.31931972503662 104.6199188232422 13.68490028381348 C 108.0887985229492 16.02841949462891 111.3508605957031 18.71987915039062 114.3154983520508 21.68449974060059 C 117.2801208496094 24.64913940429688 119.9715805053711 27.91119956970215 122.3151016235352 31.38007926940918 C 124.6806793212891 34.88156127929688 126.7123565673828 38.62459945678711 128.3537139892578 42.50521850585938 C 131.7685394287109 50.57875823974609 133.5 59.15645980834961 133.5 68 C 133.5 76.84353637695312 131.7685394287109 85.42124176025391 128.3537139892578 93.49478149414062 C 126.7123565673828 97.37539672851562 124.6806793212891 101.1184387207031 122.3151016235352 104.6199188232422 C 119.9715805053711 108.0887985229492 117.2801208496094 111.3508605957031 114.3154983520508 114.3154983520508 C 111.3508605957031 117.2801208496094 108.0887985229492 119.9715805053711 104.6199188232422 122.3151016235352 C 101.1184387207031 124.6806793212891 97.37539672851562 126.7123565673828 93.49478149414062 128.3537139892578 C 85.42124176025391 131.7685394287109 76.84353637695312 133.5 68 133.5 Z" stroke="none"/>
      <path d="M 68 5 C 59.49285125732422 5 51.24282836914062 6.665023803710938 43.47908782958984 9.948806762695312 C 39.74715423583984 11.52728271484375 36.14732360839844 13.48123931884766 32.77958679199219 15.75645446777344 C 29.44254302978516 18.01089477539062 26.30438995361328 20.60015106201172 23.45226287841797 23.45226287841797 C 20.60015106201172 26.30438995361328 18.01089477539062 29.44254302978516 15.75645446777344 32.77958679199219 C 13.48123931884766 36.14732360839844 11.52728271484375 39.74715423583984 9.948806762695312 43.47908782958984 C 6.665023803710938 51.24282836914062 5 59.49285125732422 5 68 C 5 76.50715637207031 6.665023803710938 84.75717163085938 9.948806762695312 92.52091217041016 C 11.52728271484375 96.25282287597656 13.48123931884766 99.85267639160156 15.75645446777344 103.2204132080078 C 18.01089477539062 106.5574340820312 20.60015106201172 109.6956100463867 23.45226287841797 112.5477142333984 C 26.30438995361328 115.3998489379883 29.44254302978516 117.9890899658203 32.77958679199219 120.2435455322266 C 36.14732360839844 122.5187377929688 39.74715423583984 124.4727172851562 43.47908782958984 126.0511932373047 C 51.24282836914062 129.3349761962891 59.49285125732422 131 68 131 C 76.50715637207031 131 84.75717163085938 129.3349761962891 92.52088928222656 126.0511932373047 C 96.25282287597656 124.4727172851562 99.85267639160156 122.5187377929688 103.2204132080078 120.2435455322266 C 106.5574340820312 117.9890899658203 109.6956100463867 115.3998489379883 112.5477142333984 112.5477142333984 C 115.3998489379883 109.6956100463867 117.9890899658203 106.5574340820312 120.2435455322266 103.2204132080078 C 122.5187377929688 99.85267639160156 124.4727172851562 96.25282287597656 126.0511932373047 92.52088928222656 C 129.3349761962891 84.75717163085938 131 76.50715637207031 131 68 C 131 59.49285125732422 129.3349761962891 51.24282836914062 126.0511932373047 43.47908782958984 C 124.4727172851562 39.74715423583984 122.5187377929688 36.14732360839844 120.2435455322266 32.77958679199219 C 117.9890899658203 29.44254302978516 115.3998489379883 26.30438995361328 112.5477142333984 23.45226287841797 C 109.6956100463867 20.60015106201172 106.5574340820312 18.01089477539062 103.2204132080078 15.75645446777344 C 99.85267639160156 13.48123931884766 96.25282287597656 11.52728271484375 92.52091217041016 9.948806762695312 C 84.75717163085938 6.665023803710938 76.50715637207031 5 68 5 M 68 0 C 105.5553436279297 0 136 30.44463348388672 136 68 C 136 105.5553436279297 105.5553436279297 136 68 136 C 30.44463348388672 136 0 105.5553436279297 0 68 C 0 30.44463348388672 30.44463348388672 0 68 0 Z" stroke="none" fill="#3e4bbf"/>
    </g>
    <path id="Trazado_160397" data-name="Trazado 160397" d="M-88.1-237.158v8.133a19.3,19.3,0,0,0-4.144.27,2.127,2.127,0,0,0-1.388,1.253q-.443.983-.443,5.57v31.956a23.582,23.582,0,0,0,.347,5.339,2.09,2.09,0,0,0,1.291,1.407,16.225,16.225,0,0,0,4.337.347v8.133h-4.9q-6.784,0-9.964-1.253a7.016,7.016,0,0,1-4.2-3.681q-1.021-2.429-1.021-10.331v-31.878q0-7.864,1-10.331a6.873,6.873,0,0,1,4.279-3.7q3.277-1.234,9.907-1.234Zm16.729,0h4.9q6.63,0,9.907,1.234a6.873,6.873,0,0,1,4.279,3.7q1,2.467,1,10.331v31.878q0,7.9-1,10.331a6.944,6.944,0,0,1-4.2,3.681q-3.2,1.253-9.984,1.253h-4.9v-8.133a16.2,16.2,0,0,0,4.356-.347,2.149,2.149,0,0,0,1.291-1.407,22.371,22.371,0,0,0,.366-5.339v-31.956q0-4.587-.463-5.57a2.185,2.185,0,0,0-1.407-1.253,19.3,19.3,0,0,0-4.144-.27Z" transform="translate(531.179 -10532.842)" fill="#f85316"/>
  </g>
</svg>
