<svg xmlns="http://www.w3.org/2000/svg" width="100" height="98.785" viewBox="0 0 100 98.785">
  <g id="Grupo_109491" data-name="Grupo 109491" transform="translate(5823.434 2009.893)">
    <g id="Grupo_109490" data-name="Grupo 109490">
      <g id="casa" transform="translate(-5823.434 -2013.003)">
        <path id="Trazado_160935" data-name="Trazado 160935" d="M139.852,61.086v56.753H65.4V61.086l37.438-36.317Z" transform="translate(-52.624 -17.429)" fill="#e9eaef"/>
        <path id="Trazado_160936" data-name="Trazado 160936" d="M353.334,64.928V54.445h18.614v28.21" transform="translate(-284.323 -41.309)" fill="#9eb1b7"/>
        <g id="Grupo_109323" data-name="Grupo 109323" transform="translate(1.485 88.517)">
          <rect id="Rectángulo_40647" data-name="Rectángulo 40647" width="44.951" height="11.893" transform="translate(52.079)" fill="#85c10d"/>
          <rect id="Rectángulo_40648" data-name="Rectángulo 40648" width="15.758" height="11.893" fill="#85c10d"/>
        </g>
        <path id="Trazado_160938" data-name="Trazado 160938" d="M56.95,21.164,14.564,61.631,8.637,56.656l45.358-43.2,2.955-2.745,2.955,2.745,45.358,43.2-5.927,4.975Z" transform="translate(-6.95 -6.119)" fill="#f85316"/>
        <path id="Trazado_160943" data-name="Trazado 160943" d="M0,0H24.554V42.521H0Z" transform="translate(21.881 57.889)" fill="#f85316"/>
        <rect id="Rectángulo_40650" data-name="Rectángulo 40650" width="27.962" height="24.554" transform="translate(53.564 57.889)" fill="#a0d9f2"/>
        <rect id="Rectángulo_40651" data-name="Rectángulo 40651" width="27.962" height="7.461" transform="translate(53.564 57.889)" fill="#dce736"/>
        <circle id="Elipse_5310" data-name="Elipse 5310" cx="6.831" cy="6.831" r="6.831" transform="translate(43.169 32.085)" fill="#75b62f"/>
        <path id="Trazado_160939" data-name="Trazado 160939" d="M266.649,277.459v24.555a1.485,1.485,0,0,0,1.485,1.485H296.1a1.485,1.485,0,0,0,1.485-1.485V277.459a1.485,1.485,0,0,0-1.485-1.485H268.134A1.485,1.485,0,0,0,266.649,277.459Zm2.97,23.069V286.405H294.61v14.123Zm24.991-21.584v4.491H269.619v-4.491Z" transform="translate(-214.569 -219.57)"/>
        <path id="Trazado_160940" data-name="Trazado 160940" d="M98.515,87.032h-9.8V54.06l2.647,2.527a1.485,1.485,0,0,0,1.98.063L99.235,51.7a1.553,1.553,0,0,0,.459-.616,1.488,1.488,0,0,0-.357-1.624L89.11,39.722V25.664a1.485,1.485,0,0,0-1.485-1.485h0a1.485,1.485,0,0,0-1.485,1.485V36.893L70.5,21.995V14.622H86.139v4.111a1.485,1.485,0,0,0,1.485,1.485h0a1.485,1.485,0,0,0,1.485-1.485v-5.6a1.485,1.485,0,0,0-1.485-1.485H69.011a1.485,1.485,0,0,0-1.485,1.485v6.029L53.966,6.252,51.011,3.507a1.485,1.485,0,0,0-2.022,0L46.02,6.265.663,49.462a1.488,1.488,0,0,0-.357,1.624,1.555,1.555,0,0,0,.459.616L6.659,56.65a1.485,1.485,0,0,0,1.98-.063l2.648-2.529v9.721a1.485,1.485,0,0,0,1.485,1.485h0a1.485,1.485,0,0,0,1.485-1.485V51.222L50,17.1,85.743,51.224V87.033H53.565a1.485,1.485,0,0,0-1.485,1.485V98.925H47.921V57.889A1.485,1.485,0,0,0,46.436,56.4H21.882A1.485,1.485,0,0,0,20.4,57.889V98.925H18.728V88.518a1.485,1.485,0,0,0-1.485-1.485H14.258V70.71a1.485,1.485,0,0,0-1.485-1.485h0a1.485,1.485,0,0,0-1.485,1.485V87.033h-9.8A1.485,1.485,0,0,0,0,88.518V100.41A1.485,1.485,0,0,0,1.485,101.9h97.03A1.485,1.485,0,0,0,100,100.41V88.518A1.485,1.485,0,0,0,98.515,87.032ZM50,13.56a1.482,1.482,0,0,0-1.026.411L7.55,53.52,3.914,50.468,48.055,8.429,50,6.622l1.931,1.794L96.086,50.468,92.45,53.52,51.026,13.971A1.482,1.482,0,0,0,50,13.56ZM2.97,90H15.757v8.922H2.97Zm20.4,8.922V59.374H44.951v39.55Zm73.663,0H55.05V90H97.03v8.922Z" transform="translate(0 0)"/>
        <path id="Trazado_160941" data-name="Trazado 160941" d="M192.177,384.129h-3.564a1.485,1.485,0,1,0,0,2.97h3.564a1.485,1.485,0,1,0,0-2.97Z" transform="translate(-150.58 -306.601)"/>
        <path id="Trazado_160942" data-name="Trazado 160942" d="M221.739,143.856a8.317,8.317,0,1,0,8.316,8.317A8.326,8.326,0,0,0,221.739,143.856Zm0,13.663a5.346,5.346,0,1,1,5.346-5.346A5.352,5.352,0,0,1,221.739,157.519Z" transform="translate(-171.739 -113.256)"/>
      </g>
    </g>
  </g>
</svg>
