<svg xmlns="http://www.w3.org/2000/svg" width="100" height="96.875" viewBox="0 0 100 96.875">
  <g id="Grupo_109496" data-name="Grupo 109496" transform="translate(4883.387 2017.611)">
    <g id="mascotas" transform="translate(-4883.387 -2025.611)">
      <path id="Trazado_160995" data-name="Trazado 160995" d="M328.625,303.445c0,12.081-9.094,12.3-20.312,12.3S288,315.526,288,303.445,297.094,272,308.312,272,328.625,291.364,328.625,303.445Z" transform="translate(-231.75 -212.438)" fill="#7e8589"/>
      <path id="Trazado_160996" data-name="Trazado 160996" d="M330.373,296.625a3.125,3.125,0,0,1,3.122,3.266,3.19,3.19,0,0,1-3.219,2.984h-9.267a3.136,3.136,0,0,1-3.136-3.136v-3.1a.01.01,0,0,0-.01-.01,3.136,3.136,0,0,1-3.108-3.124h-.014a3.136,3.136,0,0,1-3.108,3.124.01.01,0,0,0-.01.01v3.1a3.136,3.136,0,0,1-3.136,3.136h-9.267a3.19,3.19,0,0,1-3.22-2.984,3.125,3.125,0,0,1,3.122-3.266h1.552a.011.011,0,0,0,.011-.011V268.5a12.5,12.5,0,0,1,12.5-12.5h3.125a12.5,12.5,0,0,1,12.5,12.5v28.114a.011.011,0,0,0,.011.011Z" transform="translate(-238.186 -199.563)" fill="#9aa3a8"/>
      <path id="Trazado_160997" data-name="Trazado 160997" d="M377.375,346.045c0,4.315-2.1,5.58-4.687,5.58S368,350.359,368,346.045,370.1,336,372.687,336,377.375,341.73,377.375,346.045Z" transform="translate(-296.125 -263.938)" fill="#7e8589"/>
      <rect id="Rectángulo_40661" data-name="Rectángulo 40661" width="31.182" height="9.355" rx="4.677" transform="translate(67.042 93.96)" fill="#b6b9ba"/>
      <path id="Trazado_160998" data-name="Trazado 160998" d="M353.375,448v9.375h-4.906A4.47,4.47,0,0,1,344,452.906v-.437A4.47,4.47,0,0,1,348.469,448Z" transform="translate(-276.813 -354.063)" fill="#7e8589"/>
      <path id="Trazado_160999" data-name="Trazado 160999" d="M338.375,125.887V105.944a1.93,1.93,0,0,0-2.953-1.636l-7.984,5.954h-12.5l-7.984-5.954A1.93,1.93,0,0,0,304,105.944v19.943Z" transform="translate(-244.625 -77.262)" fill="#9aa3a8"/>
      <path id="Trazado_161000" data-name="Trazado 161000" d="M338.375,139.034c0,10.355-6.113,12.216-17.187,12.216S304,149.389,304,139.034,310.113,120,321.187,120,338.375,128.679,338.375,139.034Z" transform="translate(-244.625 -90.125)" fill="#b6b9ba"/>
      <path id="Trazado_161001" data-name="Trazado 161001" d="M8,448H36.125v9.375H17.375A9.375,9.375,0,0,1,8,448Z" transform="translate(-6.438 -354.063)" fill="#8c5237"/>
      <path id="Trazado_161002" data-name="Trazado 161002" d="M94.875,275.937C94.875,289.744,84.381,290,71.437,290S48,289.744,48,275.937,58.493,240,71.437,240,94.875,262.13,94.875,275.937Z" transform="translate(-38.625 -186.688)" fill="#b37a60"/>
      <path id="Trazado_161003" data-name="Trazado 161003" d="M96.625,258a3.125,3.125,0,1,1,0,6.25h-12.5A3.125,3.125,0,0,1,81,261.125V258a3.136,3.136,0,0,1-3.118-3.124h-.014A3.136,3.136,0,0,1,74.75,258v3.125a3.125,3.125,0,0,1-3.125,3.125h-12.5a3.125,3.125,0,0,1,0-6.25h1.562V223.625A15.625,15.625,0,0,1,76.312,208h3.125a15.625,15.625,0,0,1,15.625,15.625V258Z" transform="translate(-45.063 -160.938)" fill="#d49073"/>
      <path id="Trazado_161004" data-name="Trazado 161004" d="M143.625,302.062c0,6.041-3.5,7.812-7.812,7.812S128,308.1,128,302.062,131.5,288,135.812,288,143.625,296.022,143.625,302.062Z" transform="translate(-103 -225.313)" fill="#b37a60"/>
      <path id="Trazado_161005" data-name="Trazado 161005" d="M57,32H46.416a8.383,8.383,0,0,0-5.041,3.145l-8.2,11a9.431,9.431,0,0,0,8.214,13.976H57Z" transform="translate(-25.75 -19.313)" fill="#8c5237"/>
      <path id="Trazado_161006" data-name="Trazado 161006" d="M176,32h10.584a8.383,8.383,0,0,1,5.041,3.145l8.2,11a9.431,9.431,0,0,1-8.214,13.976H176Z" transform="translate(-141.625 -19.313)" fill="#8c5237"/>
      <path id="Trazado_161007" data-name="Trazado 161007" d="M90.75,16c-7.812,0-10.937,4.687-14.062,14.062S72,39.437,72,45.687s3.125,10.881,6.25,10.881h25c3.125,0,6.25-4.631,6.25-10.881s-1.562-6.25-4.687-15.625S98.562,16,90.75,16Z" transform="translate(-57.938 -6.438)" fill="#c48669"/>
      <path id="Trazado_161008" data-name="Trazado 161008" d="M133.875,135.336c0,5.609-4.9,4.687-10.937,4.687S112,140.945,112,135.336s4.9-15.625,10.937-15.625S133.875,129.727,133.875,135.336Z" transform="translate(-90.125 -89.893)" fill="#f0c6a4"/>
      <path id="Trazado_161009" data-name="Trazado 161009" d="M94.648,54.148l3.483.7a1.563,1.563,0,1,0,.613-3.064l-3.531-.706c.064-.689.1-1.409.1-2.165,0-.069,0-.137,0-.206,0-.026,0-.052,0-.078V46.156l3.431-.686a1.563,1.563,0,0,0-.613-3.064l-2.819.564V28.682a3.493,3.493,0,0,0-5.344-2.961c-.037.023-.072.047-.106.073l-5.481,4.087a20.272,20.272,0,0,0-15.638,0l-5.482-4.088c-.034-.026-.07-.05-.106-.073a3.5,3.5,0,0,0-3.545-.092c-.085.047-.167.1-.247.152L51.252,14.9q-.037-.05-.078-.1a9.995,9.995,0,0,0-5.993-3.661,1.542,1.542,0,0,0-.222-.016H41.846A12.771,12.771,0,0,0,32.812,8a12.771,12.771,0,0,0-9.034,3.125H20.666a1.542,1.542,0,0,0-.222.016A9.99,9.99,0,0,0,14.45,14.8q-.04.047-.078.1l-8.2,11a1.57,1.57,0,0,0-.118.184A11.016,11.016,0,0,0,12.69,41.973c.636,4.559,2.832,8.188,5.641,9.368a17.032,17.032,0,0,0-4.269,11.346v4.106C10.2,73.95,7.812,82.517,7.812,89.25a24.16,24.16,0,0,0,.193,3.125H1.562A1.562,1.562,0,0,0,0,93.937a10.95,10.95,0,0,0,10.937,10.937H51.562a4.692,4.692,0,0,0,4.685-4.584c0,.036,0,.071,0,.107a4.729,4.729,0,0,0,4.781,4.477H93.968A6.039,6.039,0,0,0,100,98.843v-.436a6.013,6.013,0,0,0-1.782-4.276,21.024,21.024,0,0,0,.22-3.123c0-6.408-2.446-14.675-6.25-21.188v-.882a13.937,13.937,0,0,0-2.733-8.331c.227-.117.448-.239.662-.368A10.062,10.062,0,0,0,94.648,54.148Zm-2.988-25.8a.368.368,0,0,1,.527.332v8.19A18.351,18.351,0,0,0,90.5,34.5a17.192,17.192,0,0,0-3.161-2.934Zm-30.534.011a.349.349,0,0,1,.338-.011l4.317,3.219A17.188,17.188,0,0,0,62.62,34.5a18.353,18.353,0,0,0-1.682,2.369V31.589c0-.173,0-.346,0-.518V28.682a.349.349,0,0,1,.189-.321ZM53.155,53.619a1.562,1.562,0,0,0,1.839,1.226l3.483-.7a10.061,10.061,0,0,0,4.531,6.09c.2.123.422.247.654.37a13.956,13.956,0,0,0-2.73,8.33v.891a48.638,48.638,0,0,0-4.363,10.019,55.832,55.832,0,0,0-5.007-13.055V62.687a17.032,17.032,0,0,0-4.268-11.346c2.81-1.18,5.005-4.808,5.641-9.367a10.868,10.868,0,0,0,4.877-2.916v3.911l-2.819-.564a1.563,1.563,0,1,0-.613,3.064l3.431.686v2.412c0,.032,0,.062,0,.093,0,.083,0,.164,0,.247,0,.756.035,1.476.1,2.165l-3.531.706A1.562,1.562,0,0,0,53.155,53.619ZM51.562,74.28A43.631,43.631,0,0,1,54.687,89.25a14.625,14.625,0,0,1-1.293,6.623,4.663,4.663,0,0,0-1.832-.373Zm4.375,23.464a10.814,10.814,0,0,0,.526,1.014,4.679,4.679,0,0,0-.217,1.319,4.654,4.654,0,0,0-.5-2C55.813,97.969,55.875,97.857,55.937,97.744Zm2.7-1.641a13.7,13.7,0,0,1-.822-5.1,39.186,39.186,0,0,1,3.12-14.1V95.5a4.706,4.706,0,0,0-2.3.6Zm-35.2-50.647c0-5.149,4.633-14.019,9.375-14.019s9.375,8.87,9.375,14.019c0,2.416-1.293,3.168-9.375,3.168C25.664,48.625,23.437,48.188,23.437,45.456Zm25.347-28.64,8.1,10.861a7.892,7.892,0,0,1,.932,3.568v.043A7.944,7.944,0,0,1,53.118,38.6a18.17,18.17,0,0,0-2-8.276c-.73-1.7-1.638-3.807-2.765-7.19a39.934,39.934,0,0,0-3.906-8.881h.388A6.81,6.81,0,0,1,48.785,16.816ZM12.506,38.6A7.9,7.9,0,0,1,8.745,27.677l8.1-10.861a6.811,6.811,0,0,1,3.945-2.566h.388a39.993,39.993,0,0,0-3.906,8.881c-1.128,3.383-2.036,5.494-2.765,7.19A18.176,18.176,0,0,0,12.506,38.6Zm3.119.651a15.339,15.339,0,0,1,1.748-7.694c.713-1.658,1.69-3.928,2.86-7.437,3.319-9.958,6.259-12.994,12.58-12.994s9.261,3.036,12.58,12.994c1.17,3.508,2.146,5.779,2.86,7.437A15.339,15.339,0,0,1,50,39.25c0,5.723-2.776,9.375-4.687,9.375h-.825a5.988,5.988,0,0,0,.825-3.168c0-6.022-5.155-17.144-12.5-17.144s-12.5,11.122-12.5,17.144a5.988,5.988,0,0,0,.825,3.168h-.825C18.4,48.625,15.625,44.972,15.625,39.25ZM14.062,74.28V95.5a4.663,4.663,0,0,0-1.832.373,14.625,14.625,0,0,1-1.293-6.623A43.63,43.63,0,0,1,14.062,74.28ZM3.281,95.5H8.7a12.68,12.68,0,0,0,1.176,2.578,4.672,4.672,0,0,0-.273,3.556A7.834,7.834,0,0,1,3.281,95.5ZM32.812,83c-4.322,0-6.25-1.928-6.25-6.25,0-5.841,3.329-12.5,6.25-12.5s6.25,6.659,6.25,12.5C39.062,81.072,37.135,83,32.812,83Zm0,14.428a4.554,4.554,0,0,0,1.562.934v1.825a4.665,4.665,0,0,0,.269,1.562H30.981a4.665,4.665,0,0,0,.269-1.562V98.362a4.554,4.554,0,0,0,1.562-.934Zm18.75,4.322h-12.5a1.564,1.564,0,0,1-1.562-1.562V97.062A1.562,1.562,0,0,0,35.937,95.5a1.57,1.57,0,0,1-1.557-1.627c0-.022,0-.043-.005-.064V86.043c5.053-.54,7.812-3.791,7.812-9.294a23.047,23.047,0,0,0-2.46-10.009c-1.855-3.622-4.311-5.616-6.915-5.616s-5.06,1.995-6.914,5.616A23.034,23.034,0,0,0,23.437,76.75c0,5.5,2.759,8.754,7.812,9.294v7.765c0,.022,0,.043-.005.065A1.571,1.571,0,0,1,29.687,95.5a1.562,1.562,0,0,0-1.562,1.562v3.125a1.564,1.564,0,0,1-1.562,1.562h-12.5a1.562,1.562,0,0,1,0-3.125h6.25a1.562,1.562,0,1,0,0-3.125H17.187V62.687A13.947,13.947,0,0,1,22.411,51.75h20.8a13.947,13.947,0,0,1,5.224,10.937V95.5H45.312a1.562,1.562,0,1,0,0,3.125h6.25a1.562,1.562,0,0,1,0,3.125ZM68.75,98.843v-.436A2.91,2.91,0,0,1,71.656,95.5H75v6.25H71.656A2.91,2.91,0,0,1,68.75,98.843Zm7.812-12.718c-1.623,0-3.125-.487-3.125-4.018,0-4.381,2.148-8.482,3.125-8.482s3.125,4.1,3.125,8.482C79.687,85.638,78.185,86.125,76.562,86.125ZM96.874,98.843a2.91,2.91,0,0,1-2.907,2.907H78.125V95.5h4.687v1.562a1.562,1.562,0,1,0,3.125,0V95.5h3.125v1.562a1.562,1.562,0,0,0,1.562,1.562h.011A1.562,1.562,0,0,0,92.2,97.062c0-.4,0-1.562,0-1.562h1.774a2.91,2.91,0,0,1,2.907,2.907Zm-1.619-6.328a6.02,6.02,0,0,0-1.288-.14H92.187V76.89a39.192,39.192,0,0,1,3.125,14.117q0,.784-.057,1.507ZM89.062,68.937v4.687H87.5a1.562,1.562,0,1,0,0,3.125h1.562v3.125H87.5A1.562,1.562,0,0,0,87.5,83h1.562v9.375H78.125V89.1c2.194-.441,4.687-2.031,4.687-6.992a19.331,19.331,0,0,0-1.5-7.258c-1.547-3.595-3.437-4.349-4.75-4.349s-3.2.754-4.75,4.349a19.331,19.331,0,0,0-1.5,7.258c0,4.961,2.494,6.551,4.687,6.992v3.276H71.656a6.039,6.039,0,0,0-6.032,6.032v.436a5.994,5.994,0,0,0,.749,2.907H61.03a1.633,1.633,0,0,1-1.66-1.49,1.562,1.562,0,0,1,1.562-1.635h3.13a1.563,1.563,0,1,0,.01-3.125h-.016V83h1.568a1.562,1.562,0,0,0,0-3.125H64.057V76.75h1.568a1.562,1.562,0,1,0,0-3.125H64.057V68.937a10.855,10.855,0,0,1,2.687-7.177,40.35,40.35,0,0,0,9.818.927,40.071,40.071,0,0,0,9.806-.934,10.84,10.84,0,0,1,2.694,7.184ZM88.5,57.563a10.027,10.027,0,0,1-2.068.928c-.033.009-.066.02-.1.032a33.374,33.374,0,0,1-9.771,1.04c-6.048,0-9.619-.6-11.939-2a6.9,6.9,0,0,1-3.086-4.027l1.268-.254a1.563,1.563,0,1,0-.613-3.064l-1.2.241q-.052-.737-.052-1.549c0-.7.032-1.409.1-2.109l1.16.232a1.563,1.563,0,1,0,.613-3.064l-1.27-.254A15.757,15.757,0,0,1,68.75,33.378v2.747a1.562,1.562,0,1,0,3.125,0V32.064A16.19,16.19,0,0,1,75,31.5V39.25a1.562,1.562,0,1,0,3.125,0V31.5a16.191,16.191,0,0,1,3.125.562v4.061a1.562,1.562,0,0,0,3.125,0V33.378a15.761,15.761,0,0,1,7.214,10.335l-1.27.254a1.563,1.563,0,0,0,.613,3.064l1.16-.232c.064.7.1,1.4.1,2.109q0,.814-.052,1.549l-1.2-.241a1.563,1.563,0,0,0-.613,3.064l1.268.254A6.909,6.909,0,0,1,88.5,57.563Z" transform="translate(0)"/>
      <circle id="Elipse_5338" data-name="Elipse 5338" cx="1.559" cy="1.559" r="1.559" transform="translate(82.633 42.509)"/>
      <circle id="Elipse_5339" data-name="Elipse 5339" cx="1.559" cy="1.559" r="1.559" transform="translate(67.042 42.509)"/>
      <circle id="Elipse_5340" data-name="Elipse 5340" cx="1.562" cy="1.562" r="1.562" transform="translate(37.5 23.568)"/>
      <circle id="Elipse_5341" data-name="Elipse 5341" cx="1.562" cy="1.562" r="1.562" transform="translate(25 23.568)"/>
      <path id="Trazado_161010" data-name="Trazado 161010" d="M146.937,151.812c-2.834,0-3.1-1.3-3.125-1.595v-1.53a1.562,1.562,0,0,0,1.563-1.562,3.125,3.125,0,0,0-6.25,0,1.562,1.562,0,0,0,1.562,1.562v1.563a1.5,1.5,0,0,1-.273.625,3.488,3.488,0,0,1-2.852.938,1.562,1.562,0,1,0,0,3.125,6.778,6.778,0,0,0,4.687-1.466,6.778,6.778,0,0,0,4.687,1.466,1.562,1.562,0,1,0,0-3.125Zm-3.125-1.562v0Z" transform="translate(-109.438 -109.438)"/>
      <path id="Trazado_161011" data-name="Trazado 161011" d="M376.507,207.977a6.125,6.125,0,0,1-2.259-1.756v-1.533a1.562,1.562,0,0,0,1.563-1.562,3.125,3.125,0,0,0-6.25,0,1.562,1.562,0,0,0,1.563,1.563v1.533a6.117,6.117,0,0,1-2.257,1.755,1.563,1.563,0,1,0,1.39,2.8,11.276,11.276,0,0,0,2.43-1.623,11.279,11.279,0,0,0,2.43,1.623,1.563,1.563,0,0,0,1.392-2.8Z" transform="translate(-296.123 -154.5)"/>
    </g>
  </g>
</svg>
