<svg xmlns="http://www.w3.org/2000/svg" xmlns:xlink="http://www.w3.org/1999/xlink" width="427.844" height="427.844" viewBox="0 0 427.844 427.844">
  <defs>
    <linearGradient id="linear-gradient" x1="1.059" y1="0.884" x2="0.127" y2="-0.024" gradientUnits="objectBoundingBox">
      <stop offset="0" stop-color="#f85316"/>
      <stop offset="0.077" stop-color="#f85519"/>
      <stop offset="1" stop-color="#ff713d"/>
    </linearGradient>
    <linearGradient id="linear-gradient-2" x1="-0.09" y1="0.097" x2="0.867" y2="0.992" gradientUnits="objectBoundingBox">
      <stop offset="0" stop-color="#3d46c2"/>
      <stop offset="1" stop-color="#4752e3"/>
    </linearGradient>
  </defs>
  <g id="Grupo_109566" data-name="Grupo 109566" transform="translate(13530.961 10986.74)">
    <g id="Grupo_109394" data-name="Grupo 109394" transform="translate(-13530.96 -10986.74)">
      <g id="Grupo_80127" data-name="Grupo 80127" transform="translate(9.189 9.19)">
        <path id="Trazado_113538" data-name="Trazado 113538" d="M3870.8-1025.339a203.451,203.451,0,0,1-79.69-16.089,204.029,204.029,0,0,1-65.076-43.875,204.049,204.049,0,0,1-43.875-65.076,203.455,203.455,0,0,1-16.091-79.691,203.463,203.463,0,0,1,16.091-79.692,204.06,204.06,0,0,1,43.875-65.076,204.049,204.049,0,0,1,65.076-43.875,203.451,203.451,0,0,1,79.69-16.089,203.45,203.45,0,0,1,79.691,16.089,204.065,204.065,0,0,1,65.078,43.875,204.076,204.076,0,0,1,43.875,65.076,203.453,203.453,0,0,1,16.089,79.692,203.445,203.445,0,0,1-16.089,79.691,204.064,204.064,0,0,1-43.875,65.076,204.045,204.045,0,0,1-65.078,43.875A203.45,203.45,0,0,1,3870.8-1025.339Zm0-407.844c-112,0-203.113,91.116-203.113,203.113s91.117,203.114,203.113,203.114,203.114-91.117,203.114-203.114S3982.8-1433.184,3870.8-1433.184Z" transform="translate(-3666.072 1434.803)" fill="#fff"/>
      </g>
      <path id="Trazado_113539" data-name="Trazado 113539" d="M3817.59-1429.447h0a12.142,12.142,0,0,0,11.4,12.13,189.261,189.261,0,0,1,122.931,55.3,189.255,189.255,0,0,1,55.3,122.931,12.143,12.143,0,0,0,12.129,11.4h0a12.166,12.166,0,0,0,12.135-12.908,213.5,213.5,0,0,0-62.377-138.616,213.489,213.489,0,0,0-138.615-62.375A12.164,12.164,0,0,0,3817.59-1429.447Z" transform="translate(-3603.668 1441.604)" fill="url(#linear-gradient)"/>
      <path id="Trazado_113540" data-name="Trazado 113540" d="M3671.428-1283.287a12.167,12.167,0,0,0-12.135,12.91,213.478,213.478,0,0,0,62.375,138.613,213.482,213.482,0,0,0,138.616,62.378,12.165,12.165,0,0,0,12.909-12.135h0a12.141,12.141,0,0,0-11.4-12.128,189.254,189.254,0,0,1-122.932-55.3,189.252,189.252,0,0,1-55.3-122.93,12.143,12.143,0,0,0-12.13-11.4Z" transform="translate(-3659.272 1497.208)" fill="url(#linear-gradient-2)"/>
    </g>
  </g>
</svg>
