<svg xmlns="http://www.w3.org/2000/svg" width="100.003" height="100" viewBox="0 0 100.003 100">
  <g id="Grupo_109500" data-name="Grupo 109500" transform="translate(4194.434 1991.674)">
    <g id="Grupo_109499" data-name="Grupo 109499">
      <g id="victoria" transform="translate(-4199.683 -1996.923)">
        <g id="Grupo_109363" data-name="Grupo 109363" transform="translate(6.739 6.738)">
          <path id="Trazado_161040" data-name="Trazado 161040" d="M76.787,104.02V62.262l26.378-45.687a6.384,6.384,0,0,0-11.059-6.383l-23.671,41H42.586l-23.671-41A6.384,6.384,0,0,0,7.856,16.575L34.234,62.262V104.02Z" transform="translate(-7 -6.998)" fill="#f85316"/>
          <g id="Grupo_109362" data-name="Grupo 109362" transform="translate(0 0)">
            <circle id="Elipse_5355" data-name="Elipse 5355" cx="14.468" cy="14.468" r="14.468" transform="translate(34.042 23.222)" fill="#ffd3c2"/>
            <path id="Trazado_161041" data-name="Trazado 161041" d="M18.915,10.192A6.384,6.384,0,0,0,7.856,16.575l3.178,5.5L22.089,15.7Z" transform="translate(-7 -6.998)" fill="#ffd3c2"/>
            <path id="Trazado_161042" data-name="Trazado 161042" d="M106.444,10.192A6.383,6.383,0,0,1,117.5,16.575l-3.178,5.5L103.265,15.7Z" transform="translate(-21.338 -6.998)" fill="#ffd3c2"/>
          </g>
        </g>
        <g id="Grupo_109364" data-name="Grupo 109364" transform="translate(5.249 5.249)">
          <path id="Trazado_161043" data-name="Trazado 161043" d="M67.283,13.979h1.88a1.489,1.489,0,0,0,0-2.979h-1.88a1.489,1.489,0,0,0,0,2.979Z" transform="translate(-14.267 -6.106)"/>
          <path id="Trazado_161044" data-name="Trazado 161044" d="M57.986,13.979h1.88a1.489,1.489,0,0,0,0-2.979h-1.88a1.489,1.489,0,0,0,0,2.979Z" transform="translate(-12.882 -6.106)"/>
          <path id="Trazado_161045" data-name="Trazado 161045" d="M63.739,19.406a1.489,1.489,0,0,0,1.489-1.489V16.039a1.489,1.489,0,0,0-2.979,0v1.88A1.488,1.488,0,0,0,63.739,19.406Z" transform="translate(-13.739 -6.635)"/>
          <path id="Trazado_161046" data-name="Trazado 161046" d="M63.739,10.109a1.489,1.489,0,0,0,1.489-1.489V6.739a1.489,1.489,0,0,0-2.979,0v1.88a1.488,1.488,0,0,0,1.489,1.489Z" transform="translate(-13.739 -5.249)"/>
          <path id="Trazado_161047" data-name="Trazado 161047" d="M23.186,93.055h-1.88a1.489,1.489,0,0,0,0,2.979h1.88a1.489,1.489,0,1,0,0-2.979Z" transform="translate(-7.419 -18.327)"/>
          <path id="Trazado_161048" data-name="Trazado 161048" d="M13.89,93.055H12.01a1.489,1.489,0,0,0,0,2.979h1.88a1.489,1.489,0,1,0,0-2.979Z" transform="translate(-6.034 -18.327)"/>
          <path id="Trazado_161049" data-name="Trazado 161049" d="M17.762,96.6a1.489,1.489,0,0,0-1.489,1.489v1.88a1.489,1.489,0,1,0,2.979,0V98.089A1.489,1.489,0,0,0,17.762,96.6Z" transform="translate(-6.891 -18.855)"/>
          <path id="Trazado_161050" data-name="Trazado 161050" d="M17.762,87.3a1.489,1.489,0,0,0-1.489,1.489v1.88a1.489,1.489,0,1,0,2.979,0V88.791A1.489,1.489,0,0,0,17.762,87.3Z" transform="translate(-6.891 -17.47)"/>
          <path id="Trazado_161051" data-name="Trazado 161051" d="M115.138,93.055h-1.88a1.489,1.489,0,0,0,0,2.979h1.88a1.489,1.489,0,1,0,0-2.979Z" transform="translate(-21.114 -18.327)"/>
          <path id="Trazado_161052" data-name="Trazado 161052" d="M105.843,93.055h-1.88a1.489,1.489,0,1,0,0,2.979h1.88a1.489,1.489,0,1,0,0-2.979Z" transform="translate(-19.73 -18.327)"/>
          <path id="Trazado_161053" data-name="Trazado 161053" d="M109.716,96.6a1.488,1.488,0,0,0-1.489,1.489v1.88a1.489,1.489,0,1,0,2.979,0V98.089a1.489,1.489,0,0,0-1.489-1.489Z" transform="translate(-20.587 -18.855)"/>
          <path id="Trazado_161054" data-name="Trazado 161054" d="M109.716,87.3a1.488,1.488,0,0,0-1.489,1.489v1.88a1.489,1.489,0,1,0,2.979,0V88.791a1.489,1.489,0,0,0-1.489-1.491Z" transform="translate(-20.587 -17.47)"/>
          <path id="Trazado_161055" data-name="Trazado 161055" d="M34.666,61.641a1.489,1.489,0,1,0-2.58,1.489l4.365,7.557V86.155a1.489,1.489,0,0,0,2.979,0V70.291a1.49,1.49,0,0,0-.2-.745Z" transform="translate(-9.217 -13.537)"/>
          <path id="Trazado_161056" data-name="Trazado 161056" d="M38.739,97.941A1.489,1.489,0,0,0,37.25,99.43v18.135a1.489,1.489,0,0,0,2.979,0V99.43a1.489,1.489,0,0,0-1.489-1.489Z" transform="translate(-10.015 -19.055)"/>
          <path id="Trazado_161057" data-name="Trazado 161057" d="M104.98,11.086a7.872,7.872,0,0,0-14.422-1.9L71.127,42.845a15.956,15.956,0,0,0-31.755,0L19.941,9.187A7.872,7.872,0,0,0,6.305,17.059L24.24,48.123a1.49,1.49,0,0,0,2.58-1.489L12.808,22.364l8.476-4.893,19.79,34.251a15.931,15.931,0,0,0,28.34.026l19.8-34.276,8.476,4.893-3.667,6.352a1.489,1.489,0,1,0,2.58,1.489l7.591-13.146a7.824,7.824,0,0,0,.786-5.974Zm-93.662,8.7L8.885,15.57a4.894,4.894,0,1,1,8.476-4.894l2.434,4.214ZM55.25,57.406A12.979,12.979,0,1,1,68.228,44.427,12.979,12.979,0,0,1,55.25,57.406ZM101.614,15.57,99.18,19.784,90.7,14.891l2.433-4.214a4.894,4.894,0,1,1,8.476,4.894Z" transform="translate(-5.249 -5.249)"/>
          <path id="Trazado_161058" data-name="Trazado 161058" d="M103.026,46.285a1.49,1.49,0,0,0,2.035-.546l2.115-3.66a1.491,1.491,0,0,0-2.581-1.493l-2.115,3.66a1.489,1.489,0,0,0,.546,2.038Z" transform="translate(-19.701 -10.402)"/>
          <path id="Trazado_161059" data-name="Trazado 161059" d="M98.4,52.241a1.49,1.49,0,0,0-2.035.546L87.449,68.227a1.49,1.49,0,0,0-.2.745v41.757a1.489,1.489,0,1,0,2.979,0V69.368l8.715-15.094a1.49,1.49,0,0,0-.545-2.032Z" transform="translate(-17.463 -12.219)"/>
        </g>
      </g>
    </g>
  </g>
</svg>
